<?xml version="1.0" encoding="UTF-8" standalone="no"?><svg xmlns="http://www.w3.org/2000/svg" xmlns:xlink="http://www.w3.org/1999/xlink" contentStyleType="text/css" height="394px" preserveAspectRatio="none" style="width:597px;height:394px;background:#0B58A8;" version="1.1" viewBox="0 0 597 394" width="597px" zoomAndPan="magnify"><defs/><g><!--MD5=[740a8b848f952eeae18108992429e46a]
cluster USER--><g id="cluster_USER"><path d="M184.5,13.946 L242.25,13.946 A3.75,3.75 0 0 1 244.75,16.446 L251.75,49.9101 L587.5,49.9101 A2.5,2.5 0 0 1 590,52.4101 L590,385.446 A2.5,2.5 0 0 1 587.5,387.946 L184.5,387.946 A2.5,2.5 0 0 1 182,385.446 L182,16.446 A2.5,2.5 0 0 1 184.5,13.946 " fill="#0B58A8" style="stroke:#FFFFFF;stroke-width:1.0;"/><line style="stroke:#FFFFFF;stroke-width:1.0;" x1="182" x2="251.75" y1="49.9101" y2="49.9101"/><text fill="#FFFFFF" font-family="Verdana" font-size="22" font-weight="bold" lengthAdjust="spacing" textLength="56.75" x="186" y="39.4641">USER</text></g><g id="elem_cadastro"><ellipse cx="255.0503" cy="78.8521" fill="#0B58A8" rx="54.0503" ry="16.906" style="stroke:#FFFFFF;stroke-width:1.0;"/><text fill="#FFFFFF" font-family="Verdana" font-size="14" lengthAdjust="spacing" textLength="58" x="223.0503" y="83.585">cadastro</text></g><g id="elem_listagem"><ellipse cx="255.038" cy="147.837" fill="#0B58A8" rx="52.538" ry="16.891" style="stroke:#FFFFFF;stroke-width:1.0;"/><text fill="#FFFFFF" font-family="Verdana" font-size="14" lengthAdjust="spacing" textLength="56" x="224.038" y="152.57">listagem</text></g><g id="elem_consulta"><ellipse cx="255.038" cy="216.837" fill="#0B58A8" rx="52.538" ry="16.891" style="stroke:#FFFFFF;stroke-width:1.0;"/><text fill="#FFFFFF" font-family="Verdana" font-size="14" lengthAdjust="spacing" textLength="56" x="224.038" y="221.57">consulta</text></g><g id="elem_alteracao"><ellipse cx="255.0751" cy="285.8798" fill="#0B58A8" rx="57.0751" ry="16.9338" style="stroke:#FFFFFF;stroke-width:1.0;"/><text fill="#FFFFFF" font-family="Verdana" font-size="14" lengthAdjust="spacing" textLength="62" x="221.0751" y="290.6128">alteração</text></g><g id="elem_remocao"><ellipse cx="254.8065" cy="354.8593" fill="#0B58A8" rx="54.8065" ry="16.9133" style="stroke:#FFFFFF;stroke-width:1.0;"/><text fill="#FFFFFF" font-family="Verdana" font-size="14" lengthAdjust="spacing" textLength="59" x="222.3065" y="359.5923">remoção</text></g><g id="elem_must_have_session"><path d="M372,194.446 L372,239.8581 L574,239.8581 L574,204.446 L564,194.446 L372,194.446 " fill="#0B58A8" style="stroke:#FFFFFF;stroke-width:1.0;"/><path d="M564,194.446 L564,204.446 L574,204.446 L564,194.446 " fill="#0B58A8" style="stroke:#FFFFFF;stroke-width:1.0;"/><text fill="#FFFFFF" font-family="Verdana" font-size="13" lengthAdjust="spacing" textLength="174" x="378" y="213.343">O usuário deverá ter iniciado</text><text fill="#FFFFFF" font-family="Verdana" font-size="13" lengthAdjust="spacing" textLength="181" x="378" y="231.0491">uma sessão para estes casos.</text></g><!--MD5=[8fc3522a43f8c7199df5e09e5bb0188e]
entity user--><g id="elem_user"><ellipse cx="74.5" cy="185.946" fill="#0B58A8" rx="8" ry="8" style="stroke:#FFFFFF;stroke-width:1.0;"/><path d="M74.5,193.946 L74.5,220.946 M61.5,201.946 L87.5,201.946 M74.5,220.946 L61.5,235.946 M74.5,220.946 L87.5,235.946 " fill="none" style="stroke:#FFFFFF;stroke-width:1.0;"/><text fill="#FFFFFF" font-family="Verdana" font-size="14" lengthAdjust="spacing" textLength="127" x="11" y="252.912">Usuário do Sistema</text></g><!--MD5=[f931e4a3fd4c9c309e5f766de67f983a]
link cadastro to must_have_session--><g id="link_cadastro_must_have_session"><path d="M281.19,94.016 C290.86,99.866 301.98,106.656 312,112.946 C355.76,140.446 405.6,173.046 437.86,194.326 " fill="none" id="cadastro-must_have_session" style="stroke:#FFFFFF;stroke-width:1.0;stroke-dasharray:7.0,7.0;"/></g><!--MD5=[97ecbbcbc6f439a7f75a5c9091f490a5]
link listagem to must_have_session--><g id="link_listagem_must_have_session"><path d="M293.13,159.806 C322.8,169.286 365.26,182.846 401.36,194.376 " fill="none" id="listagem-must_have_session" style="stroke:#FFFFFF;stroke-width:1.0;stroke-dasharray:7.0,7.0;"/></g><!--MD5=[c8fc87e398d8eeaa031e4fc389bcc721]
link consulta to must_have_session--><g id="link_consulta_must_have_session"><path d="M307.74,216.946 C326.96,216.946 349.48,216.946 371.57,216.946 " fill="none" id="consulta-must_have_session" style="stroke:#FFFFFF;stroke-width:1.0;stroke-dasharray:7.0,7.0;"/></g><!--MD5=[7fb8249ef2a9e182ff6a95946e42918f]
link alteracao to must_have_session--><g id="link_alteracao_must_have_session"><path d="M294.62,273.606 C324.22,264.156 365.9,250.836 401.41,239.496 " fill="none" id="alteracao-must_have_session" style="stroke:#FFFFFF;stroke-width:1.0;stroke-dasharray:7.0,7.0;"/></g><!--MD5=[efcca4dc052ec630cf5c812d01177ca0]
link remocao to must_have_session--><g id="link_remocao_must_have_session"><path d="M280.58,339.686 C290.37,333.576 301.74,326.456 312,319.946 C355.24,292.516 404.77,260.546 437.13,239.586 " fill="none" id="remocao-must_have_session" style="stroke:#FFFFFF;stroke-width:1.0;stroke-dasharray:7.0,7.0;"/></g><!--MD5=[88f8b235c40594211c279de3998bab2c]
link user to cadastro--><g id="link_user_cadastro"><path d="M106.64,176.796 C124.58,155.696 148.57,130.616 174,112.946 C187.01,103.906 202.81,96.556 216.92,91.046 " fill="none" id="user-cadastro" style="stroke:#FFFFFF;stroke-width:1.0;"/></g><!--MD5=[21b019fec7d9d50c4d2460b9efe77e58]
link user to listagem--><g id="link_user_listagem"><path d="M138.18,192.716 C165.91,181.996 197.4,169.826 220.54,160.886 " fill="none" id="user-listagem" style="stroke:#FFFFFF;stroke-width:1.0;"/></g><!--MD5=[10846f423dcbea91cb47bb990d8045cc]
link user to consulta--><g id="link_user_consulta"><path d="M138.18,216.946 C159.18,216.946 182.33,216.946 202.38,216.946 " fill="none" id="user-consulta" style="stroke:#FFFFFF;stroke-width:1.0;"/></g><!--MD5=[7d9373872fca034ba31d25ae36c141e5]
link user to alteracao--><g id="link_user_alteracao"><path d="M138.18,241.176 C165.51,251.736 196.48,263.716 219.52,272.616 " fill="none" id="user-alteracao" style="stroke:#FFFFFF;stroke-width:1.0;"/></g><!--MD5=[a1ce6599154145c3e650ffae0659ede5]
link user to remocao--><g id="link_user_remocao"><path d="M107.22,257.096 C125.15,277.856 148.96,302.436 174,319.946 C187.17,329.156 203.15,336.736 217.35,342.466 " fill="none" id="user-remocao" style="stroke:#FFFFFF;stroke-width:1.0;"/></g></g></svg>