<?xml version="1.0" encoding="UTF-8" standalone="no"?><svg xmlns="http://www.w3.org/2000/svg" xmlns:xlink="http://www.w3.org/1999/xlink" contentStyleType="text/css" height="879px" preserveAspectRatio="none" style="width:1174px;height:879px;background:#0B58A8;" version="1.1" viewBox="0 0 1174 879" width="1174px" zoomAndPan="magnify"><defs/><g><rect fill="#0B58A8" height="345.0602" style="stroke:#FFFFFF;stroke-width:1.0;" width="10" x="443.5" y="196.186"/><rect fill="#0B58A8" height="190.2361" style="stroke:#FFFFFF;stroke-width:1.0;" width="10" x="698.5" y="273.598"/><rect fill="#0B58A8" height="126.8241" style="stroke:#FFFFFF;stroke-width:1.0;" width="10" x="698.5" y="650.3642"/><rect fill="#0B58A8" height="31.706" style="stroke:#FFFFFF;stroke-width:1.0;" width="10" x="908.5" y="682.0702"/><rect fill="#0B58A8" height="95.118" style="stroke:#FFFFFF;stroke-width:1.0;" width="10" x="1008" y="305.304"/><rect fill="#0B58A8" height="345.0602" style="stroke:#FFFFFF;stroke-width:1.0;" width="10" x="1114" y="432.1281"/><line style="stroke:#FFFFFF;stroke-width:1.0;stroke-dasharray:5.0,5.0;" x1="37" x2="37" y1="85.0679" y2="795.1882"/><line style="stroke:#FFFFFF;stroke-width:1.0;stroke-dasharray:5.0,5.0;" x1="184.5" x2="184.5" y1="85.0679" y2="795.1882"/><line style="stroke:#FFFFFF;stroke-width:1.0;stroke-dasharray:5.0,5.0;" x1="448" x2="448" y1="85.0679" y2="795.1882"/><line style="stroke:#FFFFFF;stroke-width:1.0;stroke-dasharray:5.0,5.0;" x1="703" x2="703" y1="85.0679" y2="795.1882"/><line style="stroke:#FFFFFF;stroke-width:1.0;stroke-dasharray:5.0,5.0;" x1="913" x2="913" y1="85.0679" y2="795.1882"/><line style="stroke:#FFFFFF;stroke-width:1.0;stroke-dasharray:5.0,5.0;" x1="1013" x2="1013" y1="85.0679" y2="795.1882"/><line style="stroke:#FFFFFF;stroke-width:1.0;stroke-dasharray:5.0,5.0;" x1="1119" x2="1119" y1="85.0679" y2="795.1882"/><text fill="#FFFFFF" font-family="Verdana" font-size="14" lengthAdjust="spacing" textLength="49" x="10" y="80.9659">Usuário</text><ellipse cx="37.5" cy="14" fill="#0B58A8" rx="8" ry="8" style="stroke:#FFFFFF;stroke-width:1.0;"/><path d="M37.5,22 L37.5,49 M24.5,30 L50.5,30 M37.5,49 L24.5,64 M37.5,49 L50.5,64 " fill="none" style="stroke:#FFFFFF;stroke-width:1.0;"/><text fill="#FFFFFF" font-family="Verdana" font-size="14" lengthAdjust="spacing" textLength="49" x="10" y="809.1542">Usuário</text><ellipse cx="37.5" cy="822.2562" fill="#0B58A8" rx="8" ry="8" style="stroke:#FFFFFF;stroke-width:1.0;"/><path d="M37.5,830.2562 L37.5,857.2562 M24.5,838.2562 L50.5,838.2562 M37.5,857.2562 L24.5,872.2562 M37.5,857.2562 L50.5,872.2562 " fill="none" style="stroke:#FFFFFF;stroke-width:1.0;"/><text fill="#FFFFFF" font-family="Verdana" font-size="14" lengthAdjust="spacing" textLength="60" x="151.5" y="80.9659">FrontEnd</text><path d="M164,38 L164,62 M164,50 L181,50 " fill="none" style="stroke:#FFFFFF;stroke-width:1.0;"/><ellipse cx="193" cy="50" fill="#0B58A8" rx="12" ry="12" style="stroke:#FFFFFF;stroke-width:1.0;"/><text fill="#FFFFFF" font-family="Verdana" font-size="14" lengthAdjust="spacing" textLength="60" x="151.5" y="809.1542">FrontEnd</text><path d="M164,817.2562 L164,841.2562 M164,829.2562 L181,829.2562 " fill="none" style="stroke:#FFFFFF;stroke-width:1.0;"/><ellipse cx="193" cy="829.2562" fill="#0B58A8" rx="12" ry="12" style="stroke:#FFFFFF;stroke-width:1.0;"/><text fill="#FFFFFF" font-family="Verdana" font-size="14" lengthAdjust="spacing" textLength="23" x="434" y="80.9659">API</text><path d="M428,38 L428,62 M428,50 L445,50 " fill="none" style="stroke:#FFFFFF;stroke-width:1.0;"/><ellipse cx="457" cy="50" fill="#0B58A8" rx="12" ry="12" style="stroke:#FFFFFF;stroke-width:1.0;"/><text fill="#FFFFFF" font-family="Verdana" font-size="14" lengthAdjust="spacing" textLength="23" x="434" y="809.1542">API</text><path d="M428,817.2562 L428,841.2562 M428,829.2562 L445,829.2562 " fill="none" style="stroke:#FFFFFF;stroke-width:1.0;"/><ellipse cx="457" cy="829.2562" fill="#0B58A8" rx="12" ry="12" style="stroke:#FFFFFF;stroke-width:1.0;"/><text fill="#FFFFFF" font-family="Verdana" font-size="14" lengthAdjust="spacing" textLength="59" x="671" y="80.9659">SESSION</text><ellipse cx="703.5" cy="50" fill="#0B58A8" rx="12" ry="12" style="stroke:#FFFFFF;stroke-width:1.0;"/><polygon fill="#FFFFFF" points="699.5,38,705.5,33,703.5,38,705.5,43,699.5,38" style="stroke:#FFFFFF;stroke-width:1.0;"/><text fill="#FFFFFF" font-family="Verdana" font-size="14" lengthAdjust="spacing" textLength="59" x="671" y="809.1542">SESSION</text><ellipse cx="703.5" cy="829.2562" fill="#0B58A8" rx="12" ry="12" style="stroke:#FFFFFF;stroke-width:1.0;"/><polygon fill="#FFFFFF" points="699.5,817.2562,705.5,812.2562,703.5,817.2562,705.5,822.2562,699.5,817.2562" style="stroke:#FFFFFF;stroke-width:1.0;"/><rect fill="#0B58A8" height="33.0679" style="stroke:#FFFFFF;stroke-width:1.0;" width="49" x="891" y="47"/><rect fill="#0B58A8" height="33.0679" style="stroke:#FFFFFF;stroke-width:1.0;" width="49" x="887" y="51"/><text fill="#FFFFFF" font-family="Verdana" font-size="14" lengthAdjust="spacing" textLength="35" x="894" y="72.9659">Redis</text><rect fill="#0B58A8" height="33.0679" style="stroke:#FFFFFF;stroke-width:1.0;" width="49" x="891" y="794.1882"/><rect fill="#0B58A8" height="33.0679" style="stroke:#FFFFFF;stroke-width:1.0;" width="49" x="887" y="798.1882"/><text fill="#FFFFFF" font-family="Verdana" font-size="14" lengthAdjust="spacing" textLength="35" x="894" y="820.1542">Redis</text><rect fill="#0B58A8" height="33.0679" style="stroke:#FFFFFF;stroke-width:1.0;" width="82" x="974" y="47"/><rect fill="#0B58A8" height="33.0679" style="stroke:#FFFFFF;stroke-width:1.0;" width="82" x="970" y="51"/><text fill="#FFFFFF" font-family="Verdana" font-size="14" lengthAdjust="spacing" textLength="68" x="977" y="72.9659">MongoDB</text><rect fill="#0B58A8" height="33.0679" style="stroke:#FFFFFF;stroke-width:1.0;" width="82" x="974" y="794.1882"/><rect fill="#0B58A8" height="33.0679" style="stroke:#FFFFFF;stroke-width:1.0;" width="82" x="970" y="798.1882"/><text fill="#FFFFFF" font-family="Verdana" font-size="14" lengthAdjust="spacing" textLength="68" x="977" y="820.1542">MongoDB</text><path d="M1081,56 L1157,56 C1162,56 1162,70.534 1162,70.534 C1162,70.534 1162,85.0679 1157,85.0679 L1081,85.0679 C1076,85.0679 1076,70.534 1076,70.534 C1076,70.534 1076,56 1081,56 " fill="#0B58A8" style="stroke:#FFFFFF;stroke-width:1.0;"/><path d="M1157,56 C1152,56 1152,70.534 1152,70.534 C1152,85.0679 1157,85.0679 1157,85.0679 " fill="none" style="stroke:#FFFFFF;stroke-width:1.0;"/><text fill="#FFFFFF" font-family="Verdana" font-size="14" lengthAdjust="spacing" textLength="66" x="1081" y="75.9659">RabbitMQ</text><path d="M1081,794.1882 L1157,794.1882 C1162,794.1882 1162,808.7222 1162,808.7222 C1162,808.7222 1162,823.2562 1157,823.2562 L1081,823.2562 C1076,823.2562 1076,808.7222 1076,808.7222 C1076,808.7222 1076,794.1882 1081,794.1882 " fill="#0B58A8" style="stroke:#FFFFFF;stroke-width:1.0;"/><path d="M1157,794.1882 C1152,794.1882 1152,808.7222 1152,808.7222 C1152,823.2562 1157,823.2562 1157,823.2562 " fill="none" style="stroke:#FFFFFF;stroke-width:1.0;"/><text fill="#FFFFFF" font-family="Verdana" font-size="14" lengthAdjust="spacing" textLength="66" x="1081" y="814.1542">RabbitMQ</text><rect fill="#0B58A8" height="345.0602" style="stroke:#FFFFFF;stroke-width:1.0;" width="10" x="443.5" y="196.186"/><rect fill="#0B58A8" height="190.2361" style="stroke:#FFFFFF;stroke-width:1.0;" width="10" x="698.5" y="273.598"/><rect fill="#0B58A8" height="126.8241" style="stroke:#FFFFFF;stroke-width:1.0;" width="10" x="698.5" y="650.3642"/><rect fill="#0B58A8" height="31.706" style="stroke:#FFFFFF;stroke-width:1.0;" width="10" x="908.5" y="682.0702"/><rect fill="#0B58A8" height="95.118" style="stroke:#FFFFFF;stroke-width:1.0;" width="10" x="1008" y="305.304"/><rect fill="#0B58A8" height="345.0602" style="stroke:#FFFFFF;stroke-width:1.0;" width="10" x="1114" y="432.1281"/><rect fill="#FFFFFF" height="3" style="stroke:#FFFFFF;stroke-width:1.0;" width="1162" x="5" y="116.9209"/><line style="stroke:#FFFFFF;stroke-width:0.5;" x1="5" x2="1167" y1="116.9209" y2="116.9209"/><line style="stroke:#FFFFFF;stroke-width:0.5;" x1="5" x2="1167" y1="119.9209" y2="119.9209"/><rect fill="#FFFFFF" height="25.706" style="stroke:#FFFFFF;stroke-width:1.0;" width="150.3125" x="510.8438" y="105.0679"/><text fill="#0B58A8" font-family="Verdana" font-size="13" font-weight="bold" lengthAdjust="spacing" textLength="133.3125" x="516.8438" y="122.9649">Interação do usuário</text><polygon fill="#FFFFFF" points="172.5,160.4799,182.5,164.4799,172.5,168.4799,176.5,164.4799" style="stroke:#FFFFFF;stroke-width:1.0;"/><line style="stroke:#FFFFFF;stroke-width:1.0;" x1="37.5" x2="178.5" y1="164.4799" y2="164.4799"/><text fill="#FFFFFF" font-family="Verdana" font-size="13" lengthAdjust="spacing" textLength="123" x="44.5" y="158.6709">Realização de logoff</text><polygon fill="#FFFFFF" points="431.5,192.186,441.5,196.186,431.5,200.186,435.5,196.186" style="stroke:#FFFFFF;stroke-width:1.0;"/><line style="stroke:#FFFFFF;stroke-width:1.0;" x1="184.5" x2="437.5" y1="196.186" y2="196.186"/><text fill="#FFFFFF" font-family="Verdana" font-size="13" lengthAdjust="spacing" textLength="240" x="191.5" y="190.377">Requisição de encerramento de sessão</text><rect fill="#FFFFFF" height="3" style="stroke:#FFFFFF;stroke-width:1.0;" width="1162" x="5" y="226.039"/><line style="stroke:#FFFFFF;stroke-width:0.5;" x1="5" x2="1167" y1="226.039" y2="226.039"/><line style="stroke:#FFFFFF;stroke-width:0.5;" x1="5" x2="1167" y1="229.039" y2="229.039"/><rect fill="#FFFFFF" height="25.706" style="stroke:#FFFFFF;stroke-width:1.0;" width="144.0938" x="513.9531" y="214.186"/><text fill="#0B58A8" font-family="Verdana" font-size="13" font-weight="bold" lengthAdjust="spacing" textLength="127.0938" x="519.9531" y="232.083">Remoção da sessão</text><polygon fill="#FFFFFF" points="686.5,269.598,696.5,273.598,686.5,277.598,690.5,273.598" style="stroke:#FFFFFF;stroke-width:1.0;"/><line style="stroke:#FFFFFF;stroke-width:1.0;" x1="453.5" x2="692.5" y1="273.598" y2="273.598"/><text fill="#FFFFFF" font-family="Verdana" font-size="13" lengthAdjust="spacing" textLength="226" x="460.5" y="267.789">Remoção da sessão através do token</text><polygon fill="#FFFFFF" points="996,301.304,1006,305.304,996,309.304,1000,305.304" style="stroke:#FFFFFF;stroke-width:1.0;"/><line style="stroke:#FFFFFF;stroke-width:1.0;" x1="708.5" x2="1002" y1="305.304" y2="305.304"/><text fill="#FFFFFF" font-family="Verdana" font-size="13" lengthAdjust="spacing" textLength="213" x="715.5" y="299.495">Verificação da existência da sessão</text><polygon fill="#FFFFFF" points="719.5,333.01,709.5,337.01,719.5,341.01,715.5,337.01" style="stroke:#FFFFFF;stroke-width:1.0;"/><line style="stroke:#FFFFFF;stroke-width:1.0;stroke-dasharray:2.0,2.0;" x1="713.5" x2="1007" y1="337.01" y2="337.01"/><text fill="#FFFFFF" font-family="Verdana" font-size="13" lengthAdjust="spacing" textLength="104" x="725.5" y="331.201">Dados da sessão</text><polygon fill="#FFFFFF" points="996,364.716,1006,368.716,996,372.716,1000,368.716" style="stroke:#FFFFFF;stroke-width:1.0;"/><line style="stroke:#FFFFFF;stroke-width:1.0;" x1="708.5" x2="1002" y1="368.716" y2="368.716"/><text fill="#FFFFFF" font-family="Verdana" font-size="13" lengthAdjust="spacing" textLength="121" x="715.5" y="362.907">Remoção da sessão</text><polygon fill="#FFFFFF" points="719.5,396.4221,709.5,400.4221,719.5,404.4221,715.5,400.4221" style="stroke:#FFFFFF;stroke-width:1.0;"/><line style="stroke:#FFFFFF;stroke-width:1.0;stroke-dasharray:2.0,2.0;" x1="713.5" x2="1012" y1="400.4221" y2="400.4221"/><text fill="#FFFFFF" font-family="Verdana" font-size="13" lengthAdjust="spacing" textLength="52" x="725.5" y="394.6131">Sucesso</text><polygon fill="#FFFFFF" points="1102,428.1281,1112,432.1281,1102,436.1281,1106,432.1281" style="stroke:#FFFFFF;stroke-width:1.0;"/><line style="stroke:#FFFFFF;stroke-width:1.0;" x1="708.5" x2="1108" y1="432.1281" y2="432.1281"/><text fill="#FFFFFF" font-family="Verdana" font-size="13" lengthAdjust="spacing" textLength="271" x="715.5" y="426.3191">Broadcast de requisição de limpeza de cache</text><polygon fill="#FFFFFF" points="464.5,459.8341,454.5,463.8341,464.5,467.8341,460.5,463.8341" style="stroke:#FFFFFF;stroke-width:1.0;"/><line style="stroke:#FFFFFF;stroke-width:1.0;stroke-dasharray:2.0,2.0;" x1="458.5" x2="702.5" y1="463.8341" y2="463.8341"/><text fill="#FFFFFF" font-family="Verdana" font-size="13" lengthAdjust="spacing" textLength="52" x="470.5" y="458.0251">Sucesso</text><rect fill="#FFFFFF" height="3" style="stroke:#FFFFFF;stroke-width:1.0;" width="1162" x="5" y="493.6871"/><line style="stroke:#FFFFFF;stroke-width:0.5;" x1="5" x2="1167" y1="493.6871" y2="493.6871"/><line style="stroke:#FFFFFF;stroke-width:0.5;" x1="5" x2="1167" y1="496.6871" y2="496.6871"/><rect fill="#FFFFFF" height="25.706" style="stroke:#FFFFFF;stroke-width:1.0;" width="112.875" x="529.5625" y="481.8341"/><text fill="#0B58A8" font-family="Verdana" font-size="13" font-weight="bold" lengthAdjust="spacing" textLength="95.875" x="535.5625" y="499.7311">Retorno da API</text><polygon fill="#FFFFFF" points="195.5,537.2461,185.5,541.2461,195.5,545.2461,191.5,541.2461" style="stroke:#FFFFFF;stroke-width:1.0;"/><line style="stroke:#FFFFFF;stroke-width:1.0;stroke-dasharray:2.0,2.0;" x1="189.5" x2="447.5" y1="541.2461" y2="541.2461"/><text fill="#FFFFFF" font-family="Verdana" font-size="13" lengthAdjust="spacing" textLength="130" x="201.5" y="535.4371">Resposta de sucesso</text><polygon fill="#FFFFFF" points="48.5,568.9521,38.5,572.9521,48.5,576.9521,44.5,572.9521" style="stroke:#FFFFFF;stroke-width:1.0;"/><line style="stroke:#FFFFFF;stroke-width:1.0;stroke-dasharray:2.0,2.0;" x1="42.5" x2="183.5" y1="572.9521" y2="572.9521"/><text fill="#FFFFFF" font-family="Verdana" font-size="13" lengthAdjust="spacing" textLength="111" x="54.5" y="567.1431">Redirecionamento</text><rect fill="#FFFFFF" height="3" style="stroke:#FFFFFF;stroke-width:1.0;" width="1162" x="5" y="602.8052"/><line style="stroke:#FFFFFF;stroke-width:0.5;" x1="5" x2="1167" y1="602.8052" y2="602.8052"/><line style="stroke:#FFFFFF;stroke-width:0.5;" x1="5" x2="1167" y1="605.8052" y2="605.8052"/><rect fill="#FFFFFF" height="25.706" style="stroke:#FFFFFF;stroke-width:1.0;" width="176.3125" x="497.8438" y="590.9521"/><text fill="#0B58A8" font-family="Verdana" font-size="13" font-weight="bold" lengthAdjust="spacing" textLength="159.3125" x="503.8438" y="608.8492">Consumo de mensagens</text><polygon fill="#FFFFFF" points="719.5,646.3642,709.5,650.3642,719.5,654.3642,715.5,650.3642" style="stroke:#FFFFFF;stroke-width:1.0;"/><line style="stroke:#FFFFFF;stroke-width:1.0;stroke-dasharray:2.0,2.0;" x1="713.5" x2="1113" y1="650.3642" y2="650.3642"/><text fill="#FFFFFF" font-family="Verdana" font-size="13" lengthAdjust="spacing" textLength="225" x="725.5" y="644.5552">Recebe mensagem para limpar cache</text><polygon fill="#FFFFFF" points="896.5,678.0702,906.5,682.0702,896.5,686.0702,900.5,682.0702" style="stroke:#FFFFFF;stroke-width:1.0;"/><line style="stroke:#FFFFFF;stroke-width:1.0;" x1="708.5" x2="902.5" y1="682.0702" y2="682.0702"/><text fill="#FFFFFF" font-family="Verdana" font-size="13" lengthAdjust="spacing" textLength="181" x="715.5" y="676.2612">Remoção da sessão em cache</text><polygon fill="#FFFFFF" points="719.5,709.7762,709.5,713.7762,719.5,717.7762,715.5,713.7762" style="stroke:#FFFFFF;stroke-width:1.0;"/><line style="stroke:#FFFFFF;stroke-width:1.0;stroke-dasharray:2.0,2.0;" x1="713.5" x2="912.5" y1="713.7762" y2="713.7762"/><text fill="#FFFFFF" font-family="Verdana" font-size="13" lengthAdjust="spacing" textLength="52" x="725.5" y="707.9672">Sucesso</text><polygon fill="#FFFFFF" points="1102,741.4822,1112,745.4822,1102,749.4822,1106,745.4822" style="stroke:#FFFFFF;stroke-width:1.0;"/><line style="stroke:#FFFFFF;stroke-width:1.0;" x1="708.5" x2="1108" y1="745.4822" y2="745.4822"/><text fill="#FFFFFF" font-family="Verdana" font-size="13" lengthAdjust="spacing" textLength="150" x="715.5" y="739.6732">Desenfileirar mensagem</text><polygon fill="#FFFFFF" points="714.5,773.1882,704.5,777.1882,714.5,781.1882,710.5,777.1882" style="stroke:#FFFFFF;stroke-width:1.0;"/><line style="stroke:#FFFFFF;stroke-width:1.0;stroke-dasharray:2.0,2.0;" x1="708.5" x2="1118" y1="777.1882" y2="777.1882"/><text fill="#FFFFFF" font-family="Verdana" font-size="13" lengthAdjust="spacing" textLength="52" x="720.5" y="771.3792">Sucesso</text></g></svg>