<?xml version="1.0" encoding="UTF-8" standalone="no"?><svg xmlns="http://www.w3.org/2000/svg" xmlns:xlink="http://www.w3.org/1999/xlink" contentStyleType="text/css" height="786px" preserveAspectRatio="none" style="width:1067px;height:786px;background:#0B58A8;" version="1.1" viewBox="0 0 1067 786" width="1067px" zoomAndPan="magnify"><defs/><g><rect fill="#0B58A8" height="456.8842" style="stroke:#FFFFFF;stroke-width:1.0;" width="10" x="384.5" y="196.186"/><rect fill="#0B58A8" height="302.0602" style="stroke:#FFFFFF;stroke-width:1.0;" width="10" x="602.5" y="273.598"/><rect fill="#0B58A8" height="31.706" style="stroke:#FFFFFF;stroke-width:1.0;" width="10" x="802.5" y="512.2461"/><rect fill="#0B58A8" height="49.412" style="stroke:#FFFFFF;stroke-width:1.0;" width="10" x="902" y="413.4221"/><rect fill="#0B58A8" height="31.706" style="stroke:#FFFFFF;stroke-width:1.0;" width="10" x="1007.5" y="305.304"/><line style="stroke:#FFFFFF;stroke-width:1.0;stroke-dasharray:5.0,5.0;" x1="37" x2="37" y1="85.0679" y2="702.7762"/><line style="stroke:#FFFFFF;stroke-width:1.0;stroke-dasharray:5.0,5.0;" x1="177.5" x2="177.5" y1="85.0679" y2="702.7762"/><line style="stroke:#FFFFFF;stroke-width:1.0;stroke-dasharray:5.0,5.0;" x1="389" x2="389" y1="85.0679" y2="702.7762"/><line style="stroke:#FFFFFF;stroke-width:1.0;stroke-dasharray:5.0,5.0;" x1="607" x2="607" y1="85.0679" y2="702.7762"/><line style="stroke:#FFFFFF;stroke-width:1.0;stroke-dasharray:5.0,5.0;" x1="807" x2="807" y1="85.0679" y2="702.7762"/><line style="stroke:#FFFFFF;stroke-width:1.0;stroke-dasharray:5.0,5.0;" x1="907" x2="907" y1="85.0679" y2="702.7762"/><line style="stroke:#FFFFFF;stroke-width:1.0;stroke-dasharray:5.0,5.0;" x1="1012" x2="1012" y1="85.0679" y2="702.7762"/><text fill="#FFFFFF" font-family="Verdana" font-size="14" lengthAdjust="spacing" textLength="49" x="10" y="80.9659">Usuário</text><ellipse cx="37.5" cy="14" fill="#0B58A8" rx="8" ry="8" style="stroke:#FFFFFF;stroke-width:1.0;"/><path d="M37.5,22 L37.5,49 M24.5,30 L50.5,30 M37.5,49 L24.5,64 M37.5,49 L50.5,64 " fill="none" style="stroke:#FFFFFF;stroke-width:1.0;"/><text fill="#FFFFFF" font-family="Verdana" font-size="14" lengthAdjust="spacing" textLength="49" x="10" y="716.7421">Usuário</text><ellipse cx="37.5" cy="729.8441" fill="#0B58A8" rx="8" ry="8" style="stroke:#FFFFFF;stroke-width:1.0;"/><path d="M37.5,737.8441 L37.5,764.8441 M24.5,745.8441 L50.5,745.8441 M37.5,764.8441 L24.5,779.8441 M37.5,764.8441 L50.5,779.8441 " fill="none" style="stroke:#FFFFFF;stroke-width:1.0;"/><text fill="#FFFFFF" font-family="Verdana" font-size="14" lengthAdjust="spacing" textLength="60" x="144.5" y="80.9659">FrontEnd</text><path d="M157,38 L157,62 M157,50 L174,50 " fill="none" style="stroke:#FFFFFF;stroke-width:1.0;"/><ellipse cx="186" cy="50" fill="#0B58A8" rx="12" ry="12" style="stroke:#FFFFFF;stroke-width:1.0;"/><text fill="#FFFFFF" font-family="Verdana" font-size="14" lengthAdjust="spacing" textLength="60" x="144.5" y="716.7421">FrontEnd</text><path d="M157,724.8441 L157,748.8441 M157,736.8441 L174,736.8441 " fill="none" style="stroke:#FFFFFF;stroke-width:1.0;"/><ellipse cx="186" cy="736.8441" fill="#0B58A8" rx="12" ry="12" style="stroke:#FFFFFF;stroke-width:1.0;"/><text fill="#FFFFFF" font-family="Verdana" font-size="14" lengthAdjust="spacing" textLength="23" x="375" y="80.9659">API</text><path d="M369,38 L369,62 M369,50 L386,50 " fill="none" style="stroke:#FFFFFF;stroke-width:1.0;"/><ellipse cx="398" cy="50" fill="#0B58A8" rx="12" ry="12" style="stroke:#FFFFFF;stroke-width:1.0;"/><text fill="#FFFFFF" font-family="Verdana" font-size="14" lengthAdjust="spacing" textLength="23" x="375" y="716.7421">API</text><path d="M369,724.8441 L369,748.8441 M369,736.8441 L386,736.8441 " fill="none" style="stroke:#FFFFFF;stroke-width:1.0;"/><ellipse cx="398" cy="736.8441" fill="#0B58A8" rx="12" ry="12" style="stroke:#FFFFFF;stroke-width:1.0;"/><text fill="#FFFFFF" font-family="Verdana" font-size="14" lengthAdjust="spacing" textLength="59" x="575" y="80.9659">SESSION</text><ellipse cx="607.5" cy="50" fill="#0B58A8" rx="12" ry="12" style="stroke:#FFFFFF;stroke-width:1.0;"/><polygon fill="#FFFFFF" points="603.5,38,609.5,33,607.5,38,609.5,43,603.5,38" style="stroke:#FFFFFF;stroke-width:1.0;"/><text fill="#FFFFFF" font-family="Verdana" font-size="14" lengthAdjust="spacing" textLength="59" x="575" y="716.7421">SESSION</text><ellipse cx="607.5" cy="736.8441" fill="#0B58A8" rx="12" ry="12" style="stroke:#FFFFFF;stroke-width:1.0;"/><polygon fill="#FFFFFF" points="603.5,724.8441,609.5,719.8441,607.5,724.8441,609.5,729.8441,603.5,724.8441" style="stroke:#FFFFFF;stroke-width:1.0;"/><rect fill="#0B58A8" height="33.0679" style="stroke:#FFFFFF;stroke-width:1.0;" width="49" x="785" y="47"/><rect fill="#0B58A8" height="33.0679" style="stroke:#FFFFFF;stroke-width:1.0;" width="49" x="781" y="51"/><text fill="#FFFFFF" font-family="Verdana" font-size="14" lengthAdjust="spacing" textLength="35" x="788" y="72.9659">Redis</text><rect fill="#0B58A8" height="33.0679" style="stroke:#FFFFFF;stroke-width:1.0;" width="49" x="785" y="701.7762"/><rect fill="#0B58A8" height="33.0679" style="stroke:#FFFFFF;stroke-width:1.0;" width="49" x="781" y="705.7762"/><text fill="#FFFFFF" font-family="Verdana" font-size="14" lengthAdjust="spacing" textLength="35" x="788" y="727.7421">Redis</text><rect fill="#0B58A8" height="33.0679" style="stroke:#FFFFFF;stroke-width:1.0;" width="82" x="868" y="47"/><rect fill="#0B58A8" height="33.0679" style="stroke:#FFFFFF;stroke-width:1.0;" width="82" x="864" y="51"/><text fill="#FFFFFF" font-family="Verdana" font-size="14" lengthAdjust="spacing" textLength="68" x="871" y="72.9659">MongoDB</text><rect fill="#0B58A8" height="33.0679" style="stroke:#FFFFFF;stroke-width:1.0;" width="82" x="868" y="701.7762"/><rect fill="#0B58A8" height="33.0679" style="stroke:#FFFFFF;stroke-width:1.0;" width="82" x="864" y="705.7762"/><text fill="#FFFFFF" font-family="Verdana" font-size="14" lengthAdjust="spacing" textLength="68" x="871" y="727.7421">MongoDB</text><text fill="#FFFFFF" font-family="Verdana" font-size="14" lengthAdjust="spacing" textLength="79" x="970" y="80.9659">PostgreSQL</text><path d="M994.5,30 C994.5,20 1012.5,20 1012.5,20 C1012.5,20 1030.5,20 1030.5,30 L1030.5,56 C1030.5,66 1012.5,66 1012.5,66 C1012.5,66 994.5,66 994.5,56 L994.5,30 " fill="#0B58A8" style="stroke:#FFFFFF;stroke-width:1.5;"/><path d="M994.5,30 C994.5,40 1012.5,40 1012.5,40 C1012.5,40 1030.5,40 1030.5,30 " fill="none" style="stroke:#FFFFFF;stroke-width:1.5;"/><text fill="#FFFFFF" font-family="Verdana" font-size="14" lengthAdjust="spacing" textLength="79" x="970" y="716.7421">PostgreSQL</text><path d="M994.5,730.8441 C994.5,720.8441 1012.5,720.8441 1012.5,720.8441 C1012.5,720.8441 1030.5,720.8441 1030.5,730.8441 L1030.5,756.8441 C1030.5,766.8441 1012.5,766.8441 1012.5,766.8441 C1012.5,766.8441 994.5,766.8441 994.5,756.8441 L994.5,730.8441 " fill="#0B58A8" style="stroke:#FFFFFF;stroke-width:1.5;"/><path d="M994.5,730.8441 C994.5,740.8441 1012.5,740.8441 1012.5,740.8441 C1012.5,740.8441 1030.5,740.8441 1030.5,730.8441 " fill="none" style="stroke:#FFFFFF;stroke-width:1.5;"/><rect fill="#0B58A8" height="456.8842" style="stroke:#FFFFFF;stroke-width:1.0;" width="10" x="384.5" y="196.186"/><rect fill="#0B58A8" height="302.0602" style="stroke:#FFFFFF;stroke-width:1.0;" width="10" x="602.5" y="273.598"/><rect fill="#0B58A8" height="31.706" style="stroke:#FFFFFF;stroke-width:1.0;" width="10" x="802.5" y="512.2461"/><rect fill="#0B58A8" height="49.412" style="stroke:#FFFFFF;stroke-width:1.0;" width="10" x="902" y="413.4221"/><rect fill="#0B58A8" height="31.706" style="stroke:#FFFFFF;stroke-width:1.0;" width="10" x="1007.5" y="305.304"/><rect fill="#FFFFFF" height="3" style="stroke:#FFFFFF;stroke-width:1.0;" width="1055" x="5" y="116.9209"/><line style="stroke:#FFFFFF;stroke-width:0.5;" x1="5" x2="1060" y1="116.9209" y2="116.9209"/><line style="stroke:#FFFFFF;stroke-width:0.5;" x1="5" x2="1060" y1="119.9209" y2="119.9209"/><rect fill="#FFFFFF" height="25.706" style="stroke:#FFFFFF;stroke-width:1.0;" width="150.3125" x="457.3438" y="105.0679"/><text fill="#0B58A8" font-family="Verdana" font-size="13" font-weight="bold" lengthAdjust="spacing" textLength="133.3125" x="463.3438" y="122.9649">Interação do usuário</text><polygon fill="#FFFFFF" points="165.5,160.4799,175.5,164.4799,165.5,168.4799,169.5,164.4799" style="stroke:#FFFFFF;stroke-width:1.0;"/><line style="stroke:#FFFFFF;stroke-width:1.0;" x1="37.5" x2="171.5" y1="164.4799" y2="164.4799"/><text fill="#FFFFFF" font-family="Verdana" font-size="13" lengthAdjust="spacing" textLength="116" x="44.5" y="158.6709">Realização de login</text><polygon fill="#FFFFFF" points="372.5,192.186,382.5,196.186,372.5,200.186,376.5,196.186" style="stroke:#FFFFFF;stroke-width:1.0;"/><line style="stroke:#FFFFFF;stroke-width:1.0;" x1="177.5" x2="378.5" y1="196.186" y2="196.186"/><text fill="#FFFFFF" font-family="Verdana" font-size="13" lengthAdjust="spacing" textLength="164" x="184.5" y="190.377">Requisição de autenticação</text><rect fill="#FFFFFF" height="3" style="stroke:#FFFFFF;stroke-width:1.0;" width="1055" x="5" y="226.039"/><line style="stroke:#FFFFFF;stroke-width:0.5;" x1="5" x2="1060" y1="226.039" y2="226.039"/><line style="stroke:#FFFFFF;stroke-width:0.5;" x1="5" x2="1060" y1="229.039" y2="229.039"/><rect fill="#FFFFFF" height="25.706" style="stroke:#FFFFFF;stroke-width:1.0;" width="132.0938" x="466.4531" y="214.186"/><text fill="#0B58A8" font-family="Verdana" font-size="13" font-weight="bold" lengthAdjust="spacing" textLength="115.0938" x="472.4531" y="232.083">Criação da sessão</text><polygon fill="#FFFFFF" points="590.5,269.598,600.5,273.598,590.5,277.598,594.5,273.598" style="stroke:#FFFFFF;stroke-width:1.0;"/><line style="stroke:#FFFFFF;stroke-width:1.0;" x1="394.5" x2="596.5" y1="273.598" y2="273.598"/><text fill="#FFFFFF" font-family="Verdana" font-size="13" lengthAdjust="spacing" textLength="189" x="401.5" y="267.789">Requisição de token de sessão</text><polygon fill="#FFFFFF" points="995.5,301.304,1005.5,305.304,995.5,309.304,999.5,305.304" style="stroke:#FFFFFF;stroke-width:1.0;"/><line style="stroke:#FFFFFF;stroke-width:1.0;" x1="612.5" x2="1001.5" y1="305.304" y2="305.304"/><text fill="#FFFFFF" font-family="Verdana" font-size="13" lengthAdjust="spacing" textLength="194" x="619.5" y="299.495">Requisição de dados de usuário</text><polygon fill="#FFFFFF" points="623.5,333.01,613.5,337.01,623.5,341.01,619.5,337.01" style="stroke:#FFFFFF;stroke-width:1.0;"/><line style="stroke:#FFFFFF;stroke-width:1.0;stroke-dasharray:2.0,2.0;" x1="617.5" x2="1011.5" y1="337.01" y2="337.01"/><text fill="#FFFFFF" font-family="Verdana" font-size="13" lengthAdjust="spacing" textLength="107" x="629.5" y="331.201">Dados do usuário</text><line style="stroke:#FFFFFF;stroke-width:1.0;" x1="612.5" x2="654.5" y1="368.716" y2="368.716"/><line style="stroke:#FFFFFF;stroke-width:1.0;" x1="654.5" x2="654.5" y1="368.716" y2="381.716"/><line style="stroke:#FFFFFF;stroke-width:1.0;" x1="613.5" x2="654.5" y1="381.716" y2="381.716"/><polygon fill="#FFFFFF" points="623.5,377.716,613.5,381.716,623.5,385.716,619.5,381.716" style="stroke:#FFFFFF;stroke-width:1.0;"/><text fill="#FFFFFF" font-family="Verdana" font-size="13" lengthAdjust="spacing" textLength="176" x="619.5" y="362.907">Validação dos dados de login</text><polygon fill="#FFFFFF" points="890,409.4221,900,413.4221,890,417.4221,894,413.4221" style="stroke:#FFFFFF;stroke-width:1.0;"/><line style="stroke:#FFFFFF;stroke-width:1.0;" x1="612.5" x2="896" y1="413.4221" y2="413.4221"/><text fill="#FFFFFF" font-family="Verdana" font-size="13" lengthAdjust="spacing" textLength="195" x="619.5" y="407.6131">Requisição de criação da sessão</text><polygon fill="#FFFFFF" points="623.5,458.8341,613.5,462.8341,623.5,466.8341,619.5,462.8341" style="stroke:#FFFFFF;stroke-width:1.0;"/><line style="stroke:#FFFFFF;stroke-width:1.0;stroke-dasharray:2.0,2.0;" x1="617.5" x2="906" y1="462.8341" y2="462.8341"/><text fill="#FFFFFF" font-family="Verdana" font-size="13" lengthAdjust="spacing" textLength="79" x="629.5" y="439.3191">ID da sessão</text><text fill="#FFFFFF" font-family="Verdana" font-size="13" lengthAdjust="spacing" textLength="142" x="629.5" y="457.0251">(validade: uma semana)</text><polygon fill="#FFFFFF" points="790.5,508.2461,800.5,512.2461,790.5,516.2461,794.5,512.2461" style="stroke:#FFFFFF;stroke-width:1.0;"/><line style="stroke:#FFFFFF;stroke-width:1.0;" x1="612.5" x2="796.5" y1="512.2461" y2="512.2461"/><text fill="#FFFFFF" font-family="Verdana" font-size="13" lengthAdjust="spacing" textLength="149" x="619.5" y="488.7311">Salva a sessão em cache</text><text fill="#FFFFFF" font-family="Verdana" font-size="13" lengthAdjust="spacing" textLength="105" x="619.5" y="506.4371">(validade: um dia)</text><polygon fill="#FFFFFF" points="623.5,539.9521,613.5,543.9521,623.5,547.9521,619.5,543.9521" style="stroke:#FFFFFF;stroke-width:1.0;"/><line style="stroke:#FFFFFF;stroke-width:1.0;stroke-dasharray:2.0,2.0;" x1="617.5" x2="806.5" y1="543.9521" y2="543.9521"/><text fill="#FFFFFF" font-family="Verdana" font-size="13" lengthAdjust="spacing" textLength="52" x="629.5" y="538.1431">Sucesso</text><polygon fill="#FFFFFF" points="405.5,571.6582,395.5,575.6582,405.5,579.6582,401.5,575.6582" style="stroke:#FFFFFF;stroke-width:1.0;"/><line style="stroke:#FFFFFF;stroke-width:1.0;stroke-dasharray:2.0,2.0;" x1="399.5" x2="606.5" y1="575.6582" y2="575.6582"/><text fill="#FFFFFF" font-family="Verdana" font-size="13" lengthAdjust="spacing" textLength="105" x="411.5" y="569.8492">Token da sessão</text><rect fill="#FFFFFF" height="3" style="stroke:#FFFFFF;stroke-width:1.0;" width="1055" x="5" y="605.5112"/><line style="stroke:#FFFFFF;stroke-width:0.5;" x1="5" x2="1060" y1="605.5112" y2="605.5112"/><line style="stroke:#FFFFFF;stroke-width:0.5;" x1="5" x2="1060" y1="608.5112" y2="608.5112"/><rect fill="#FFFFFF" height="25.706" style="stroke:#FFFFFF;stroke-width:1.0;" width="112.875" x="476.0625" y="593.6582"/><text fill="#0B58A8" font-family="Verdana" font-size="13" font-weight="bold" lengthAdjust="spacing" textLength="95.875" x="482.0625" y="611.5552">Retorno da API</text><polygon fill="#FFFFFF" points="188.5,649.0702,178.5,653.0702,188.5,657.0702,184.5,653.0702" style="stroke:#FFFFFF;stroke-width:1.0;"/><line style="stroke:#FFFFFF;stroke-width:1.0;stroke-dasharray:2.0,2.0;" x1="182.5" x2="388.5" y1="653.0702" y2="653.0702"/><text fill="#FFFFFF" font-family="Verdana" font-size="13" lengthAdjust="spacing" textLength="183" x="194.5" y="647.2612">Resposta com token + cookies</text><polygon fill="#FFFFFF" points="48.5,680.7762,38.5,684.7762,48.5,688.7762,44.5,684.7762" style="stroke:#FFFFFF;stroke-width:1.0;"/><line style="stroke:#FFFFFF;stroke-width:1.0;stroke-dasharray:2.0,2.0;" x1="42.5" x2="176.5" y1="684.7762" y2="684.7762"/><text fill="#FFFFFF" font-family="Verdana" font-size="13" lengthAdjust="spacing" textLength="111" x="54.5" y="678.9672">Redirecionamento</text></g></svg>