<?xml version="1.0" encoding="UTF-8" standalone="no"?><svg xmlns="http://www.w3.org/2000/svg" xmlns:xlink="http://www.w3.org/1999/xlink" contentStyleType="text/css" height="1384px" preserveAspectRatio="none" style="width:1714px;height:1384px;background:#0B58A8;" version="1.1" viewBox="0 0 1714 1384" width="1714px" zoomAndPan="magnify"><defs/><g><rect fill="#0B58A8" height="1054.8865" style="stroke:#FFFFFF;stroke-width:1.0;" width="10" x="523.5" y="196.186"/><rect fill="#0B58A8" height="567.0023" style="stroke:#FFFFFF;stroke-width:1.0;" width="10" x="760.5" y="606.6582"/><rect fill="#0B58A8" height="255.6481" style="stroke:#FFFFFF;stroke-width:1.0;" width="10" x="1082.5" y="273.598"/><rect fill="#0B58A8" height="221.9421" style="stroke:#FFFFFF;stroke-width:1.0;" width="10" x="1082.5" y="810.8943"/><rect fill="#0B58A8" height="31.706" style="stroke:#FFFFFF;stroke-width:1.0;" width="10" x="1449.5" y="305.304"/><rect fill="#0B58A8" height="31.706" style="stroke:#FFFFFF;stroke-width:1.0;" width="10" x="1449.5" y="458.8341"/><rect fill="#0B58A8" height="31.706" style="stroke:#FFFFFF;stroke-width:1.0;" width="10" x="1449.5" y="969.4243"/><rect fill="#0B58A8" height="31.706" style="stroke:#FFFFFF;stroke-width:1.0;" width="10" x="1549" y="395.4221"/><rect fill="#0B58A8" height="95.118" style="stroke:#FFFFFF;stroke-width:1.0;" width="10" x="1549" y="842.6003"/><rect fill="#0B58A8" height="503.5902" style="stroke:#FFFFFF;stroke-width:1.0;" width="10" x="1654.5" y="638.3642"/><rect fill="#0B58A8" height="146.5301" style="stroke:#FFFFFF;stroke-width:1.0;" width="572" x="1045" y="352.01"/><line style="stroke:#FFFFFF;stroke-width:1.0;stroke-dasharray:5.0,5.0;" x1="37" x2="37" y1="85.0679" y2="1300.7785"/><line style="stroke:#FFFFFF;stroke-width:1.0;stroke-dasharray:5.0,5.0;" x1="324.5" x2="324.5" y1="85.0679" y2="1300.7785"/><line style="stroke:#FFFFFF;stroke-width:1.0;stroke-dasharray:5.0,5.0;" x1="528" x2="528" y1="85.0679" y2="1300.7785"/><line style="stroke:#FFFFFF;stroke-width:1.0;stroke-dasharray:5.0,5.0;" x1="765.5" x2="765.5" y1="85.0679" y2="1300.7785"/><line style="stroke:#FFFFFF;stroke-width:1.0;stroke-dasharray:5.0,5.0;" x1="1087" x2="1087" y1="85.0679" y2="1300.7785"/><line style="stroke:#FFFFFF;stroke-width:1.0;stroke-dasharray:5.0,5.0;" x1="1454" x2="1454" y1="85.0679" y2="1300.7785"/><line style="stroke:#FFFFFF;stroke-width:1.0;stroke-dasharray:5.0,5.0;" x1="1554" x2="1554" y1="85.0679" y2="1300.7785"/><line style="stroke:#FFFFFF;stroke-width:1.0;stroke-dasharray:5.0,5.0;" x1="1659" x2="1659" y1="85.0679" y2="1300.7785"/><text fill="#FFFFFF" font-family="Verdana" font-size="14" lengthAdjust="spacing" textLength="49" x="10" y="80.9659">Usuário</text><ellipse cx="37.5" cy="14" fill="#0B58A8" rx="8" ry="8" style="stroke:#FFFFFF;stroke-width:1.0;"/><path d="M37.5,22 L37.5,49 M24.5,30 L50.5,30 M37.5,49 L24.5,64 M37.5,49 L50.5,64 " fill="none" style="stroke:#FFFFFF;stroke-width:1.0;"/><text fill="#FFFFFF" font-family="Verdana" font-size="14" lengthAdjust="spacing" textLength="49" x="10" y="1314.7444">Usuário</text><ellipse cx="37.5" cy="1327.8464" fill="#0B58A8" rx="8" ry="8" style="stroke:#FFFFFF;stroke-width:1.0;"/><path d="M37.5,1335.8464 L37.5,1362.8464 M24.5,1343.8464 L50.5,1343.8464 M37.5,1362.8464 L24.5,1377.8464 M37.5,1362.8464 L50.5,1377.8464 " fill="none" style="stroke:#FFFFFF;stroke-width:1.0;"/><text fill="#FFFFFF" font-family="Verdana" font-size="14" lengthAdjust="spacing" textLength="60" x="291.5" y="80.9659">FrontEnd</text><path d="M304,38 L304,62 M304,50 L321,50 " fill="none" style="stroke:#FFFFFF;stroke-width:1.0;"/><ellipse cx="333" cy="50" fill="#0B58A8" rx="12" ry="12" style="stroke:#FFFFFF;stroke-width:1.0;"/><text fill="#FFFFFF" font-family="Verdana" font-size="14" lengthAdjust="spacing" textLength="60" x="291.5" y="1314.7444">FrontEnd</text><path d="M304,1322.8464 L304,1346.8464 M304,1334.8464 L321,1334.8464 " fill="none" style="stroke:#FFFFFF;stroke-width:1.0;"/><ellipse cx="333" cy="1334.8464" fill="#0B58A8" rx="12" ry="12" style="stroke:#FFFFFF;stroke-width:1.0;"/><text fill="#FFFFFF" font-family="Verdana" font-size="14" lengthAdjust="spacing" textLength="23" x="514" y="80.9659">API</text><path d="M508,38 L508,62 M508,50 L525,50 " fill="none" style="stroke:#FFFFFF;stroke-width:1.0;"/><ellipse cx="537" cy="50" fill="#0B58A8" rx="12" ry="12" style="stroke:#FFFFFF;stroke-width:1.0;"/><text fill="#FFFFFF" font-family="Verdana" font-size="14" lengthAdjust="spacing" textLength="23" x="514" y="1314.7444">API</text><path d="M508,1322.8464 L508,1346.8464 M508,1334.8464 L525,1334.8464 " fill="none" style="stroke:#FFFFFF;stroke-width:1.0;"/><ellipse cx="537" cy="1334.8464" fill="#0B58A8" rx="12" ry="12" style="stroke:#FFFFFF;stroke-width:1.0;"/><text fill="#FFFFFF" font-family="Verdana" font-size="14" lengthAdjust="spacing" textLength="34" x="745.5" y="80.9659">USER</text><ellipse cx="765.5" cy="50" fill="#0B58A8" rx="12" ry="12" style="stroke:#FFFFFF;stroke-width:1.0;"/><polygon fill="#FFFFFF" points="761.5,38,767.5,33,765.5,38,767.5,43,761.5,38" style="stroke:#FFFFFF;stroke-width:1.0;"/><text fill="#FFFFFF" font-family="Verdana" font-size="14" lengthAdjust="spacing" textLength="34" x="745.5" y="1314.7444">USER</text><ellipse cx="765.5" cy="1334.8464" fill="#0B58A8" rx="12" ry="12" style="stroke:#FFFFFF;stroke-width:1.0;"/><polygon fill="#FFFFFF" points="761.5,1322.8464,767.5,1317.8464,765.5,1322.8464,767.5,1327.8464,761.5,1322.8464" style="stroke:#FFFFFF;stroke-width:1.0;"/><text fill="#FFFFFF" font-family="Verdana" font-size="14" lengthAdjust="spacing" textLength="59" x="1055" y="80.9659">SESSION</text><ellipse cx="1087.5" cy="50" fill="#0B58A8" rx="12" ry="12" style="stroke:#FFFFFF;stroke-width:1.0;"/><polygon fill="#FFFFFF" points="1083.5,38,1089.5,33,1087.5,38,1089.5,43,1083.5,38" style="stroke:#FFFFFF;stroke-width:1.0;"/><text fill="#FFFFFF" font-family="Verdana" font-size="14" lengthAdjust="spacing" textLength="59" x="1055" y="1314.7444">SESSION</text><ellipse cx="1087.5" cy="1334.8464" fill="#0B58A8" rx="12" ry="12" style="stroke:#FFFFFF;stroke-width:1.0;"/><polygon fill="#FFFFFF" points="1083.5,1322.8464,1089.5,1317.8464,1087.5,1322.8464,1089.5,1327.8464,1083.5,1322.8464" style="stroke:#FFFFFF;stroke-width:1.0;"/><rect fill="#0B58A8" height="33.0679" style="stroke:#FFFFFF;stroke-width:1.0;" width="49" x="1432" y="47"/><rect fill="#0B58A8" height="33.0679" style="stroke:#FFFFFF;stroke-width:1.0;" width="49" x="1428" y="51"/><text fill="#FFFFFF" font-family="Verdana" font-size="14" lengthAdjust="spacing" textLength="35" x="1435" y="72.9659">Redis</text><rect fill="#0B58A8" height="33.0679" style="stroke:#FFFFFF;stroke-width:1.0;" width="49" x="1432" y="1299.7785"/><rect fill="#0B58A8" height="33.0679" style="stroke:#FFFFFF;stroke-width:1.0;" width="49" x="1428" y="1303.7785"/><text fill="#FFFFFF" font-family="Verdana" font-size="14" lengthAdjust="spacing" textLength="35" x="1435" y="1325.7444">Redis</text><rect fill="#0B58A8" height="33.0679" style="stroke:#FFFFFF;stroke-width:1.0;" width="82" x="1515" y="47"/><rect fill="#0B58A8" height="33.0679" style="stroke:#FFFFFF;stroke-width:1.0;" width="82" x="1511" y="51"/><text fill="#FFFFFF" font-family="Verdana" font-size="14" lengthAdjust="spacing" textLength="68" x="1518" y="72.9659">MongoDB</text><rect fill="#0B58A8" height="33.0679" style="stroke:#FFFFFF;stroke-width:1.0;" width="82" x="1515" y="1299.7785"/><rect fill="#0B58A8" height="33.0679" style="stroke:#FFFFFF;stroke-width:1.0;" width="82" x="1511" y="1303.7785"/><text fill="#FFFFFF" font-family="Verdana" font-size="14" lengthAdjust="spacing" textLength="68" x="1518" y="1325.7444">MongoDB</text><text fill="#FFFFFF" font-family="Verdana" font-size="14" lengthAdjust="spacing" textLength="79" x="1617" y="80.9659">PostgreSQL</text><path d="M1641.5,30 C1641.5,20 1659.5,20 1659.5,20 C1659.5,20 1677.5,20 1677.5,30 L1677.5,56 C1677.5,66 1659.5,66 1659.5,66 C1659.5,66 1641.5,66 1641.5,56 L1641.5,30 " fill="#0B58A8" style="stroke:#FFFFFF;stroke-width:1.5;"/><path d="M1641.5,30 C1641.5,40 1659.5,40 1659.5,40 C1659.5,40 1677.5,40 1677.5,30 " fill="none" style="stroke:#FFFFFF;stroke-width:1.5;"/><text fill="#FFFFFF" font-family="Verdana" font-size="14" lengthAdjust="spacing" textLength="79" x="1617" y="1314.7444">PostgreSQL</text><path d="M1641.5,1328.8464 C1641.5,1318.8464 1659.5,1318.8464 1659.5,1318.8464 C1659.5,1318.8464 1677.5,1318.8464 1677.5,1328.8464 L1677.5,1354.8464 C1677.5,1364.8464 1659.5,1364.8464 1659.5,1364.8464 C1659.5,1364.8464 1641.5,1364.8464 1641.5,1354.8464 L1641.5,1328.8464 " fill="#0B58A8" style="stroke:#FFFFFF;stroke-width:1.5;"/><path d="M1641.5,1328.8464 C1641.5,1338.8464 1659.5,1338.8464 1659.5,1338.8464 C1659.5,1338.8464 1677.5,1338.8464 1677.5,1328.8464 " fill="none" style="stroke:#FFFFFF;stroke-width:1.5;"/><rect fill="#0B58A8" height="1054.8865" style="stroke:#FFFFFF;stroke-width:1.0;" width="10" x="523.5" y="196.186"/><rect fill="#0B58A8" height="567.0023" style="stroke:#FFFFFF;stroke-width:1.0;" width="10" x="760.5" y="606.6582"/><rect fill="#0B58A8" height="255.6481" style="stroke:#FFFFFF;stroke-width:1.0;" width="10" x="1082.5" y="273.598"/><rect fill="#0B58A8" height="221.9421" style="stroke:#FFFFFF;stroke-width:1.0;" width="10" x="1082.5" y="810.8943"/><rect fill="#0B58A8" height="31.706" style="stroke:#FFFFFF;stroke-width:1.0;" width="10" x="1449.5" y="305.304"/><rect fill="#0B58A8" height="31.706" style="stroke:#FFFFFF;stroke-width:1.0;" width="10" x="1449.5" y="458.8341"/><rect fill="#0B58A8" height="31.706" style="stroke:#FFFFFF;stroke-width:1.0;" width="10" x="1449.5" y="969.4243"/><rect fill="#0B58A8" height="31.706" style="stroke:#FFFFFF;stroke-width:1.0;" width="10" x="1549" y="395.4221"/><rect fill="#0B58A8" height="95.118" style="stroke:#FFFFFF;stroke-width:1.0;" width="10" x="1549" y="842.6003"/><rect fill="#0B58A8" height="503.5902" style="stroke:#FFFFFF;stroke-width:1.0;" width="10" x="1654.5" y="638.3642"/><rect fill="#FFFFFF" height="3" style="stroke:#FFFFFF;stroke-width:1.0;" width="1702" x="5" y="116.9209"/><line style="stroke:#FFFFFF;stroke-width:0.5;" x1="5" x2="1707" y1="116.9209" y2="116.9209"/><line style="stroke:#FFFFFF;stroke-width:0.5;" x1="5" x2="1707" y1="119.9209" y2="119.9209"/><rect fill="#FFFFFF" height="25.706" style="stroke:#FFFFFF;stroke-width:1.0;" width="150.3125" x="780.8438" y="105.0679"/><text fill="#0B58A8" font-family="Verdana" font-size="13" font-weight="bold" lengthAdjust="spacing" textLength="133.3125" x="786.8438" y="122.9649">Interação do usuário</text><polygon fill="#FFFFFF" points="312.5,160.4799,322.5,164.4799,312.5,168.4799,316.5,164.4799" style="stroke:#FFFFFF;stroke-width:1.0;"/><line style="stroke:#FFFFFF;stroke-width:1.0;" x1="37.5" x2="318.5" y1="164.4799" y2="164.4799"/><text fill="#FFFFFF" font-family="Verdana" font-size="13" lengthAdjust="spacing" textLength="166" x="44.5" y="158.6709">Solicita remoção de usuário</text><polygon fill="#FFFFFF" points="511.5,192.186,521.5,196.186,511.5,200.186,515.5,196.186" style="stroke:#FFFFFF;stroke-width:1.0;"/><line style="stroke:#FFFFFF;stroke-width:1.0;" x1="324.5" x2="517.5" y1="196.186" y2="196.186"/><text fill="#FFFFFF" font-family="Verdana" font-size="13" lengthAdjust="spacing" textLength="180" x="331.5" y="190.377">Requisita remoção de usuário</text><rect fill="#FFFFFF" height="3" style="stroke:#FFFFFF;stroke-width:1.0;" width="1702" x="5" y="226.039"/><line style="stroke:#FFFFFF;stroke-width:0.5;" x1="5" x2="1707" y1="226.039" y2="226.039"/><line style="stroke:#FFFFFF;stroke-width:0.5;" x1="5" x2="1707" y1="229.039" y2="229.039"/><rect fill="#FFFFFF" height="25.706" style="stroke:#FFFFFF;stroke-width:1.0;" width="98.875" x="806.5625" y="214.186"/><text fill="#0B58A8" font-family="Verdana" font-size="13" font-weight="bold" lengthAdjust="spacing" textLength="81.875" x="812.5625" y="232.083">Autenticação</text><polygon fill="#FFFFFF" points="1070.5,269.598,1080.5,273.598,1070.5,277.598,1074.5,273.598" style="stroke:#FFFFFF;stroke-width:1.0;"/><line style="stroke:#FFFFFF;stroke-width:1.0;" x1="533.5" x2="1076.5" y1="273.598" y2="273.598"/><text fill="#FFFFFF" font-family="Verdana" font-size="13" lengthAdjust="spacing" textLength="164" x="540.5" y="267.789">Verifica validade da sessão</text><polygon fill="#FFFFFF" points="1437.5,301.304,1447.5,305.304,1437.5,309.304,1441.5,305.304" style="stroke:#FFFFFF;stroke-width:1.0;"/><line style="stroke:#FFFFFF;stroke-width:1.0;" x1="1092.5" x2="1443.5" y1="305.304" y2="305.304"/><text fill="#FFFFFF" font-family="Verdana" font-size="13" lengthAdjust="spacing" textLength="258" x="1099.5" y="299.495">Requisição dos dados da sessão em cache</text><polygon fill="#FFFFFF" points="1103.5,333.01,1093.5,337.01,1103.5,341.01,1099.5,337.01" style="stroke:#FFFFFF;stroke-width:1.0;"/><line style="stroke:#FFFFFF;stroke-width:1.0;stroke-dasharray:2.0,2.0;" x1="1097.5" x2="1453.5" y1="337.01" y2="337.01"/><text fill="#FFFFFF" font-family="Verdana" font-size="13" lengthAdjust="spacing" textLength="202" x="1109.5" y="331.201">Resultado da requisição do cache</text><path d="M1045,352.01 L1105.2188,352.01 L1105.2188,361.716 L1095.2188,371.716 L1045,371.716 L1045,352.01 " fill="#FFFFFF" style="stroke:#FFFFFF;stroke-width:1.0;"/><rect fill="none" height="146.5301" style="stroke:#FFFFFF;stroke-width:1.0;" width="572" x="1045" y="352.01"/><text fill="#0B58A8" font-family="Verdana" font-size="13" font-weight="bold" lengthAdjust="spacing" textLength="15.2188" x="1060" y="366.907">alt</text><text fill="#FFFFFF" font-family="Verdana" font-size="11" font-weight="bold" lengthAdjust="spacing" textLength="205.625" x="1120.2188" y="365.7689">[Se a sessão não estiver em cache]</text><polygon fill="#FFFFFF" points="1537,391.4221,1547,395.4221,1537,399.4221,1541,395.4221" style="stroke:#FFFFFF;stroke-width:1.0;"/><line style="stroke:#FFFFFF;stroke-width:1.0;" x1="1092.5" x2="1543" y1="395.4221" y2="395.4221"/><text fill="#FFFFFF" font-family="Verdana" font-size="13" lengthAdjust="spacing" textLength="199" x="1099.5" y="389.6131">Requisição dos dados de sessão</text><polygon fill="#FFFFFF" points="1103.5,423.1281,1093.5,427.1281,1103.5,431.1281,1099.5,427.1281" style="stroke:#FFFFFF;stroke-width:1.0;"/><line style="stroke:#FFFFFF;stroke-width:1.0;stroke-dasharray:2.0,2.0;" x1="1097.5" x2="1553" y1="427.1281" y2="427.1281"/><text fill="#FFFFFF" font-family="Verdana" font-size="13" lengthAdjust="spacing" textLength="104" x="1109.5" y="421.3191">Dados da sessão</text><polygon fill="#FFFFFF" points="1437.5,454.8341,1447.5,458.8341,1437.5,462.8341,1441.5,458.8341" style="stroke:#FFFFFF;stroke-width:1.0;"/><line style="stroke:#FFFFFF;stroke-width:1.0;" x1="1092.5" x2="1443.5" y1="458.8341" y2="458.8341"/><text fill="#FFFFFF" font-family="Verdana" font-size="13" lengthAdjust="spacing" textLength="149" x="1099.5" y="453.0251">Salva a sessão em cache</text><polygon fill="#FFFFFF" points="1103.5,486.5401,1093.5,490.5401,1103.5,494.5401,1099.5,490.5401" style="stroke:#FFFFFF;stroke-width:1.0;"/><line style="stroke:#FFFFFF;stroke-width:1.0;stroke-dasharray:2.0,2.0;" x1="1097.5" x2="1453.5" y1="490.5401" y2="490.5401"/><text fill="#FFFFFF" font-family="Verdana" font-size="13" lengthAdjust="spacing" textLength="52" x="1109.5" y="484.7311">Sucesso</text><polygon fill="#FFFFFF" points="544.5,525.2461,534.5,529.2461,544.5,533.2461,540.5,529.2461" style="stroke:#FFFFFF;stroke-width:1.0;"/><line style="stroke:#FFFFFF;stroke-width:1.0;stroke-dasharray:2.0,2.0;" x1="538.5" x2="1086.5" y1="529.2461" y2="529.2461"/><text fill="#FFFFFF" font-family="Verdana" font-size="13" lengthAdjust="spacing" textLength="129" x="550.5" y="523.4371">Aprovação da sessão</text><rect fill="#FFFFFF" height="3" style="stroke:#FFFFFF;stroke-width:1.0;" width="1702" x="5" y="559.0991"/><line style="stroke:#FFFFFF;stroke-width:0.5;" x1="5" x2="1707" y1="559.0991" y2="559.0991"/><line style="stroke:#FFFFFF;stroke-width:0.5;" x1="5" x2="1707" y1="562.0991" y2="562.0991"/><rect fill="#FFFFFF" height="25.706" style="stroke:#FFFFFF;stroke-width:1.0;" width="247" x="732.5" y="547.2461"/><text fill="#0B58A8" font-family="Verdana" font-size="13" font-weight="bold" lengthAdjust="spacing" textLength="230" x="738.5" y="565.1431">Verificação de existência do usuário</text><polygon fill="#FFFFFF" points="748.5,602.6582,758.5,606.6582,748.5,610.6582,752.5,606.6582" style="stroke:#FFFFFF;stroke-width:1.0;"/><line style="stroke:#FFFFFF;stroke-width:1.0;" x1="533.5" x2="754.5" y1="606.6582" y2="606.6582"/><text fill="#FFFFFF" font-family="Verdana" font-size="13" lengthAdjust="spacing" textLength="208" x="540.5" y="600.8492">Requisição da remoção de usuário</text><polygon fill="#FFFFFF" points="1642.5,634.3642,1652.5,638.3642,1642.5,642.3642,1646.5,638.3642" style="stroke:#FFFFFF;stroke-width:1.0;"/><line style="stroke:#FFFFFF;stroke-width:1.0;" x1="770.5" x2="1648.5" y1="638.3642" y2="638.3642"/><text fill="#FFFFFF" font-family="Verdana" font-size="13" lengthAdjust="spacing" textLength="152" x="777.5" y="632.5552">Verifica se usuário existe</text><polygon fill="#FFFFFF" points="781.5,666.0702,771.5,670.0702,781.5,674.0702,777.5,670.0702" style="stroke:#FFFFFF;stroke-width:1.0;"/><line style="stroke:#FFFFFF;stroke-width:1.0;stroke-dasharray:2.0,2.0;" x1="775.5" x2="1653.5" y1="670.0702" y2="670.0702"/><text fill="#FFFFFF" font-family="Verdana" font-size="13" lengthAdjust="spacing" textLength="186" x="787.5" y="664.2612">Retorno com dados do usuário</text><rect fill="#FFFFFF" height="3" style="stroke:#FFFFFF;stroke-width:1.0;" width="1702" x="5" y="699.9232"/><line style="stroke:#FFFFFF;stroke-width:0.5;" x1="5" x2="1707" y1="699.9232" y2="699.9232"/><line style="stroke:#FFFFFF;stroke-width:0.5;" x1="5" x2="1707" y1="702.9232" y2="702.9232"/><rect fill="#FFFFFF" height="25.706" style="stroke:#FFFFFF;stroke-width:1.0;" width="207.9375" x="752.0313" y="688.0702"/><text fill="#0B58A8" font-family="Verdana" font-size="13" font-weight="bold" lengthAdjust="spacing" textLength="190.9375" x="758.0313" y="705.9672">Remoção de dados de sessão</text><polygon fill="#FFFFFF" points="1642.5,743.4822,1652.5,747.4822,1642.5,751.4822,1646.5,747.4822" style="stroke:#FFFFFF;stroke-width:1.0;"/><line style="stroke:#FFFFFF;stroke-width:1.0;" x1="770.5" x2="1648.5" y1="747.4822" y2="747.4822"/><text fill="#FFFFFF" font-family="Verdana" font-size="13" lengthAdjust="spacing" textLength="209" x="777.5" y="741.6732">Trava usuário para novas sessões</text><polygon fill="#FFFFFF" points="781.5,775.1882,771.5,779.1882,781.5,783.1882,777.5,779.1882" style="stroke:#FFFFFF;stroke-width:1.0;"/><line style="stroke:#FFFFFF;stroke-width:1.0;stroke-dasharray:2.0,2.0;" x1="775.5" x2="1653.5" y1="779.1882" y2="779.1882"/><text fill="#FFFFFF" font-family="Verdana" font-size="13" lengthAdjust="spacing" textLength="52" x="787.5" y="773.3792">Sucesso</text><polygon fill="#FFFFFF" points="1070.5,806.8943,1080.5,810.8943,1070.5,814.8943,1074.5,810.8943" style="stroke:#FFFFFF;stroke-width:1.0;"/><line style="stroke:#FFFFFF;stroke-width:1.0;" x1="770.5" x2="1076.5" y1="810.8943" y2="810.8943"/><text fill="#FFFFFF" font-family="Verdana" font-size="13" lengthAdjust="spacing" textLength="293" x="777.5" y="805.0853">Requisita encerramento das sessões do usuário</text><polygon fill="#FFFFFF" points="1537,838.6003,1547,842.6003,1537,846.6003,1541,842.6003" style="stroke:#FFFFFF;stroke-width:1.0;"/><line style="stroke:#FFFFFF;stroke-width:1.0;" x1="1092.5" x2="1543" y1="842.6003" y2="842.6003"/><text fill="#FFFFFF" font-family="Verdana" font-size="13" lengthAdjust="spacing" textLength="298" x="1099.5" y="836.7913">Requisita todas as chaves de sessões do usuário</text><polygon fill="#FFFFFF" points="1103.5,870.3063,1093.5,874.3063,1103.5,878.3063,1099.5,874.3063" style="stroke:#FFFFFF;stroke-width:1.0;"/><line style="stroke:#FFFFFF;stroke-width:1.0;stroke-dasharray:2.0,2.0;" x1="1097.5" x2="1548" y1="874.3063" y2="874.3063"/><text fill="#FFFFFF" font-family="Verdana" font-size="13" lengthAdjust="spacing" textLength="187" x="1109.5" y="868.4973">Chaves de sessões do usuário</text><polygon fill="#FFFFFF" points="1537,902.0123,1547,906.0123,1537,910.0123,1541,906.0123" style="stroke:#FFFFFF;stroke-width:1.0;"/><line style="stroke:#FFFFFF;stroke-width:1.0;" x1="1092.5" x2="1543" y1="906.0123" y2="906.0123"/><text fill="#FFFFFF" font-family="Verdana" font-size="13" lengthAdjust="spacing" textLength="227" x="1099.5" y="900.2033">Remove todas as sessões do usuário</text><polygon fill="#FFFFFF" points="1103.5,933.7183,1093.5,937.7183,1103.5,941.7183,1099.5,937.7183" style="stroke:#FFFFFF;stroke-width:1.0;"/><line style="stroke:#FFFFFF;stroke-width:1.0;stroke-dasharray:2.0,2.0;" x1="1097.5" x2="1553" y1="937.7183" y2="937.7183"/><text fill="#FFFFFF" font-family="Verdana" font-size="13" lengthAdjust="spacing" textLength="52" x="1109.5" y="931.9093">Sucesso</text><polygon fill="#FFFFFF" points="1437.5,965.4243,1447.5,969.4243,1437.5,973.4243,1441.5,969.4243" style="stroke:#FFFFFF;stroke-width:1.0;"/><line style="stroke:#FFFFFF;stroke-width:1.0;" x1="1092.5" x2="1443.5" y1="969.4243" y2="969.4243"/><text fill="#FFFFFF" font-family="Verdana" font-size="13" lengthAdjust="spacing" textLength="338" x="1099.5" y="963.6153">Remove todas as sessões em cache através das chaves</text><polygon fill="#FFFFFF" points="1103.5,997.1304,1093.5,1001.1304,1103.5,1005.1304,1099.5,1001.1304" style="stroke:#FFFFFF;stroke-width:1.0;"/><line style="stroke:#FFFFFF;stroke-width:1.0;stroke-dasharray:2.0,2.0;" x1="1097.5" x2="1453.5" y1="1001.1304" y2="1001.1304"/><text fill="#FFFFFF" font-family="Verdana" font-size="13" lengthAdjust="spacing" textLength="52" x="1109.5" y="995.3214">Sucesso</text><polygon fill="#FFFFFF" points="781.5,1028.8364,771.5,1032.8364,781.5,1036.8364,777.5,1032.8364" style="stroke:#FFFFFF;stroke-width:1.0;"/><line style="stroke:#FFFFFF;stroke-width:1.0;stroke-dasharray:2.0,2.0;" x1="775.5" x2="1086.5" y1="1032.8364" y2="1032.8364"/><text fill="#FFFFFF" font-family="Verdana" font-size="13" lengthAdjust="spacing" textLength="52" x="787.5" y="1027.0274">Sucesso</text><rect fill="#FFFFFF" height="3" style="stroke:#FFFFFF;stroke-width:1.0;" width="1702" x="5" y="1062.6894"/><line style="stroke:#FFFFFF;stroke-width:0.5;" x1="5" x2="1707" y1="1062.6894" y2="1062.6894"/><line style="stroke:#FFFFFF;stroke-width:0.5;" x1="5" x2="1707" y1="1065.6894" y2="1065.6894"/><rect fill="#FFFFFF" height="25.706" style="stroke:#FFFFFF;stroke-width:1.0;" width="147.5" x="782.25" y="1050.8364"/><text fill="#0B58A8" font-family="Verdana" font-size="13" font-weight="bold" lengthAdjust="spacing" textLength="130.5" x="788.25" y="1068.7334">Remoção do usuário</text><polygon fill="#FFFFFF" points="1642.5,1106.2484,1652.5,1110.2484,1642.5,1114.2484,1646.5,1110.2484" style="stroke:#FFFFFF;stroke-width:1.0;"/><line style="stroke:#FFFFFF;stroke-width:1.0;" x1="770.5" x2="1648.5" y1="1110.2484" y2="1110.2484"/><text fill="#FFFFFF" font-family="Verdana" font-size="13" lengthAdjust="spacing" textLength="180" x="777.5" y="1104.4394">Requisita remoção do usuário</text><polygon fill="#FFFFFF" points="781.5,1137.9544,771.5,1141.9544,781.5,1145.9544,777.5,1141.9544" style="stroke:#FFFFFF;stroke-width:1.0;"/><line style="stroke:#FFFFFF;stroke-width:1.0;stroke-dasharray:2.0,2.0;" x1="775.5" x2="1658.5" y1="1141.9544" y2="1141.9544"/><text fill="#FFFFFF" font-family="Verdana" font-size="13" lengthAdjust="spacing" textLength="52" x="787.5" y="1136.1454">Sucesso</text><polygon fill="#FFFFFF" points="544.5,1169.6604,534.5,1173.6604,544.5,1177.6604,540.5,1173.6604" style="stroke:#FFFFFF;stroke-width:1.0;"/><line style="stroke:#FFFFFF;stroke-width:1.0;stroke-dasharray:2.0,2.0;" x1="538.5" x2="764.5" y1="1173.6604" y2="1173.6604"/><text fill="#FFFFFF" font-family="Verdana" font-size="13" lengthAdjust="spacing" textLength="52" x="550.5" y="1167.8514">Sucesso</text><rect fill="#FFFFFF" height="3" style="stroke:#FFFFFF;stroke-width:1.0;" width="1702" x="5" y="1203.5135"/><line style="stroke:#FFFFFF;stroke-width:0.5;" x1="5" x2="1707" y1="1203.5135" y2="1203.5135"/><line style="stroke:#FFFFFF;stroke-width:0.5;" x1="5" x2="1707" y1="1206.5135" y2="1206.5135"/><rect fill="#FFFFFF" height="25.706" style="stroke:#FFFFFF;stroke-width:1.0;" width="112.875" x="799.5625" y="1191.6604"/><text fill="#0B58A8" font-family="Verdana" font-size="13" font-weight="bold" lengthAdjust="spacing" textLength="95.875" x="805.5625" y="1209.5575">Retorno da API</text><polygon fill="#FFFFFF" points="335.5,1247.0725,325.5,1251.0725,335.5,1255.0725,331.5,1251.0725" style="stroke:#FFFFFF;stroke-width:1.0;"/><line style="stroke:#FFFFFF;stroke-width:1.0;stroke-dasharray:2.0,2.0;" x1="329.5" x2="527.5" y1="1251.0725" y2="1251.0725"/><text fill="#FFFFFF" font-family="Verdana" font-size="13" lengthAdjust="spacing" textLength="166" x="341.5" y="1245.2635">Retorno vazio com sucesso</text><polygon fill="#FFFFFF" points="48.5,1278.7785,38.5,1282.7785,48.5,1286.7785,44.5,1282.7785" style="stroke:#FFFFFF;stroke-width:1.0;"/><line style="stroke:#FFFFFF;stroke-width:1.0;stroke-dasharray:2.0,2.0;" x1="42.5" x2="323.5" y1="1282.7785" y2="1282.7785"/><text fill="#FFFFFF" font-family="Verdana" font-size="13" lengthAdjust="spacing" textLength="263" x="54.5" y="1276.9695">Mensagem de sucesso e redirecionamento</text></g></svg>