<?xml version="1.0" encoding="UTF-8" standalone="no"?><svg xmlns="http://www.w3.org/2000/svg" xmlns:xlink="http://www.w3.org/1999/xlink" contentStyleType="text/css" height="1022px" preserveAspectRatio="none" style="width:1280px;height:1022px;background:#0B58A8;" version="1.1" viewBox="0 0 1280 1022" width="1280px" zoomAndPan="magnify"><defs/><g><rect fill="#0B58A8" height="692.1203" style="stroke:#FFFFFF;stroke-width:1.0;" width="10" x="422.5" y="196.186"/><rect fill="#0B58A8" height="204.2361" style="stroke:#FFFFFF;stroke-width:1.0;" width="10" x="662.5" y="606.6582"/><rect fill="#0B58A8" height="255.6481" style="stroke:#FFFFFF;stroke-width:1.0;" width="10" x="729" y="273.598"/><rect fill="#0B58A8" height="31.706" style="stroke:#FFFFFF;stroke-width:1.0;" width="10" x="1016" y="305.304"/><rect fill="#0B58A8" height="31.706" style="stroke:#FFFFFF;stroke-width:1.0;" width="10" x="1016" y="458.8341"/><rect fill="#0B58A8" height="31.706" style="stroke:#FFFFFF;stroke-width:1.0;" width="10" x="1115.5" y="395.4221"/><rect fill="#0B58A8" height="140.8241" style="stroke:#FFFFFF;stroke-width:1.0;" width="10" x="1221" y="638.3642"/><rect fill="#0B58A8" height="146.5301" style="stroke:#FFFFFF;stroke-width:1.0;" width="492" x="691.5" y="352.01"/><line style="stroke:#FFFFFF;stroke-width:1.0;stroke-dasharray:5.0,5.0;" x1="37" x2="37" y1="85.0679" y2="938.0123"/><line style="stroke:#FFFFFF;stroke-width:1.0;stroke-dasharray:5.0,5.0;" x1="221.5" x2="221.5" y1="85.0679" y2="938.0123"/><line style="stroke:#FFFFFF;stroke-width:1.0;stroke-dasharray:5.0,5.0;" x1="427" x2="427" y1="85.0679" y2="938.0123"/><line style="stroke:#FFFFFF;stroke-width:1.0;stroke-dasharray:5.0,5.0;" x1="667.5" x2="667.5" y1="85.0679" y2="938.0123"/><line style="stroke:#FFFFFF;stroke-width:1.0;stroke-dasharray:5.0,5.0;" x1="733.5" x2="733.5" y1="85.0679" y2="938.0123"/><line style="stroke:#FFFFFF;stroke-width:1.0;stroke-dasharray:5.0,5.0;" x1="1020.5" x2="1020.5" y1="85.0679" y2="938.0123"/><line style="stroke:#FFFFFF;stroke-width:1.0;stroke-dasharray:5.0,5.0;" x1="1120.5" x2="1120.5" y1="85.0679" y2="938.0123"/><line style="stroke:#FFFFFF;stroke-width:1.0;stroke-dasharray:5.0,5.0;" x1="1225.5" x2="1225.5" y1="85.0679" y2="938.0123"/><text fill="#FFFFFF" font-family="Verdana" font-size="14" lengthAdjust="spacing" textLength="49" x="10" y="80.9659">Usuário</text><ellipse cx="37.5" cy="14" fill="#0B58A8" rx="8" ry="8" style="stroke:#FFFFFF;stroke-width:1.0;"/><path d="M37.5,22 L37.5,49 M24.5,30 L50.5,30 M37.5,49 L24.5,64 M37.5,49 L50.5,64 " fill="none" style="stroke:#FFFFFF;stroke-width:1.0;"/><text fill="#FFFFFF" font-family="Verdana" font-size="14" lengthAdjust="spacing" textLength="49" x="10" y="951.9782">Usuário</text><ellipse cx="37.5" cy="965.0802" fill="#0B58A8" rx="8" ry="8" style="stroke:#FFFFFF;stroke-width:1.0;"/><path d="M37.5,973.0802 L37.5,1000.0802 M24.5,981.0802 L50.5,981.0802 M37.5,1000.0802 L24.5,1015.0802 M37.5,1000.0802 L50.5,1015.0802 " fill="none" style="stroke:#FFFFFF;stroke-width:1.0;"/><text fill="#FFFFFF" font-family="Verdana" font-size="14" lengthAdjust="spacing" textLength="60" x="188.5" y="80.9659">FrontEnd</text><path d="M201,38 L201,62 M201,50 L218,50 " fill="none" style="stroke:#FFFFFF;stroke-width:1.0;"/><ellipse cx="230" cy="50" fill="#0B58A8" rx="12" ry="12" style="stroke:#FFFFFF;stroke-width:1.0;"/><text fill="#FFFFFF" font-family="Verdana" font-size="14" lengthAdjust="spacing" textLength="60" x="188.5" y="951.9782">FrontEnd</text><path d="M201,960.0802 L201,984.0802 M201,972.0802 L218,972.0802 " fill="none" style="stroke:#FFFFFF;stroke-width:1.0;"/><ellipse cx="230" cy="972.0802" fill="#0B58A8" rx="12" ry="12" style="stroke:#FFFFFF;stroke-width:1.0;"/><text fill="#FFFFFF" font-family="Verdana" font-size="14" lengthAdjust="spacing" textLength="23" x="413" y="80.9659">API</text><path d="M407,38 L407,62 M407,50 L424,50 " fill="none" style="stroke:#FFFFFF;stroke-width:1.0;"/><ellipse cx="436" cy="50" fill="#0B58A8" rx="12" ry="12" style="stroke:#FFFFFF;stroke-width:1.0;"/><text fill="#FFFFFF" font-family="Verdana" font-size="14" lengthAdjust="spacing" textLength="23" x="413" y="951.9782">API</text><path d="M407,960.0802 L407,984.0802 M407,972.0802 L424,972.0802 " fill="none" style="stroke:#FFFFFF;stroke-width:1.0;"/><ellipse cx="436" cy="972.0802" fill="#0B58A8" rx="12" ry="12" style="stroke:#FFFFFF;stroke-width:1.0;"/><text fill="#FFFFFF" font-family="Verdana" font-size="14" lengthAdjust="spacing" textLength="42" x="643.5" y="80.9659">USERS</text><ellipse cx="667.5" cy="50" fill="#0B58A8" rx="12" ry="12" style="stroke:#FFFFFF;stroke-width:1.0;"/><polygon fill="#FFFFFF" points="663.5,38,669.5,33,667.5,38,669.5,43,663.5,38" style="stroke:#FFFFFF;stroke-width:1.0;"/><text fill="#FFFFFF" font-family="Verdana" font-size="14" lengthAdjust="spacing" textLength="42" x="643.5" y="951.9782">USERS</text><ellipse cx="667.5" cy="972.0802" fill="#0B58A8" rx="12" ry="12" style="stroke:#FFFFFF;stroke-width:1.0;"/><polygon fill="#FFFFFF" points="663.5,960.0802,669.5,955.0802,667.5,960.0802,669.5,965.0802,663.5,960.0802" style="stroke:#FFFFFF;stroke-width:1.0;"/><text fill="#FFFFFF" font-family="Verdana" font-size="14" lengthAdjust="spacing" textLength="59" x="701.5" y="80.9659">SESSION</text><ellipse cx="734" cy="50" fill="#0B58A8" rx="12" ry="12" style="stroke:#FFFFFF;stroke-width:1.0;"/><polygon fill="#FFFFFF" points="730,38,736,33,734,38,736,43,730,38" style="stroke:#FFFFFF;stroke-width:1.0;"/><text fill="#FFFFFF" font-family="Verdana" font-size="14" lengthAdjust="spacing" textLength="59" x="701.5" y="951.9782">SESSION</text><ellipse cx="734" cy="972.0802" fill="#0B58A8" rx="12" ry="12" style="stroke:#FFFFFF;stroke-width:1.0;"/><polygon fill="#FFFFFF" points="730,960.0802,736,955.0802,734,960.0802,736,965.0802,730,960.0802" style="stroke:#FFFFFF;stroke-width:1.0;"/><rect fill="#0B58A8" height="33.0679" style="stroke:#FFFFFF;stroke-width:1.0;" width="49" x="998.5" y="47"/><rect fill="#0B58A8" height="33.0679" style="stroke:#FFFFFF;stroke-width:1.0;" width="49" x="994.5" y="51"/><text fill="#FFFFFF" font-family="Verdana" font-size="14" lengthAdjust="spacing" textLength="35" x="1001.5" y="72.9659">Redis</text><rect fill="#0B58A8" height="33.0679" style="stroke:#FFFFFF;stroke-width:1.0;" width="49" x="998.5" y="937.0123"/><rect fill="#0B58A8" height="33.0679" style="stroke:#FFFFFF;stroke-width:1.0;" width="49" x="994.5" y="941.0123"/><text fill="#FFFFFF" font-family="Verdana" font-size="14" lengthAdjust="spacing" textLength="35" x="1001.5" y="962.9782">Redis</text><rect fill="#0B58A8" height="33.0679" style="stroke:#FFFFFF;stroke-width:1.0;" width="82" x="1081.5" y="47"/><rect fill="#0B58A8" height="33.0679" style="stroke:#FFFFFF;stroke-width:1.0;" width="82" x="1077.5" y="51"/><text fill="#FFFFFF" font-family="Verdana" font-size="14" lengthAdjust="spacing" textLength="68" x="1084.5" y="72.9659">MongoDB</text><rect fill="#0B58A8" height="33.0679" style="stroke:#FFFFFF;stroke-width:1.0;" width="82" x="1081.5" y="937.0123"/><rect fill="#0B58A8" height="33.0679" style="stroke:#FFFFFF;stroke-width:1.0;" width="82" x="1077.5" y="941.0123"/><text fill="#FFFFFF" font-family="Verdana" font-size="14" lengthAdjust="spacing" textLength="68" x="1084.5" y="962.9782">MongoDB</text><text fill="#FFFFFF" font-family="Verdana" font-size="14" lengthAdjust="spacing" textLength="79" x="1183.5" y="80.9659">PostgreSQL</text><path d="M1208,30 C1208,20 1226,20 1226,20 C1226,20 1244,20 1244,30 L1244,56 C1244,66 1226,66 1226,66 C1226,66 1208,66 1208,56 L1208,30 " fill="#0B58A8" style="stroke:#FFFFFF;stroke-width:1.5;"/><path d="M1208,30 C1208,40 1226,40 1226,40 C1226,40 1244,40 1244,30 " fill="none" style="stroke:#FFFFFF;stroke-width:1.5;"/><text fill="#FFFFFF" font-family="Verdana" font-size="14" lengthAdjust="spacing" textLength="79" x="1183.5" y="951.9782">PostgreSQL</text><path d="M1208,966.0802 C1208,956.0802 1226,956.0802 1226,956.0802 C1226,956.0802 1244,956.0802 1244,966.0802 L1244,992.0802 C1244,1002.0802 1226,1002.0802 1226,1002.0802 C1226,1002.0802 1208,1002.0802 1208,992.0802 L1208,966.0802 " fill="#0B58A8" style="stroke:#FFFFFF;stroke-width:1.5;"/><path d="M1208,966.0802 C1208,976.0802 1226,976.0802 1226,976.0802 C1226,976.0802 1244,976.0802 1244,966.0802 " fill="none" style="stroke:#FFFFFF;stroke-width:1.5;"/><rect fill="#0B58A8" height="692.1203" style="stroke:#FFFFFF;stroke-width:1.0;" width="10" x="422.5" y="196.186"/><rect fill="#0B58A8" height="204.2361" style="stroke:#FFFFFF;stroke-width:1.0;" width="10" x="662.5" y="606.6582"/><rect fill="#0B58A8" height="255.6481" style="stroke:#FFFFFF;stroke-width:1.0;" width="10" x="729" y="273.598"/><rect fill="#0B58A8" height="31.706" style="stroke:#FFFFFF;stroke-width:1.0;" width="10" x="1016" y="305.304"/><rect fill="#0B58A8" height="31.706" style="stroke:#FFFFFF;stroke-width:1.0;" width="10" x="1016" y="458.8341"/><rect fill="#0B58A8" height="31.706" style="stroke:#FFFFFF;stroke-width:1.0;" width="10" x="1115.5" y="395.4221"/><rect fill="#0B58A8" height="140.8241" style="stroke:#FFFFFF;stroke-width:1.0;" width="10" x="1221" y="638.3642"/><rect fill="#FFFFFF" height="3" style="stroke:#FFFFFF;stroke-width:1.0;" width="1268.5" x="5" y="116.9209"/><line style="stroke:#FFFFFF;stroke-width:0.5;" x1="5" x2="1273.5" y1="116.9209" y2="116.9209"/><line style="stroke:#FFFFFF;stroke-width:0.5;" x1="5" x2="1273.5" y1="119.9209" y2="119.9209"/><rect fill="#FFFFFF" height="25.706" style="stroke:#FFFFFF;stroke-width:1.0;" width="150.3125" x="564.0938" y="105.0679"/><text fill="#0B58A8" font-family="Verdana" font-size="13" font-weight="bold" lengthAdjust="spacing" textLength="133.3125" x="570.0938" y="122.9649">Interação do usuário</text><polygon fill="#FFFFFF" points="209.5,160.4799,219.5,164.4799,209.5,168.4799,213.5,164.4799" style="stroke:#FFFFFF;stroke-width:1.0;"/><line style="stroke:#FFFFFF;stroke-width:1.0;" x1="37.5" x2="215.5" y1="164.4799" y2="164.4799"/><text fill="#FFFFFF" font-family="Verdana" font-size="13" lengthAdjust="spacing" textLength="160" x="44.5" y="158.6709">Modifica dados do usuário</text><polygon fill="#FFFFFF" points="410.5,192.186,420.5,196.186,410.5,200.186,414.5,196.186" style="stroke:#FFFFFF;stroke-width:1.0;"/><line style="stroke:#FFFFFF;stroke-width:1.0;" x1="221.5" x2="416.5" y1="196.186" y2="196.186"/><text fill="#FFFFFF" font-family="Verdana" font-size="13" lengthAdjust="spacing" textLength="182" x="228.5" y="190.377">Requisita alteração do usuário</text><rect fill="#FFFFFF" height="3" style="stroke:#FFFFFF;stroke-width:1.0;" width="1268.5" x="5" y="226.039"/><line style="stroke:#FFFFFF;stroke-width:0.5;" x1="5" x2="1273.5" y1="226.039" y2="226.039"/><line style="stroke:#FFFFFF;stroke-width:0.5;" x1="5" x2="1273.5" y1="229.039" y2="229.039"/><rect fill="#FFFFFF" height="25.706" style="stroke:#FFFFFF;stroke-width:1.0;" width="98.875" x="589.8125" y="214.186"/><text fill="#0B58A8" font-family="Verdana" font-size="13" font-weight="bold" lengthAdjust="spacing" textLength="81.875" x="595.8125" y="232.083">Autenticação</text><polygon fill="#FFFFFF" points="717,269.598,727,273.598,717,277.598,721,273.598" style="stroke:#FFFFFF;stroke-width:1.0;"/><line style="stroke:#FFFFFF;stroke-width:1.0;" x1="432.5" x2="723" y1="273.598" y2="273.598"/><text fill="#FFFFFF" font-family="Verdana" font-size="13" lengthAdjust="spacing" textLength="164" x="439.5" y="267.789">Verifica validade da sessão</text><polygon fill="#FFFFFF" points="1004,301.304,1014,305.304,1004,309.304,1008,305.304" style="stroke:#FFFFFF;stroke-width:1.0;"/><line style="stroke:#FFFFFF;stroke-width:1.0;" x1="739" x2="1010" y1="305.304" y2="305.304"/><text fill="#FFFFFF" font-family="Verdana" font-size="13" lengthAdjust="spacing" textLength="258" x="746" y="299.495">Requisição dos dados da sessão em cache</text><polygon fill="#FFFFFF" points="750,333.01,740,337.01,750,341.01,746,337.01" style="stroke:#FFFFFF;stroke-width:1.0;"/><line style="stroke:#FFFFFF;stroke-width:1.0;stroke-dasharray:2.0,2.0;" x1="744" x2="1020" y1="337.01" y2="337.01"/><text fill="#FFFFFF" font-family="Verdana" font-size="13" lengthAdjust="spacing" textLength="202" x="756" y="331.201">Resultado da requisição do cache</text><path d="M691.5,352.01 L751.7188,352.01 L751.7188,361.716 L741.7188,371.716 L691.5,371.716 L691.5,352.01 " fill="#FFFFFF" style="stroke:#FFFFFF;stroke-width:1.0;"/><rect fill="none" height="146.5301" style="stroke:#FFFFFF;stroke-width:1.0;" width="492" x="691.5" y="352.01"/><text fill="#0B58A8" font-family="Verdana" font-size="13" font-weight="bold" lengthAdjust="spacing" textLength="15.2188" x="706.5" y="366.907">alt</text><text fill="#FFFFFF" font-family="Verdana" font-size="11" font-weight="bold" lengthAdjust="spacing" textLength="205.625" x="766.7188" y="365.7689">[Se a sessão não estiver em cache]</text><polygon fill="#FFFFFF" points="1103.5,391.4221,1113.5,395.4221,1103.5,399.4221,1107.5,395.4221" style="stroke:#FFFFFF;stroke-width:1.0;"/><line style="stroke:#FFFFFF;stroke-width:1.0;" x1="739" x2="1109.5" y1="395.4221" y2="395.4221"/><text fill="#FFFFFF" font-family="Verdana" font-size="13" lengthAdjust="spacing" textLength="199" x="746" y="389.6131">Requisição dos dados de sessão</text><polygon fill="#FFFFFF" points="750,423.1281,740,427.1281,750,431.1281,746,427.1281" style="stroke:#FFFFFF;stroke-width:1.0;"/><line style="stroke:#FFFFFF;stroke-width:1.0;stroke-dasharray:2.0,2.0;" x1="744" x2="1119.5" y1="427.1281" y2="427.1281"/><text fill="#FFFFFF" font-family="Verdana" font-size="13" lengthAdjust="spacing" textLength="104" x="756" y="421.3191">Dados da sessão</text><polygon fill="#FFFFFF" points="1004,454.8341,1014,458.8341,1004,462.8341,1008,458.8341" style="stroke:#FFFFFF;stroke-width:1.0;"/><line style="stroke:#FFFFFF;stroke-width:1.0;" x1="739" x2="1010" y1="458.8341" y2="458.8341"/><text fill="#FFFFFF" font-family="Verdana" font-size="13" lengthAdjust="spacing" textLength="149" x="746" y="453.0251">Salva a sessão em cache</text><polygon fill="#FFFFFF" points="750,486.5401,740,490.5401,750,494.5401,746,490.5401" style="stroke:#FFFFFF;stroke-width:1.0;"/><line style="stroke:#FFFFFF;stroke-width:1.0;stroke-dasharray:2.0,2.0;" x1="744" x2="1020" y1="490.5401" y2="490.5401"/><text fill="#FFFFFF" font-family="Verdana" font-size="13" lengthAdjust="spacing" textLength="52" x="756" y="484.7311">Sucesso</text><polygon fill="#FFFFFF" points="443.5,525.2461,433.5,529.2461,443.5,533.2461,439.5,529.2461" style="stroke:#FFFFFF;stroke-width:1.0;"/><line style="stroke:#FFFFFF;stroke-width:1.0;stroke-dasharray:2.0,2.0;" x1="437.5" x2="733" y1="529.2461" y2="529.2461"/><text fill="#FFFFFF" font-family="Verdana" font-size="13" lengthAdjust="spacing" textLength="129" x="449.5" y="523.4371">Aprovação da sessão</text><rect fill="#FFFFFF" height="3" style="stroke:#FFFFFF;stroke-width:1.0;" width="1268.5" x="5" y="559.0991"/><line style="stroke:#FFFFFF;stroke-width:0.5;" x1="5" x2="1273.5" y1="559.0991" y2="559.0991"/><line style="stroke:#FFFFFF;stroke-width:0.5;" x1="5" x2="1273.5" y1="562.0991" y2="562.0991"/><rect fill="#FFFFFF" height="25.706" style="stroke:#FFFFFF;stroke-width:1.0;" width="246" x="516.25" y="547.2461"/><text fill="#0B58A8" font-family="Verdana" font-size="13" font-weight="bold" lengthAdjust="spacing" textLength="229" x="522.25" y="565.1431">Verificação da existência do usuário</text><polygon fill="#FFFFFF" points="650.5,602.6582,660.5,606.6582,650.5,610.6582,654.5,606.6582" style="stroke:#FFFFFF;stroke-width:1.0;"/><line style="stroke:#FFFFFF;stroke-width:1.0;" x1="432.5" x2="656.5" y1="606.6582" y2="606.6582"/><text fill="#FFFFFF" font-family="Verdana" font-size="13" lengthAdjust="spacing" textLength="211" x="439.5" y="600.8492">Requisição de alteração de usuário</text><polygon fill="#FFFFFF" points="1209,634.3642,1219,638.3642,1209,642.3642,1213,638.3642" style="stroke:#FFFFFF;stroke-width:1.0;"/><line style="stroke:#FFFFFF;stroke-width:1.0;" x1="672.5" x2="1215" y1="638.3642" y2="638.3642"/><text fill="#FFFFFF" font-family="Verdana" font-size="13" lengthAdjust="spacing" textLength="165" x="679.5" y="632.5552">Verifica se usuário já existe</text><polygon fill="#FFFFFF" points="683.5,666.0702,673.5,670.0702,683.5,674.0702,679.5,670.0702" style="stroke:#FFFFFF;stroke-width:1.0;"/><line style="stroke:#FFFFFF;stroke-width:1.0;stroke-dasharray:2.0,2.0;" x1="677.5" x2="1220" y1="670.0702" y2="670.0702"/><text fill="#FFFFFF" font-family="Verdana" font-size="13" lengthAdjust="spacing" textLength="186" x="689.5" y="664.2612">Retorno com dados do usuário</text><rect fill="#FFFFFF" height="3" style="stroke:#FFFFFF;stroke-width:1.0;" width="1268.5" x="5" y="699.9232"/><line style="stroke:#FFFFFF;stroke-width:0.5;" x1="5" x2="1273.5" y1="699.9232" y2="699.9232"/><line style="stroke:#FFFFFF;stroke-width:0.5;" x1="5" x2="1273.5" y1="702.9232" y2="702.9232"/><rect fill="#FFFFFF" height="25.706" style="stroke:#FFFFFF;stroke-width:1.0;" width="273" x="502.75" y="688.0702"/><text fill="#0B58A8" font-family="Verdana" font-size="13" font-weight="bold" lengthAdjust="spacing" textLength="256" x="508.75" y="705.9672">Alteração do usuário no banco de dados</text><polygon fill="#FFFFFF" points="1209,743.4822,1219,747.4822,1209,751.4822,1213,747.4822" style="stroke:#FFFFFF;stroke-width:1.0;"/><line style="stroke:#FFFFFF;stroke-width:1.0;" x1="672.5" x2="1215" y1="747.4822" y2="747.4822"/><text fill="#FFFFFF" font-family="Verdana" font-size="13" lengthAdjust="spacing" textLength="210" x="679.5" y="741.6732">Insere dados alterados do usuário</text><polygon fill="#FFFFFF" points="683.5,775.1882,673.5,779.1882,683.5,783.1882,679.5,779.1882" style="stroke:#FFFFFF;stroke-width:1.0;"/><line style="stroke:#FFFFFF;stroke-width:1.0;stroke-dasharray:2.0,2.0;" x1="677.5" x2="1225" y1="779.1882" y2="779.1882"/><text fill="#FFFFFF" font-family="Verdana" font-size="13" lengthAdjust="spacing" textLength="203" x="689.5" y="773.3792">Dados do usuário recém-alterado</text><polygon fill="#FFFFFF" points="443.5,806.8943,433.5,810.8943,443.5,814.8943,439.5,810.8943" style="stroke:#FFFFFF;stroke-width:1.0;"/><line style="stroke:#FFFFFF;stroke-width:1.0;stroke-dasharray:2.0,2.0;" x1="437.5" x2="666.5" y1="810.8943" y2="810.8943"/><text fill="#FFFFFF" font-family="Verdana" font-size="13" lengthAdjust="spacing" textLength="160" x="449.5" y="805.0853">Dados do usuário alterado</text><rect fill="#FFFFFF" height="3" style="stroke:#FFFFFF;stroke-width:1.0;" width="1268.5" x="5" y="840.7473"/><line style="stroke:#FFFFFF;stroke-width:0.5;" x1="5" x2="1273.5" y1="840.7473" y2="840.7473"/><line style="stroke:#FFFFFF;stroke-width:0.5;" x1="5" x2="1273.5" y1="843.7473" y2="843.7473"/><rect fill="#FFFFFF" height="25.706" style="stroke:#FFFFFF;stroke-width:1.0;" width="112.875" x="582.8125" y="828.8943"/><text fill="#0B58A8" font-family="Verdana" font-size="13" font-weight="bold" lengthAdjust="spacing" textLength="95.875" x="588.8125" y="846.7913">Retorno da API</text><polygon fill="#FFFFFF" points="232.5,884.3063,222.5,888.3063,232.5,892.3063,228.5,888.3063" style="stroke:#FFFFFF;stroke-width:1.0;"/><line style="stroke:#FFFFFF;stroke-width:1.0;stroke-dasharray:2.0,2.0;" x1="226.5" x2="426.5" y1="888.3063" y2="888.3063"/><text fill="#FFFFFF" font-family="Verdana" font-size="13" lengthAdjust="spacing" textLength="160" x="238.5" y="882.4973">Dados do usuário alterado</text><polygon fill="#FFFFFF" points="48.5,916.0123,38.5,920.0123,48.5,924.0123,44.5,920.0123" style="stroke:#FFFFFF;stroke-width:1.0;"/><line style="stroke:#FFFFFF;stroke-width:1.0;stroke-dasharray:2.0,2.0;" x1="42.5" x2="220.5" y1="920.0123" y2="920.0123"/><text fill="#FFFFFF" font-family="Verdana" font-size="13" lengthAdjust="spacing" textLength="141" x="54.5" y="914.2033">Mensagem de sucesso</text></g></svg>