<?xml version="1.0" encoding="UTF-8" standalone="no"?><svg xmlns="http://www.w3.org/2000/svg" xmlns:xlink="http://www.w3.org/1999/xlink" contentStyleType="text/css" height="786px" preserveAspectRatio="none" style="width:1043px;height:786px;background:#0B58A8;" version="1.1" viewBox="0 0 1043 786" width="1043px" zoomAndPan="magnify"><defs/><g><rect fill="#0B58A8" height="456.8842" style="stroke:#FFFFFF;stroke-width:1.0;" width="10" x="360.5" y="196.186"/><rect fill="#0B58A8" height="302.0602" style="stroke:#FFFFFF;stroke-width:1.0;" width="10" x="578.5" y="273.598"/><rect fill="#0B58A8" height="31.706" style="stroke:#FFFFFF;stroke-width:1.0;" width="10" x="778.5" y="512.2461"/><rect fill="#0B58A8" height="49.412" style="stroke:#FFFFFF;stroke-width:1.0;" width="10" x="878" y="413.4221"/><rect fill="#0B58A8" height="31.706" style="stroke:#FFFFFF;stroke-width:1.0;" width="10" x="983.5" y="305.304"/><line style="stroke:#FFFFFF;stroke-width:1.0;stroke-dasharray:5.0,5.0;" x1="37" x2="37" y1="85.0679" y2="702.7762"/><line style="stroke:#FFFFFF;stroke-width:1.0;stroke-dasharray:5.0,5.0;" x1="177.5" x2="177.5" y1="85.0679" y2="702.7762"/><line style="stroke:#FFFFFF;stroke-width:1.0;stroke-dasharray:5.0,5.0;" x1="365" x2="365" y1="85.0679" y2="702.7762"/><line style="stroke:#FFFFFF;stroke-width:1.0;stroke-dasharray:5.0,5.0;" x1="583" x2="583" y1="85.0679" y2="702.7762"/><line style="stroke:#FFFFFF;stroke-width:1.0;stroke-dasharray:5.0,5.0;" x1="783" x2="783" y1="85.0679" y2="702.7762"/><line style="stroke:#FFFFFF;stroke-width:1.0;stroke-dasharray:5.0,5.0;" x1="883" x2="883" y1="85.0679" y2="702.7762"/><line style="stroke:#FFFFFF;stroke-width:1.0;stroke-dasharray:5.0,5.0;" x1="988" x2="988" y1="85.0679" y2="702.7762"/><text fill="#FFFFFF" font-family="Verdana" font-size="14" lengthAdjust="spacing" textLength="49" x="10" y="80.9659">Usuário</text><ellipse cx="37.5" cy="14" fill="#0B58A8" rx="8" ry="8" style="stroke:#FFFFFF;stroke-width:1.0;"/><path d="M37.5,22 L37.5,49 M24.5,30 L50.5,30 M37.5,49 L24.5,64 M37.5,49 L50.5,64 " fill="none" style="stroke:#FFFFFF;stroke-width:1.0;"/><text fill="#FFFFFF" font-family="Verdana" font-size="14" lengthAdjust="spacing" textLength="49" x="10" y="716.7421">Usuário</text><ellipse cx="37.5" cy="729.8441" fill="#0B58A8" rx="8" ry="8" style="stroke:#FFFFFF;stroke-width:1.0;"/><path d="M37.5,737.8441 L37.5,764.8441 M24.5,745.8441 L50.5,745.8441 M37.5,764.8441 L24.5,779.8441 M37.5,764.8441 L50.5,779.8441 " fill="none" style="stroke:#FFFFFF;stroke-width:1.0;"/><text fill="#FFFFFF" font-family="Verdana" font-size="14" lengthAdjust="spacing" textLength="60" x="144.5" y="80.9659">FrontEnd</text><path d="M157,38 L157,62 M157,50 L174,50 " fill="none" style="stroke:#FFFFFF;stroke-width:1.0;"/><ellipse cx="186" cy="50" fill="#0B58A8" rx="12" ry="12" style="stroke:#FFFFFF;stroke-width:1.0;"/><text fill="#FFFFFF" font-family="Verdana" font-size="14" lengthAdjust="spacing" textLength="60" x="144.5" y="716.7421">FrontEnd</text><path d="M157,724.8441 L157,748.8441 M157,736.8441 L174,736.8441 " fill="none" style="stroke:#FFFFFF;stroke-width:1.0;"/><ellipse cx="186" cy="736.8441" fill="#0B58A8" rx="12" ry="12" style="stroke:#FFFFFF;stroke-width:1.0;"/><text fill="#FFFFFF" font-family="Verdana" font-size="14" lengthAdjust="spacing" textLength="23" x="351" y="80.9659">API</text><path d="M345,38 L345,62 M345,50 L362,50 " fill="none" style="stroke:#FFFFFF;stroke-width:1.0;"/><ellipse cx="374" cy="50" fill="#0B58A8" rx="12" ry="12" style="stroke:#FFFFFF;stroke-width:1.0;"/><text fill="#FFFFFF" font-family="Verdana" font-size="14" lengthAdjust="spacing" textLength="23" x="351" y="716.7421">API</text><path d="M345,724.8441 L345,748.8441 M345,736.8441 L362,736.8441 " fill="none" style="stroke:#FFFFFF;stroke-width:1.0;"/><ellipse cx="374" cy="736.8441" fill="#0B58A8" rx="12" ry="12" style="stroke:#FFFFFF;stroke-width:1.0;"/><text fill="#FFFFFF" font-family="Verdana" font-size="14" lengthAdjust="spacing" textLength="59" x="551" y="80.9659">SESSION</text><ellipse cx="583.5" cy="50" fill="#0B58A8" rx="12" ry="12" style="stroke:#FFFFFF;stroke-width:1.0;"/><polygon fill="#FFFFFF" points="579.5,38,585.5,33,583.5,38,585.5,43,579.5,38" style="stroke:#FFFFFF;stroke-width:1.0;"/><text fill="#FFFFFF" font-family="Verdana" font-size="14" lengthAdjust="spacing" textLength="59" x="551" y="716.7421">SESSION</text><ellipse cx="583.5" cy="736.8441" fill="#0B58A8" rx="12" ry="12" style="stroke:#FFFFFF;stroke-width:1.0;"/><polygon fill="#FFFFFF" points="579.5,724.8441,585.5,719.8441,583.5,724.8441,585.5,729.8441,579.5,724.8441" style="stroke:#FFFFFF;stroke-width:1.0;"/><rect fill="#0B58A8" height="33.0679" style="stroke:#FFFFFF;stroke-width:1.0;" width="49" x="761" y="47"/><rect fill="#0B58A8" height="33.0679" style="stroke:#FFFFFF;stroke-width:1.0;" width="49" x="757" y="51"/><text fill="#FFFFFF" font-family="Verdana" font-size="14" lengthAdjust="spacing" textLength="35" x="764" y="72.9659">Redis</text><rect fill="#0B58A8" height="33.0679" style="stroke:#FFFFFF;stroke-width:1.0;" width="49" x="761" y="701.7762"/><rect fill="#0B58A8" height="33.0679" style="stroke:#FFFFFF;stroke-width:1.0;" width="49" x="757" y="705.7762"/><text fill="#FFFFFF" font-family="Verdana" font-size="14" lengthAdjust="spacing" textLength="35" x="764" y="727.7421">Redis</text><rect fill="#0B58A8" height="33.0679" style="stroke:#FFFFFF;stroke-width:1.0;" width="82" x="844" y="47"/><rect fill="#0B58A8" height="33.0679" style="stroke:#FFFFFF;stroke-width:1.0;" width="82" x="840" y="51"/><text fill="#FFFFFF" font-family="Verdana" font-size="14" lengthAdjust="spacing" textLength="68" x="847" y="72.9659">MongoDB</text><rect fill="#0B58A8" height="33.0679" style="stroke:#FFFFFF;stroke-width:1.0;" width="82" x="844" y="701.7762"/><rect fill="#0B58A8" height="33.0679" style="stroke:#FFFFFF;stroke-width:1.0;" width="82" x="840" y="705.7762"/><text fill="#FFFFFF" font-family="Verdana" font-size="14" lengthAdjust="spacing" textLength="68" x="847" y="727.7421">MongoDB</text><text fill="#FFFFFF" font-family="Verdana" font-size="14" lengthAdjust="spacing" textLength="79" x="946" y="80.9659">PostgreSQL</text><path d="M970.5,30 C970.5,20 988.5,20 988.5,20 C988.5,20 1006.5,20 1006.5,30 L1006.5,56 C1006.5,66 988.5,66 988.5,66 C988.5,66 970.5,66 970.5,56 L970.5,30 " fill="#0B58A8" style="stroke:#FFFFFF;stroke-width:1.5;"/><path d="M970.5,30 C970.5,40 988.5,40 988.5,40 C988.5,40 1006.5,40 1006.5,30 " fill="none" style="stroke:#FFFFFF;stroke-width:1.5;"/><text fill="#FFFFFF" font-family="Verdana" font-size="14" lengthAdjust="spacing" textLength="79" x="946" y="716.7421">PostgreSQL</text><path d="M970.5,730.8441 C970.5,720.8441 988.5,720.8441 988.5,720.8441 C988.5,720.8441 1006.5,720.8441 1006.5,730.8441 L1006.5,756.8441 C1006.5,766.8441 988.5,766.8441 988.5,766.8441 C988.5,766.8441 970.5,766.8441 970.5,756.8441 L970.5,730.8441 " fill="#0B58A8" style="stroke:#FFFFFF;stroke-width:1.5;"/><path d="M970.5,730.8441 C970.5,740.8441 988.5,740.8441 988.5,740.8441 C988.5,740.8441 1006.5,740.8441 1006.5,730.8441 " fill="none" style="stroke:#FFFFFF;stroke-width:1.5;"/><rect fill="#0B58A8" height="456.8842" style="stroke:#FFFFFF;stroke-width:1.0;" width="10" x="360.5" y="196.186"/><rect fill="#0B58A8" height="302.0602" style="stroke:#FFFFFF;stroke-width:1.0;" width="10" x="578.5" y="273.598"/><rect fill="#0B58A8" height="31.706" style="stroke:#FFFFFF;stroke-width:1.0;" width="10" x="778.5" y="512.2461"/><rect fill="#0B58A8" height="49.412" style="stroke:#FFFFFF;stroke-width:1.0;" width="10" x="878" y="413.4221"/><rect fill="#0B58A8" height="31.706" style="stroke:#FFFFFF;stroke-width:1.0;" width="10" x="983.5" y="305.304"/><rect fill="#FFFFFF" height="3" style="stroke:#FFFFFF;stroke-width:1.0;" width="1031" x="5" y="116.9209"/><line style="stroke:#FFFFFF;stroke-width:0.5;" x1="5" x2="1036" y1="116.9209" y2="116.9209"/><line style="stroke:#FFFFFF;stroke-width:0.5;" x1="5" x2="1036" y1="119.9209" y2="119.9209"/><rect fill="#FFFFFF" height="25.706" style="stroke:#FFFFFF;stroke-width:1.0;" width="150.3125" x="445.3438" y="105.0679"/><text fill="#0B58A8" font-family="Verdana" font-size="13" font-weight="bold" lengthAdjust="spacing" textLength="133.3125" x="451.3438" y="122.9649">Interação do usuário</text><polygon fill="#FFFFFF" points="165.5,160.4799,175.5,164.4799,165.5,168.4799,169.5,164.4799" style="stroke:#FFFFFF;stroke-width:1.0;"/><line style="stroke:#FFFFFF;stroke-width:1.0;" x1="37.5" x2="171.5" y1="164.4799" y2="164.4799"/><text fill="#FFFFFF" font-family="Verdana" font-size="13" lengthAdjust="spacing" textLength="116" x="44.5" y="158.6709">Realização de login</text><polygon fill="#FFFFFF" points="348.5,192.186,358.5,196.186,348.5,200.186,352.5,196.186" style="stroke:#FFFFFF;stroke-width:1.0;"/><line style="stroke:#FFFFFF;stroke-width:1.0;" x1="177.5" x2="354.5" y1="196.186" y2="196.186"/><text fill="#FFFFFF" font-family="Verdana" font-size="13" lengthAdjust="spacing" textLength="164" x="184.5" y="190.377">Requisição de autenticação</text><rect fill="#FFFFFF" height="3" style="stroke:#FFFFFF;stroke-width:1.0;" width="1031" x="5" y="226.039"/><line style="stroke:#FFFFFF;stroke-width:0.5;" x1="5" x2="1036" y1="226.039" y2="226.039"/><line style="stroke:#FFFFFF;stroke-width:0.5;" x1="5" x2="1036" y1="229.039" y2="229.039"/><rect fill="#FFFFFF" height="25.706" style="stroke:#FFFFFF;stroke-width:1.0;" width="132.0938" x="454.4531" y="214.186"/><text fill="#0B58A8" font-family="Verdana" font-size="13" font-weight="bold" lengthAdjust="spacing" textLength="115.0938" x="460.4531" y="232.083">Criação da sessão</text><polygon fill="#FFFFFF" points="566.5,269.598,576.5,273.598,566.5,277.598,570.5,273.598" style="stroke:#FFFFFF;stroke-width:1.0;"/><line style="stroke:#FFFFFF;stroke-width:1.0;" x1="370.5" x2="572.5" y1="273.598" y2="273.598"/><text fill="#FFFFFF" font-family="Verdana" font-size="13" lengthAdjust="spacing" textLength="189" x="377.5" y="267.789">Requisição de token de sessão</text><polygon fill="#FFFFFF" points="971.5,301.304,981.5,305.304,971.5,309.304,975.5,305.304" style="stroke:#FFFFFF;stroke-width:1.0;"/><line style="stroke:#FFFFFF;stroke-width:1.0;" x1="588.5" x2="977.5" y1="305.304" y2="305.304"/><text fill="#FFFFFF" font-family="Verdana" font-size="13" lengthAdjust="spacing" textLength="194" x="595.5" y="299.495">Requisição de dados de usuário</text><polygon fill="#FFFFFF" points="599.5,333.01,589.5,337.01,599.5,341.01,595.5,337.01" style="stroke:#FFFFFF;stroke-width:1.0;"/><line style="stroke:#FFFFFF;stroke-width:1.0;stroke-dasharray:2.0,2.0;" x1="593.5" x2="987.5" y1="337.01" y2="337.01"/><text fill="#FFFFFF" font-family="Verdana" font-size="13" lengthAdjust="spacing" textLength="107" x="605.5" y="331.201">Dados do usuário</text><line style="stroke:#FFFFFF;stroke-width:1.0;" x1="588.5" x2="630.5" y1="368.716" y2="368.716"/><line style="stroke:#FFFFFF;stroke-width:1.0;" x1="630.5" x2="630.5" y1="368.716" y2="381.716"/><line style="stroke:#FFFFFF;stroke-width:1.0;" x1="589.5" x2="630.5" y1="381.716" y2="381.716"/><polygon fill="#FFFFFF" points="599.5,377.716,589.5,381.716,599.5,385.716,595.5,381.716" style="stroke:#FFFFFF;stroke-width:1.0;"/><text fill="#FFFFFF" font-family="Verdana" font-size="13" lengthAdjust="spacing" textLength="176" x="595.5" y="362.907">Validação dos dados de login</text><polygon fill="#FFFFFF" points="866,409.4221,876,413.4221,866,417.4221,870,413.4221" style="stroke:#FFFFFF;stroke-width:1.0;"/><line style="stroke:#FFFFFF;stroke-width:1.0;" x1="588.5" x2="872" y1="413.4221" y2="413.4221"/><text fill="#FFFFFF" font-family="Verdana" font-size="13" lengthAdjust="spacing" textLength="195" x="595.5" y="407.6131">Requisição de criação da sessão</text><polygon fill="#FFFFFF" points="599.5,458.8341,589.5,462.8341,599.5,466.8341,595.5,462.8341" style="stroke:#FFFFFF;stroke-width:1.0;"/><line style="stroke:#FFFFFF;stroke-width:1.0;stroke-dasharray:2.0,2.0;" x1="593.5" x2="882" y1="462.8341" y2="462.8341"/><text fill="#FFFFFF" font-family="Verdana" font-size="13" lengthAdjust="spacing" textLength="79" x="605.5" y="439.3191">ID da sessão</text><text fill="#FFFFFF" font-family="Verdana" font-size="13" lengthAdjust="spacing" textLength="142" x="605.5" y="457.0251">(validade: uma semana)</text><polygon fill="#FFFFFF" points="766.5,508.2461,776.5,512.2461,766.5,516.2461,770.5,512.2461" style="stroke:#FFFFFF;stroke-width:1.0;"/><line style="stroke:#FFFFFF;stroke-width:1.0;" x1="588.5" x2="772.5" y1="512.2461" y2="512.2461"/><text fill="#FFFFFF" font-family="Verdana" font-size="13" lengthAdjust="spacing" textLength="149" x="595.5" y="488.7311">Salva a sessão em cache</text><text fill="#FFFFFF" font-family="Verdana" font-size="13" lengthAdjust="spacing" textLength="105" x="595.5" y="506.4371">(validade: um dia)</text><polygon fill="#FFFFFF" points="599.5,539.9521,589.5,543.9521,599.5,547.9521,595.5,543.9521" style="stroke:#FFFFFF;stroke-width:1.0;"/><line style="stroke:#FFFFFF;stroke-width:1.0;stroke-dasharray:2.0,2.0;" x1="593.5" x2="782.5" y1="543.9521" y2="543.9521"/><text fill="#FFFFFF" font-family="Verdana" font-size="13" lengthAdjust="spacing" textLength="52" x="605.5" y="538.1431">Sucesso</text><polygon fill="#FFFFFF" points="381.5,571.6582,371.5,575.6582,381.5,579.6582,377.5,575.6582" style="stroke:#FFFFFF;stroke-width:1.0;"/><line style="stroke:#FFFFFF;stroke-width:1.0;stroke-dasharray:2.0,2.0;" x1="375.5" x2="582.5" y1="575.6582" y2="575.6582"/><text fill="#FFFFFF" font-family="Verdana" font-size="13" lengthAdjust="spacing" textLength="105" x="387.5" y="569.8492">Token da sessão</text><rect fill="#FFFFFF" height="3" style="stroke:#FFFFFF;stroke-width:1.0;" width="1031" x="5" y="605.5112"/><line style="stroke:#FFFFFF;stroke-width:0.5;" x1="5" x2="1036" y1="605.5112" y2="605.5112"/><line style="stroke:#FFFFFF;stroke-width:0.5;" x1="5" x2="1036" y1="608.5112" y2="608.5112"/><rect fill="#FFFFFF" height="25.706" style="stroke:#FFFFFF;stroke-width:1.0;" width="112.875" x="464.0625" y="593.6582"/><text fill="#0B58A8" font-family="Verdana" font-size="13" font-weight="bold" lengthAdjust="spacing" textLength="95.875" x="470.0625" y="611.5552">Retorno da API</text><polygon fill="#FFFFFF" points="188.5,649.0702,178.5,653.0702,188.5,657.0702,184.5,653.0702" style="stroke:#FFFFFF;stroke-width:1.0;"/><line style="stroke:#FFFFFF;stroke-width:1.0;stroke-dasharray:2.0,2.0;" x1="182.5" x2="364.5" y1="653.0702" y2="653.0702"/><text fill="#FFFFFF" font-family="Verdana" font-size="13" lengthAdjust="spacing" textLength="123" x="194.5" y="647.2612">Resposta com token</text><polygon fill="#FFFFFF" points="48.5,680.7762,38.5,684.7762,48.5,688.7762,44.5,684.7762" style="stroke:#FFFFFF;stroke-width:1.0;"/><line style="stroke:#FFFFFF;stroke-width:1.0;stroke-dasharray:2.0,2.0;" x1="42.5" x2="176.5" y1="684.7762" y2="684.7762"/><text fill="#FFFFFF" font-family="Verdana" font-size="13" lengthAdjust="spacing" textLength="111" x="54.5" y="678.9672">Redirecionamento</text></g></svg>