<?xml version="1.0" encoding="UTF-8" standalone="no"?><svg xmlns="http://www.w3.org/2000/svg" xmlns:xlink="http://www.w3.org/1999/xlink" contentStyleType="text/css" height="1022px" preserveAspectRatio="none" style="width:1271px;height:1022px;background:#0B58A8;" version="1.1" viewBox="0 0 1271 1022" width="1271px" zoomAndPan="magnify"><defs/><g><rect fill="#0B58A8" height="692.1203" style="stroke:#FFFFFF;stroke-width:1.0;" width="10" x="430.5" y="196.186"/><rect fill="#0B58A8" height="204.2361" style="stroke:#FFFFFF;stroke-width:1.0;" width="10" x="657.5" y="606.6582"/><rect fill="#0B58A8" height="255.6481" style="stroke:#FFFFFF;stroke-width:1.0;" width="10" x="720" y="273.598"/><rect fill="#0B58A8" height="31.706" style="stroke:#FFFFFF;stroke-width:1.0;" width="10" x="1007" y="305.304"/><rect fill="#0B58A8" height="31.706" style="stroke:#FFFFFF;stroke-width:1.0;" width="10" x="1007" y="458.8341"/><rect fill="#0B58A8" height="31.706" style="stroke:#FFFFFF;stroke-width:1.0;" width="10" x="1106.5" y="395.4221"/><rect fill="#0B58A8" height="140.8241" style="stroke:#FFFFFF;stroke-width:1.0;" width="10" x="1212" y="638.3642"/><rect fill="#0B58A8" height="146.5301" style="stroke:#FFFFFF;stroke-width:1.0;" width="492" x="682.5" y="352.01"/><line style="stroke:#FFFFFF;stroke-width:1.0;stroke-dasharray:5.0,5.0;" x1="37" x2="37" y1="85.0679" y2="938.0123"/><line style="stroke:#FFFFFF;stroke-width:1.0;stroke-dasharray:5.0,5.0;" x1="202.5" x2="202.5" y1="85.0679" y2="938.0123"/><line style="stroke:#FFFFFF;stroke-width:1.0;stroke-dasharray:5.0,5.0;" x1="435" x2="435" y1="85.0679" y2="938.0123"/><line style="stroke:#FFFFFF;stroke-width:1.0;stroke-dasharray:5.0,5.0;" x1="662.5" x2="662.5" y1="85.0679" y2="938.0123"/><line style="stroke:#FFFFFF;stroke-width:1.0;stroke-dasharray:5.0,5.0;" x1="724.5" x2="724.5" y1="85.0679" y2="938.0123"/><line style="stroke:#FFFFFF;stroke-width:1.0;stroke-dasharray:5.0,5.0;" x1="1011.5" x2="1011.5" y1="85.0679" y2="938.0123"/><line style="stroke:#FFFFFF;stroke-width:1.0;stroke-dasharray:5.0,5.0;" x1="1111.5" x2="1111.5" y1="85.0679" y2="938.0123"/><line style="stroke:#FFFFFF;stroke-width:1.0;stroke-dasharray:5.0,5.0;" x1="1216.5" x2="1216.5" y1="85.0679" y2="938.0123"/><text fill="#FFFFFF" font-family="Verdana" font-size="14" lengthAdjust="spacing" textLength="49" x="10" y="80.9659">Usuário</text><ellipse cx="37.5" cy="14" fill="#0B58A8" rx="8" ry="8" style="stroke:#FFFFFF;stroke-width:1.0;"/><path d="M37.5,22 L37.5,49 M24.5,30 L50.5,30 M37.5,49 L24.5,64 M37.5,49 L50.5,64 " fill="none" style="stroke:#FFFFFF;stroke-width:1.0;"/><text fill="#FFFFFF" font-family="Verdana" font-size="14" lengthAdjust="spacing" textLength="49" x="10" y="951.9782">Usuário</text><ellipse cx="37.5" cy="965.0802" fill="#0B58A8" rx="8" ry="8" style="stroke:#FFFFFF;stroke-width:1.0;"/><path d="M37.5,973.0802 L37.5,1000.0802 M24.5,981.0802 L50.5,981.0802 M37.5,1000.0802 L24.5,1015.0802 M37.5,1000.0802 L50.5,1015.0802 " fill="none" style="stroke:#FFFFFF;stroke-width:1.0;"/><text fill="#FFFFFF" font-family="Verdana" font-size="14" lengthAdjust="spacing" textLength="60" x="169.5" y="80.9659">FrontEnd</text><path d="M182,38 L182,62 M182,50 L199,50 " fill="none" style="stroke:#FFFFFF;stroke-width:1.0;"/><ellipse cx="211" cy="50" fill="#0B58A8" rx="12" ry="12" style="stroke:#FFFFFF;stroke-width:1.0;"/><text fill="#FFFFFF" font-family="Verdana" font-size="14" lengthAdjust="spacing" textLength="60" x="169.5" y="951.9782">FrontEnd</text><path d="M182,960.0802 L182,984.0802 M182,972.0802 L199,972.0802 " fill="none" style="stroke:#FFFFFF;stroke-width:1.0;"/><ellipse cx="211" cy="972.0802" fill="#0B58A8" rx="12" ry="12" style="stroke:#FFFFFF;stroke-width:1.0;"/><text fill="#FFFFFF" font-family="Verdana" font-size="14" lengthAdjust="spacing" textLength="23" x="421" y="80.9659">API</text><path d="M415,38 L415,62 M415,50 L432,50 " fill="none" style="stroke:#FFFFFF;stroke-width:1.0;"/><ellipse cx="444" cy="50" fill="#0B58A8" rx="12" ry="12" style="stroke:#FFFFFF;stroke-width:1.0;"/><text fill="#FFFFFF" font-family="Verdana" font-size="14" lengthAdjust="spacing" textLength="23" x="421" y="951.9782">API</text><path d="M415,960.0802 L415,984.0802 M415,972.0802 L432,972.0802 " fill="none" style="stroke:#FFFFFF;stroke-width:1.0;"/><ellipse cx="444" cy="972.0802" fill="#0B58A8" rx="12" ry="12" style="stroke:#FFFFFF;stroke-width:1.0;"/><text fill="#FFFFFF" font-family="Verdana" font-size="14" lengthAdjust="spacing" textLength="34" x="642.5" y="80.9659">USER</text><ellipse cx="662.5" cy="50" fill="#0B58A8" rx="12" ry="12" style="stroke:#FFFFFF;stroke-width:1.0;"/><polygon fill="#FFFFFF" points="658.5,38,664.5,33,662.5,38,664.5,43,658.5,38" style="stroke:#FFFFFF;stroke-width:1.0;"/><text fill="#FFFFFF" font-family="Verdana" font-size="14" lengthAdjust="spacing" textLength="34" x="642.5" y="951.9782">USER</text><ellipse cx="662.5" cy="972.0802" fill="#0B58A8" rx="12" ry="12" style="stroke:#FFFFFF;stroke-width:1.0;"/><polygon fill="#FFFFFF" points="658.5,960.0802,664.5,955.0802,662.5,960.0802,664.5,965.0802,658.5,960.0802" style="stroke:#FFFFFF;stroke-width:1.0;"/><text fill="#FFFFFF" font-family="Verdana" font-size="14" lengthAdjust="spacing" textLength="59" x="692.5" y="80.9659">SESSION</text><ellipse cx="725" cy="50" fill="#0B58A8" rx="12" ry="12" style="stroke:#FFFFFF;stroke-width:1.0;"/><polygon fill="#FFFFFF" points="721,38,727,33,725,38,727,43,721,38" style="stroke:#FFFFFF;stroke-width:1.0;"/><text fill="#FFFFFF" font-family="Verdana" font-size="14" lengthAdjust="spacing" textLength="59" x="692.5" y="951.9782">SESSION</text><ellipse cx="725" cy="972.0802" fill="#0B58A8" rx="12" ry="12" style="stroke:#FFFFFF;stroke-width:1.0;"/><polygon fill="#FFFFFF" points="721,960.0802,727,955.0802,725,960.0802,727,965.0802,721,960.0802" style="stroke:#FFFFFF;stroke-width:1.0;"/><rect fill="#0B58A8" height="33.0679" style="stroke:#FFFFFF;stroke-width:1.0;" width="49" x="989.5" y="47"/><rect fill="#0B58A8" height="33.0679" style="stroke:#FFFFFF;stroke-width:1.0;" width="49" x="985.5" y="51"/><text fill="#FFFFFF" font-family="Verdana" font-size="14" lengthAdjust="spacing" textLength="35" x="992.5" y="72.9659">Redis</text><rect fill="#0B58A8" height="33.0679" style="stroke:#FFFFFF;stroke-width:1.0;" width="49" x="989.5" y="937.0123"/><rect fill="#0B58A8" height="33.0679" style="stroke:#FFFFFF;stroke-width:1.0;" width="49" x="985.5" y="941.0123"/><text fill="#FFFFFF" font-family="Verdana" font-size="14" lengthAdjust="spacing" textLength="35" x="992.5" y="962.9782">Redis</text><rect fill="#0B58A8" height="33.0679" style="stroke:#FFFFFF;stroke-width:1.0;" width="82" x="1072.5" y="47"/><rect fill="#0B58A8" height="33.0679" style="stroke:#FFFFFF;stroke-width:1.0;" width="82" x="1068.5" y="51"/><text fill="#FFFFFF" font-family="Verdana" font-size="14" lengthAdjust="spacing" textLength="68" x="1075.5" y="72.9659">MongoDB</text><rect fill="#0B58A8" height="33.0679" style="stroke:#FFFFFF;stroke-width:1.0;" width="82" x="1072.5" y="937.0123"/><rect fill="#0B58A8" height="33.0679" style="stroke:#FFFFFF;stroke-width:1.0;" width="82" x="1068.5" y="941.0123"/><text fill="#FFFFFF" font-family="Verdana" font-size="14" lengthAdjust="spacing" textLength="68" x="1075.5" y="962.9782">MongoDB</text><text fill="#FFFFFF" font-family="Verdana" font-size="14" lengthAdjust="spacing" textLength="79" x="1174.5" y="80.9659">PostgreSQL</text><path d="M1199,30 C1199,20 1217,20 1217,20 C1217,20 1235,20 1235,30 L1235,56 C1235,66 1217,66 1217,66 C1217,66 1199,66 1199,56 L1199,30 " fill="#0B58A8" style="stroke:#FFFFFF;stroke-width:1.5;"/><path d="M1199,30 C1199,40 1217,40 1217,40 C1217,40 1235,40 1235,30 " fill="none" style="stroke:#FFFFFF;stroke-width:1.5;"/><text fill="#FFFFFF" font-family="Verdana" font-size="14" lengthAdjust="spacing" textLength="79" x="1174.5" y="951.9782">PostgreSQL</text><path d="M1199,966.0802 C1199,956.0802 1217,956.0802 1217,956.0802 C1217,956.0802 1235,956.0802 1235,966.0802 L1235,992.0802 C1235,1002.0802 1217,1002.0802 1217,1002.0802 C1217,1002.0802 1199,1002.0802 1199,992.0802 L1199,966.0802 " fill="#0B58A8" style="stroke:#FFFFFF;stroke-width:1.5;"/><path d="M1199,966.0802 C1199,976.0802 1217,976.0802 1217,976.0802 C1217,976.0802 1235,976.0802 1235,966.0802 " fill="none" style="stroke:#FFFFFF;stroke-width:1.5;"/><rect fill="#0B58A8" height="692.1203" style="stroke:#FFFFFF;stroke-width:1.0;" width="10" x="430.5" y="196.186"/><rect fill="#0B58A8" height="204.2361" style="stroke:#FFFFFF;stroke-width:1.0;" width="10" x="657.5" y="606.6582"/><rect fill="#0B58A8" height="255.6481" style="stroke:#FFFFFF;stroke-width:1.0;" width="10" x="720" y="273.598"/><rect fill="#0B58A8" height="31.706" style="stroke:#FFFFFF;stroke-width:1.0;" width="10" x="1007" y="305.304"/><rect fill="#0B58A8" height="31.706" style="stroke:#FFFFFF;stroke-width:1.0;" width="10" x="1007" y="458.8341"/><rect fill="#0B58A8" height="31.706" style="stroke:#FFFFFF;stroke-width:1.0;" width="10" x="1106.5" y="395.4221"/><rect fill="#0B58A8" height="140.8241" style="stroke:#FFFFFF;stroke-width:1.0;" width="10" x="1212" y="638.3642"/><rect fill="#FFFFFF" height="3" style="stroke:#FFFFFF;stroke-width:1.0;" width="1259.5" x="5" y="116.9209"/><line style="stroke:#FFFFFF;stroke-width:0.5;" x1="5" x2="1264.5" y1="116.9209" y2="116.9209"/><line style="stroke:#FFFFFF;stroke-width:0.5;" x1="5" x2="1264.5" y1="119.9209" y2="119.9209"/><rect fill="#FFFFFF" height="25.706" style="stroke:#FFFFFF;stroke-width:1.0;" width="150.3125" x="559.5938" y="105.0679"/><text fill="#0B58A8" font-family="Verdana" font-size="13" font-weight="bold" lengthAdjust="spacing" textLength="133.3125" x="565.5938" y="122.9649">Interação do usuário</text><polygon fill="#FFFFFF" points="190.5,160.4799,200.5,164.4799,190.5,168.4799,194.5,164.4799" style="stroke:#FFFFFF;stroke-width:1.0;"/><line style="stroke:#FFFFFF;stroke-width:1.0;" x1="37.5" x2="196.5" y1="164.4799" y2="164.4799"/><text fill="#FFFFFF" font-family="Verdana" font-size="13" lengthAdjust="spacing" textLength="136" x="44.5" y="158.6709">Cadastra novo usuário</text><polygon fill="#FFFFFF" points="418.5,192.186,428.5,196.186,418.5,200.186,422.5,196.186" style="stroke:#FFFFFF;stroke-width:1.0;"/><line style="stroke:#FFFFFF;stroke-width:1.0;" x1="202.5" x2="424.5" y1="196.186" y2="196.186"/><text fill="#FFFFFF" font-family="Verdana" font-size="13" lengthAdjust="spacing" textLength="209" x="209.5" y="190.377">Requisita criação do novo cadastro</text><rect fill="#FFFFFF" height="3" style="stroke:#FFFFFF;stroke-width:1.0;" width="1259.5" x="5" y="226.039"/><line style="stroke:#FFFFFF;stroke-width:0.5;" x1="5" x2="1264.5" y1="226.039" y2="226.039"/><line style="stroke:#FFFFFF;stroke-width:0.5;" x1="5" x2="1264.5" y1="229.039" y2="229.039"/><rect fill="#FFFFFF" height="25.706" style="stroke:#FFFFFF;stroke-width:1.0;" width="98.875" x="585.3125" y="214.186"/><text fill="#0B58A8" font-family="Verdana" font-size="13" font-weight="bold" lengthAdjust="spacing" textLength="81.875" x="591.3125" y="232.083">Autenticação</text><polygon fill="#FFFFFF" points="708,269.598,718,273.598,708,277.598,712,273.598" style="stroke:#FFFFFF;stroke-width:1.0;"/><line style="stroke:#FFFFFF;stroke-width:1.0;" x1="440.5" x2="714" y1="273.598" y2="273.598"/><text fill="#FFFFFF" font-family="Verdana" font-size="13" lengthAdjust="spacing" textLength="164" x="447.5" y="267.789">Verifica validade da sessão</text><polygon fill="#FFFFFF" points="995,301.304,1005,305.304,995,309.304,999,305.304" style="stroke:#FFFFFF;stroke-width:1.0;"/><line style="stroke:#FFFFFF;stroke-width:1.0;" x1="730" x2="1001" y1="305.304" y2="305.304"/><text fill="#FFFFFF" font-family="Verdana" font-size="13" lengthAdjust="spacing" textLength="258" x="737" y="299.495">Requisição dos dados da sessão em cache</text><polygon fill="#FFFFFF" points="741,333.01,731,337.01,741,341.01,737,337.01" style="stroke:#FFFFFF;stroke-width:1.0;"/><line style="stroke:#FFFFFF;stroke-width:1.0;stroke-dasharray:2.0,2.0;" x1="735" x2="1011" y1="337.01" y2="337.01"/><text fill="#FFFFFF" font-family="Verdana" font-size="13" lengthAdjust="spacing" textLength="202" x="747" y="331.201">Resultado da requisição do cache</text><path d="M682.5,352.01 L742.7188,352.01 L742.7188,361.716 L732.7188,371.716 L682.5,371.716 L682.5,352.01 " fill="#FFFFFF" style="stroke:#FFFFFF;stroke-width:1.0;"/><rect fill="none" height="146.5301" style="stroke:#FFFFFF;stroke-width:1.0;" width="492" x="682.5" y="352.01"/><text fill="#0B58A8" font-family="Verdana" font-size="13" font-weight="bold" lengthAdjust="spacing" textLength="15.2188" x="697.5" y="366.907">alt</text><text fill="#FFFFFF" font-family="Verdana" font-size="11" font-weight="bold" lengthAdjust="spacing" textLength="205.625" x="757.7188" y="365.7689">[Se a sessão não estiver em cache]</text><polygon fill="#FFFFFF" points="1094.5,391.4221,1104.5,395.4221,1094.5,399.4221,1098.5,395.4221" style="stroke:#FFFFFF;stroke-width:1.0;"/><line style="stroke:#FFFFFF;stroke-width:1.0;" x1="730" x2="1100.5" y1="395.4221" y2="395.4221"/><text fill="#FFFFFF" font-family="Verdana" font-size="13" lengthAdjust="spacing" textLength="199" x="737" y="389.6131">Requisição dos dados de sessão</text><polygon fill="#FFFFFF" points="741,423.1281,731,427.1281,741,431.1281,737,427.1281" style="stroke:#FFFFFF;stroke-width:1.0;"/><line style="stroke:#FFFFFF;stroke-width:1.0;stroke-dasharray:2.0,2.0;" x1="735" x2="1110.5" y1="427.1281" y2="427.1281"/><text fill="#FFFFFF" font-family="Verdana" font-size="13" lengthAdjust="spacing" textLength="104" x="747" y="421.3191">Dados da sessão</text><polygon fill="#FFFFFF" points="995,454.8341,1005,458.8341,995,462.8341,999,458.8341" style="stroke:#FFFFFF;stroke-width:1.0;"/><line style="stroke:#FFFFFF;stroke-width:1.0;" x1="730" x2="1001" y1="458.8341" y2="458.8341"/><text fill="#FFFFFF" font-family="Verdana" font-size="13" lengthAdjust="spacing" textLength="149" x="737" y="453.0251">Salva a sessão em cache</text><polygon fill="#FFFFFF" points="741,486.5401,731,490.5401,741,494.5401,737,490.5401" style="stroke:#FFFFFF;stroke-width:1.0;"/><line style="stroke:#FFFFFF;stroke-width:1.0;stroke-dasharray:2.0,2.0;" x1="735" x2="1011" y1="490.5401" y2="490.5401"/><text fill="#FFFFFF" font-family="Verdana" font-size="13" lengthAdjust="spacing" textLength="52" x="747" y="484.7311">Sucesso</text><polygon fill="#FFFFFF" points="451.5,525.2461,441.5,529.2461,451.5,533.2461,447.5,529.2461" style="stroke:#FFFFFF;stroke-width:1.0;"/><line style="stroke:#FFFFFF;stroke-width:1.0;stroke-dasharray:2.0,2.0;" x1="445.5" x2="724" y1="529.2461" y2="529.2461"/><text fill="#FFFFFF" font-family="Verdana" font-size="13" lengthAdjust="spacing" textLength="129" x="457.5" y="523.4371">Aprovação da sessão</text><rect fill="#FFFFFF" height="3" style="stroke:#FFFFFF;stroke-width:1.0;" width="1259.5" x="5" y="559.0991"/><line style="stroke:#FFFFFF;stroke-width:0.5;" x1="5" x2="1264.5" y1="559.0991" y2="559.0991"/><line style="stroke:#FFFFFF;stroke-width:0.5;" x1="5" x2="1264.5" y1="562.0991" y2="562.0991"/><rect fill="#FFFFFF" height="25.706" style="stroke:#FFFFFF;stroke-width:1.0;" width="247" x="511.25" y="547.2461"/><text fill="#0B58A8" font-family="Verdana" font-size="13" font-weight="bold" lengthAdjust="spacing" textLength="230" x="517.25" y="565.1431">Verificação de existência do usuário</text><polygon fill="#FFFFFF" points="645.5,602.6582,655.5,606.6582,645.5,610.6582,649.5,606.6582" style="stroke:#FFFFFF;stroke-width:1.0;"/><line style="stroke:#FFFFFF;stroke-width:1.0;" x1="440.5" x2="651.5" y1="606.6582" y2="606.6582"/><text fill="#FFFFFF" font-family="Verdana" font-size="13" lengthAdjust="spacing" textLength="198" x="447.5" y="600.8492">Requisição de criação de usuário</text><polygon fill="#FFFFFF" points="1200,634.3642,1210,638.3642,1200,642.3642,1204,638.3642" style="stroke:#FFFFFF;stroke-width:1.0;"/><line style="stroke:#FFFFFF;stroke-width:1.0;" x1="667.5" x2="1206" y1="638.3642" y2="638.3642"/><text fill="#FFFFFF" font-family="Verdana" font-size="13" lengthAdjust="spacing" textLength="165" x="674.5" y="632.5552">Verifica se usuário já existe</text><polygon fill="#FFFFFF" points="678.5,666.0702,668.5,670.0702,678.5,674.0702,674.5,670.0702" style="stroke:#FFFFFF;stroke-width:1.0;"/><line style="stroke:#FFFFFF;stroke-width:1.0;stroke-dasharray:2.0,2.0;" x1="672.5" x2="1211" y1="670.0702" y2="670.0702"/><text fill="#FFFFFF" font-family="Verdana" font-size="13" lengthAdjust="spacing" textLength="84" x="684.5" y="664.2612">Retorno vazio</text><rect fill="#FFFFFF" height="3" style="stroke:#FFFFFF;stroke-width:1.0;" width="1259.5" x="5" y="699.9232"/><line style="stroke:#FFFFFF;stroke-width:0.5;" x1="5" x2="1264.5" y1="699.9232" y2="699.9232"/><line style="stroke:#FFFFFF;stroke-width:0.5;" x1="5" x2="1264.5" y1="702.9232" y2="702.9232"/><rect fill="#FFFFFF" height="25.706" style="stroke:#FFFFFF;stroke-width:1.0;" width="260.1875" x="504.6563" y="688.0702"/><text fill="#0B58A8" font-family="Verdana" font-size="13" font-weight="bold" lengthAdjust="spacing" textLength="243.1875" x="510.6563" y="705.9672">Criação do usuário no banco de dados</text><polygon fill="#FFFFFF" points="1200,743.4822,1210,747.4822,1200,751.4822,1204,747.4822" style="stroke:#FFFFFF;stroke-width:1.0;"/><line style="stroke:#FFFFFF;stroke-width:1.0;" x1="667.5" x2="1206" y1="747.4822" y2="747.4822"/><text fill="#FFFFFF" font-family="Verdana" font-size="13" lengthAdjust="spacing" textLength="184" x="674.5" y="741.6732">Insere dados de novo usuário</text><polygon fill="#FFFFFF" points="678.5,775.1882,668.5,779.1882,678.5,783.1882,674.5,779.1882" style="stroke:#FFFFFF;stroke-width:1.0;"/><line style="stroke:#FFFFFF;stroke-width:1.0;stroke-dasharray:2.0,2.0;" x1="672.5" x2="1216" y1="779.1882" y2="779.1882"/><text fill="#FFFFFF" font-family="Verdana" font-size="13" lengthAdjust="spacing" textLength="203" x="684.5" y="773.3792">Dados do usuário recém-inserido</text><polygon fill="#FFFFFF" points="451.5,806.8943,441.5,810.8943,451.5,814.8943,447.5,810.8943" style="stroke:#FFFFFF;stroke-width:1.0;"/><line style="stroke:#FFFFFF;stroke-width:1.0;stroke-dasharray:2.0,2.0;" x1="445.5" x2="661.5" y1="810.8943" y2="810.8943"/><text fill="#FFFFFF" font-family="Verdana" font-size="13" lengthAdjust="spacing" textLength="147" x="457.5" y="805.0853">Dados do usuário criado</text><rect fill="#FFFFFF" height="3" style="stroke:#FFFFFF;stroke-width:1.0;" width="1259.5" x="5" y="840.7473"/><line style="stroke:#FFFFFF;stroke-width:0.5;" x1="5" x2="1264.5" y1="840.7473" y2="840.7473"/><line style="stroke:#FFFFFF;stroke-width:0.5;" x1="5" x2="1264.5" y1="843.7473" y2="843.7473"/><rect fill="#FFFFFF" height="25.706" style="stroke:#FFFFFF;stroke-width:1.0;" width="112.875" x="578.3125" y="828.8943"/><text fill="#0B58A8" font-family="Verdana" font-size="13" font-weight="bold" lengthAdjust="spacing" textLength="95.875" x="584.3125" y="846.7913">Retorno da API</text><polygon fill="#FFFFFF" points="213.5,884.3063,203.5,888.3063,213.5,892.3063,209.5,888.3063" style="stroke:#FFFFFF;stroke-width:1.0;"/><line style="stroke:#FFFFFF;stroke-width:1.0;stroke-dasharray:2.0,2.0;" x1="207.5" x2="434.5" y1="888.3063" y2="888.3063"/><text fill="#FFFFFF" font-family="Verdana" font-size="13" lengthAdjust="spacing" textLength="177" x="219.5" y="882.4973">Dados do usuário cadastrado</text><polygon fill="#FFFFFF" points="48.5,916.0123,38.5,920.0123,48.5,924.0123,44.5,920.0123" style="stroke:#FFFFFF;stroke-width:1.0;"/><line style="stroke:#FFFFFF;stroke-width:1.0;stroke-dasharray:2.0,2.0;" x1="42.5" x2="201.5" y1="920.0123" y2="920.0123"/><text fill="#FFFFFF" font-family="Verdana" font-size="13" lengthAdjust="spacing" textLength="141" x="54.5" y="914.2033">Mensagem de sucesso</text></g></svg>