<?xml version="1.0" encoding="UTF-8" standalone="no"?><svg xmlns="http://www.w3.org/2000/svg" xmlns:xlink="http://www.w3.org/1999/xlink" contentStyleType="text/css" height="751px" preserveAspectRatio="none" style="width:1067px;height:751px;background:#0B58A8;" version="1.1" viewBox="0 0 1067 751" width="1067px" zoomAndPan="magnify"><defs/><g><rect fill="#0B58A8" height="421.4722" style="stroke:#FFFFFF;stroke-width:1.0;" width="10" x="384.5" y="196.186"/><rect fill="#0B58A8" height="266.6481" style="stroke:#FFFFFF;stroke-width:1.0;" width="10" x="602.5" y="273.598"/><rect fill="#0B58A8" height="31.706" style="stroke:#FFFFFF;stroke-width:1.0;" width="10" x="802.5" y="476.8341"/><rect fill="#0B58A8" height="31.706" style="stroke:#FFFFFF;stroke-width:1.0;" width="10" x="902" y="413.4221"/><rect fill="#0B58A8" height="31.706" style="stroke:#FFFFFF;stroke-width:1.0;" width="10" x="1007.5" y="305.304"/><line style="stroke:#FFFFFF;stroke-width:1.0;stroke-dasharray:5.0,5.0;" x1="37" x2="37" y1="85.0679" y2="667.3642"/><line style="stroke:#FFFFFF;stroke-width:1.0;stroke-dasharray:5.0,5.0;" x1="177.5" x2="177.5" y1="85.0679" y2="667.3642"/><line style="stroke:#FFFFFF;stroke-width:1.0;stroke-dasharray:5.0,5.0;" x1="389" x2="389" y1="85.0679" y2="667.3642"/><line style="stroke:#FFFFFF;stroke-width:1.0;stroke-dasharray:5.0,5.0;" x1="607" x2="607" y1="85.0679" y2="667.3642"/><line style="stroke:#FFFFFF;stroke-width:1.0;stroke-dasharray:5.0,5.0;" x1="807" x2="807" y1="85.0679" y2="667.3642"/><line style="stroke:#FFFFFF;stroke-width:1.0;stroke-dasharray:5.0,5.0;" x1="907" x2="907" y1="85.0679" y2="667.3642"/><line style="stroke:#FFFFFF;stroke-width:1.0;stroke-dasharray:5.0,5.0;" x1="1012" x2="1012" y1="85.0679" y2="667.3642"/><text fill="#FFFFFF" font-family="Verdana" font-size="14" lengthAdjust="spacing" textLength="49" x="10" y="80.9659">Usuário</text><ellipse cx="37.5" cy="14" fill="#0B58A8" rx="8" ry="8" style="stroke:#FFFFFF;stroke-width:1.0;"/><path d="M37.5,22 L37.5,49 M24.5,30 L50.5,30 M37.5,49 L24.5,64 M37.5,49 L50.5,64 " fill="none" style="stroke:#FFFFFF;stroke-width:1.0;"/><text fill="#FFFFFF" font-family="Verdana" font-size="14" lengthAdjust="spacing" textLength="49" x="10" y="681.3301">Usuário</text><ellipse cx="37.5" cy="694.4321" fill="#0B58A8" rx="8" ry="8" style="stroke:#FFFFFF;stroke-width:1.0;"/><path d="M37.5,702.4321 L37.5,729.4321 M24.5,710.4321 L50.5,710.4321 M37.5,729.4321 L24.5,744.4321 M37.5,729.4321 L50.5,744.4321 " fill="none" style="stroke:#FFFFFF;stroke-width:1.0;"/><text fill="#FFFFFF" font-family="Verdana" font-size="14" lengthAdjust="spacing" textLength="60" x="144.5" y="80.9659">FrontEnd</text><path d="M157,38 L157,62 M157,50 L174,50 " fill="none" style="stroke:#FFFFFF;stroke-width:1.0;"/><ellipse cx="186" cy="50" fill="#0B58A8" rx="12" ry="12" style="stroke:#FFFFFF;stroke-width:1.0;"/><text fill="#FFFFFF" font-family="Verdana" font-size="14" lengthAdjust="spacing" textLength="60" x="144.5" y="681.3301">FrontEnd</text><path d="M157,689.4321 L157,713.4321 M157,701.4321 L174,701.4321 " fill="none" style="stroke:#FFFFFF;stroke-width:1.0;"/><ellipse cx="186" cy="701.4321" fill="#0B58A8" rx="12" ry="12" style="stroke:#FFFFFF;stroke-width:1.0;"/><text fill="#FFFFFF" font-family="Verdana" font-size="14" lengthAdjust="spacing" textLength="23" x="375" y="80.9659">API</text><path d="M369,38 L369,62 M369,50 L386,50 " fill="none" style="stroke:#FFFFFF;stroke-width:1.0;"/><ellipse cx="398" cy="50" fill="#0B58A8" rx="12" ry="12" style="stroke:#FFFFFF;stroke-width:1.0;"/><text fill="#FFFFFF" font-family="Verdana" font-size="14" lengthAdjust="spacing" textLength="23" x="375" y="681.3301">API</text><path d="M369,689.4321 L369,713.4321 M369,701.4321 L386,701.4321 " fill="none" style="stroke:#FFFFFF;stroke-width:1.0;"/><ellipse cx="398" cy="701.4321" fill="#0B58A8" rx="12" ry="12" style="stroke:#FFFFFF;stroke-width:1.0;"/><text fill="#FFFFFF" font-family="Verdana" font-size="14" lengthAdjust="spacing" textLength="59" x="575" y="80.9659">SESSION</text><ellipse cx="607.5" cy="50" fill="#0B58A8" rx="12" ry="12" style="stroke:#FFFFFF;stroke-width:1.0;"/><polygon fill="#FFFFFF" points="603.5,38,609.5,33,607.5,38,609.5,43,603.5,38" style="stroke:#FFFFFF;stroke-width:1.0;"/><text fill="#FFFFFF" font-family="Verdana" font-size="14" lengthAdjust="spacing" textLength="59" x="575" y="681.3301">SESSION</text><ellipse cx="607.5" cy="701.4321" fill="#0B58A8" rx="12" ry="12" style="stroke:#FFFFFF;stroke-width:1.0;"/><polygon fill="#FFFFFF" points="603.5,689.4321,609.5,684.4321,607.5,689.4321,609.5,694.4321,603.5,689.4321" style="stroke:#FFFFFF;stroke-width:1.0;"/><rect fill="#0B58A8" height="33.0679" style="stroke:#FFFFFF;stroke-width:1.0;" width="49" x="785" y="47"/><rect fill="#0B58A8" height="33.0679" style="stroke:#FFFFFF;stroke-width:1.0;" width="49" x="781" y="51"/><text fill="#FFFFFF" font-family="Verdana" font-size="14" lengthAdjust="spacing" textLength="35" x="788" y="72.9659">Redis</text><rect fill="#0B58A8" height="33.0679" style="stroke:#FFFFFF;stroke-width:1.0;" width="49" x="785" y="666.3642"/><rect fill="#0B58A8" height="33.0679" style="stroke:#FFFFFF;stroke-width:1.0;" width="49" x="781" y="670.3642"/><text fill="#FFFFFF" font-family="Verdana" font-size="14" lengthAdjust="spacing" textLength="35" x="788" y="692.3301">Redis</text><rect fill="#0B58A8" height="33.0679" style="stroke:#FFFFFF;stroke-width:1.0;" width="82" x="868" y="47"/><rect fill="#0B58A8" height="33.0679" style="stroke:#FFFFFF;stroke-width:1.0;" width="82" x="864" y="51"/><text fill="#FFFFFF" font-family="Verdana" font-size="14" lengthAdjust="spacing" textLength="68" x="871" y="72.9659">MongoDB</text><rect fill="#0B58A8" height="33.0679" style="stroke:#FFFFFF;stroke-width:1.0;" width="82" x="868" y="666.3642"/><rect fill="#0B58A8" height="33.0679" style="stroke:#FFFFFF;stroke-width:1.0;" width="82" x="864" y="670.3642"/><text fill="#FFFFFF" font-family="Verdana" font-size="14" lengthAdjust="spacing" textLength="68" x="871" y="692.3301">MongoDB</text><text fill="#FFFFFF" font-family="Verdana" font-size="14" lengthAdjust="spacing" textLength="79" x="970" y="80.9659">PostgreSQL</text><path d="M994.5,30 C994.5,20 1012.5,20 1012.5,20 C1012.5,20 1030.5,20 1030.5,30 L1030.5,56 C1030.5,66 1012.5,66 1012.5,66 C1012.5,66 994.5,66 994.5,56 L994.5,30 " fill="#0B58A8" style="stroke:#FFFFFF;stroke-width:1.5;"/><path d="M994.5,30 C994.5,40 1012.5,40 1012.5,40 C1012.5,40 1030.5,40 1030.5,30 " fill="none" style="stroke:#FFFFFF;stroke-width:1.5;"/><text fill="#FFFFFF" font-family="Verdana" font-size="14" lengthAdjust="spacing" textLength="79" x="970" y="681.3301">PostgreSQL</text><path d="M994.5,695.4321 C994.5,685.4321 1012.5,685.4321 1012.5,685.4321 C1012.5,685.4321 1030.5,685.4321 1030.5,695.4321 L1030.5,721.4321 C1030.5,731.4321 1012.5,731.4321 1012.5,731.4321 C1012.5,731.4321 994.5,731.4321 994.5,721.4321 L994.5,695.4321 " fill="#0B58A8" style="stroke:#FFFFFF;stroke-width:1.5;"/><path d="M994.5,695.4321 C994.5,705.4321 1012.5,705.4321 1012.5,705.4321 C1012.5,705.4321 1030.5,705.4321 1030.5,695.4321 " fill="none" style="stroke:#FFFFFF;stroke-width:1.5;"/><rect fill="#0B58A8" height="421.4722" style="stroke:#FFFFFF;stroke-width:1.0;" width="10" x="384.5" y="196.186"/><rect fill="#0B58A8" height="266.6481" style="stroke:#FFFFFF;stroke-width:1.0;" width="10" x="602.5" y="273.598"/><rect fill="#0B58A8" height="31.706" style="stroke:#FFFFFF;stroke-width:1.0;" width="10" x="802.5" y="476.8341"/><rect fill="#0B58A8" height="31.706" style="stroke:#FFFFFF;stroke-width:1.0;" width="10" x="902" y="413.4221"/><rect fill="#0B58A8" height="31.706" style="stroke:#FFFFFF;stroke-width:1.0;" width="10" x="1007.5" y="305.304"/><rect fill="#FFFFFF" height="3" style="stroke:#FFFFFF;stroke-width:1.0;" width="1055" x="5" y="116.9209"/><line style="stroke:#FFFFFF;stroke-width:0.5;" x1="5" x2="1060" y1="116.9209" y2="116.9209"/><line style="stroke:#FFFFFF;stroke-width:0.5;" x1="5" x2="1060" y1="119.9209" y2="119.9209"/><rect fill="#FFFFFF" height="25.706" style="stroke:#FFFFFF;stroke-width:1.0;" width="150.3125" x="457.3438" y="105.0679"/><text fill="#0B58A8" font-family="Verdana" font-size="13" font-weight="bold" lengthAdjust="spacing" textLength="133.3125" x="463.3438" y="122.9649">Interação do usuário</text><polygon fill="#FFFFFF" points="165.5,160.4799,175.5,164.4799,165.5,168.4799,169.5,164.4799" style="stroke:#FFFFFF;stroke-width:1.0;"/><line style="stroke:#FFFFFF;stroke-width:1.0;" x1="37.5" x2="171.5" y1="164.4799" y2="164.4799"/><text fill="#FFFFFF" font-family="Verdana" font-size="13" lengthAdjust="spacing" textLength="116" x="44.5" y="158.6709">Realização de login</text><polygon fill="#FFFFFF" points="372.5,192.186,382.5,196.186,372.5,200.186,376.5,196.186" style="stroke:#FFFFFF;stroke-width:1.0;"/><line style="stroke:#FFFFFF;stroke-width:1.0;" x1="177.5" x2="378.5" y1="196.186" y2="196.186"/><text fill="#FFFFFF" font-family="Verdana" font-size="13" lengthAdjust="spacing" textLength="164" x="184.5" y="190.377">Requisição de autenticação</text><rect fill="#FFFFFF" height="3" style="stroke:#FFFFFF;stroke-width:1.0;" width="1055" x="5" y="226.039"/><line style="stroke:#FFFFFF;stroke-width:0.5;" x1="5" x2="1060" y1="226.039" y2="226.039"/><line style="stroke:#FFFFFF;stroke-width:0.5;" x1="5" x2="1060" y1="229.039" y2="229.039"/><rect fill="#FFFFFF" height="25.706" style="stroke:#FFFFFF;stroke-width:1.0;" width="132.0938" x="466.4531" y="214.186"/><text fill="#0B58A8" font-family="Verdana" font-size="13" font-weight="bold" lengthAdjust="spacing" textLength="115.0938" x="472.4531" y="232.083">Criação da sessão</text><polygon fill="#FFFFFF" points="590.5,269.598,600.5,273.598,590.5,277.598,594.5,273.598" style="stroke:#FFFFFF;stroke-width:1.0;"/><line style="stroke:#FFFFFF;stroke-width:1.0;" x1="394.5" x2="596.5" y1="273.598" y2="273.598"/><text fill="#FFFFFF" font-family="Verdana" font-size="13" lengthAdjust="spacing" textLength="189" x="401.5" y="267.789">Requisição de token de sessão</text><polygon fill="#FFFFFF" points="995.5,301.304,1005.5,305.304,995.5,309.304,999.5,305.304" style="stroke:#FFFFFF;stroke-width:1.0;"/><line style="stroke:#FFFFFF;stroke-width:1.0;" x1="612.5" x2="1001.5" y1="305.304" y2="305.304"/><text fill="#FFFFFF" font-family="Verdana" font-size="13" lengthAdjust="spacing" textLength="194" x="619.5" y="299.495">Requisição de dados de usuário</text><polygon fill="#FFFFFF" points="623.5,333.01,613.5,337.01,623.5,341.01,619.5,337.01" style="stroke:#FFFFFF;stroke-width:1.0;"/><line style="stroke:#FFFFFF;stroke-width:1.0;stroke-dasharray:2.0,2.0;" x1="617.5" x2="1011.5" y1="337.01" y2="337.01"/><text fill="#FFFFFF" font-family="Verdana" font-size="13" lengthAdjust="spacing" textLength="107" x="629.5" y="331.201">Dados do usuário</text><line style="stroke:#FFFFFF;stroke-width:1.0;" x1="612.5" x2="654.5" y1="368.716" y2="368.716"/><line style="stroke:#FFFFFF;stroke-width:1.0;" x1="654.5" x2="654.5" y1="368.716" y2="381.716"/><line style="stroke:#FFFFFF;stroke-width:1.0;" x1="613.5" x2="654.5" y1="381.716" y2="381.716"/><polygon fill="#FFFFFF" points="623.5,377.716,613.5,381.716,623.5,385.716,619.5,381.716" style="stroke:#FFFFFF;stroke-width:1.0;"/><text fill="#FFFFFF" font-family="Verdana" font-size="13" lengthAdjust="spacing" textLength="176" x="619.5" y="362.907">Validação dos dados de login</text><polygon fill="#FFFFFF" points="890,409.4221,900,413.4221,890,417.4221,894,413.4221" style="stroke:#FFFFFF;stroke-width:1.0;"/><line style="stroke:#FFFFFF;stroke-width:1.0;" x1="612.5" x2="896" y1="413.4221" y2="413.4221"/><text fill="#FFFFFF" font-family="Verdana" font-size="13" lengthAdjust="spacing" textLength="195" x="619.5" y="407.6131">Requisição de criação da sessão</text><polygon fill="#FFFFFF" points="623.5,441.1281,613.5,445.1281,623.5,449.1281,619.5,445.1281" style="stroke:#FFFFFF;stroke-width:1.0;"/><line style="stroke:#FFFFFF;stroke-width:1.0;stroke-dasharray:2.0,2.0;" x1="617.5" x2="906" y1="445.1281" y2="445.1281"/><text fill="#FFFFFF" font-family="Verdana" font-size="13" lengthAdjust="spacing" textLength="79" x="629.5" y="439.3191">ID da sessão</text><polygon fill="#FFFFFF" points="790.5,472.8341,800.5,476.8341,790.5,480.8341,794.5,476.8341" style="stroke:#FFFFFF;stroke-width:1.0;"/><line style="stroke:#FFFFFF;stroke-width:1.0;" x1="612.5" x2="796.5" y1="476.8341" y2="476.8341"/><text fill="#FFFFFF" font-family="Verdana" font-size="13" lengthAdjust="spacing" textLength="149" x="619.5" y="471.0251">Salva a sessão em cache</text><polygon fill="#FFFFFF" points="623.5,504.5401,613.5,508.5401,623.5,512.5401,619.5,508.5401" style="stroke:#FFFFFF;stroke-width:1.0;"/><line style="stroke:#FFFFFF;stroke-width:1.0;stroke-dasharray:2.0,2.0;" x1="617.5" x2="806.5" y1="508.5401" y2="508.5401"/><text fill="#FFFFFF" font-family="Verdana" font-size="13" lengthAdjust="spacing" textLength="52" x="629.5" y="502.7311">Sucesso</text><polygon fill="#FFFFFF" points="405.5,536.2461,395.5,540.2461,405.5,544.2461,401.5,540.2461" style="stroke:#FFFFFF;stroke-width:1.0;"/><line style="stroke:#FFFFFF;stroke-width:1.0;stroke-dasharray:2.0,2.0;" x1="399.5" x2="606.5" y1="540.2461" y2="540.2461"/><text fill="#FFFFFF" font-family="Verdana" font-size="13" lengthAdjust="spacing" textLength="105" x="411.5" y="534.4371">Token da sessão</text><rect fill="#FFFFFF" height="3" style="stroke:#FFFFFF;stroke-width:1.0;" width="1055" x="5" y="570.0991"/><line style="stroke:#FFFFFF;stroke-width:0.5;" x1="5" x2="1060" y1="570.0991" y2="570.0991"/><line style="stroke:#FFFFFF;stroke-width:0.5;" x1="5" x2="1060" y1="573.0991" y2="573.0991"/><rect fill="#FFFFFF" height="25.706" style="stroke:#FFFFFF;stroke-width:1.0;" width="112.875" x="476.0625" y="558.2461"/><text fill="#0B58A8" font-family="Verdana" font-size="13" font-weight="bold" lengthAdjust="spacing" textLength="95.875" x="482.0625" y="576.1431">Retorno da API</text><polygon fill="#FFFFFF" points="188.5,613.6582,178.5,617.6582,188.5,621.6582,184.5,617.6582" style="stroke:#FFFFFF;stroke-width:1.0;"/><line style="stroke:#FFFFFF;stroke-width:1.0;stroke-dasharray:2.0,2.0;" x1="182.5" x2="388.5" y1="617.6582" y2="617.6582"/><text fill="#FFFFFF" font-family="Verdana" font-size="13" lengthAdjust="spacing" textLength="183" x="194.5" y="611.8492">Resposta com token + cookies</text><polygon fill="#FFFFFF" points="48.5,645.3642,38.5,649.3642,48.5,653.3642,44.5,649.3642" style="stroke:#FFFFFF;stroke-width:1.0;"/><line style="stroke:#FFFFFF;stroke-width:1.0;stroke-dasharray:2.0,2.0;" x1="42.5" x2="176.5" y1="649.3642" y2="649.3642"/><text fill="#FFFFFF" font-family="Verdana" font-size="13" lengthAdjust="spacing" textLength="111" x="54.5" y="643.5552">Redirecionamento</text></g></svg>