<?xml version="1.0" encoding="UTF-8" standalone="no"?><svg xmlns="http://www.w3.org/2000/svg" xmlns:xlink="http://www.w3.org/1999/xlink" contentStyleType="text/css" height="209px" preserveAspectRatio="none" style="width:688px;height:209px;background:#0B58A8;" version="1.1" viewBox="0 0 688 209" width="688px" zoomAndPan="magnify"><defs/><g><!--MD5=[129562b4cd34f44084745b6bef301771]
cluster REPORT--><g id="cluster_REPORT"><path d="M184.5,13.946 L272.625,13.946 A3.75,3.75 0 0 1 275.125,16.446 L282.125,49.9101 L678.5,49.9101 A2.5,2.5 0 0 1 681,52.4101 L681,200.446 A2.5,2.5 0 0 1 678.5,202.946 L184.5,202.946 A2.5,2.5 0 0 1 182,200.446 L182,16.446 A2.5,2.5 0 0 1 184.5,13.946 " fill="#0B58A8" style="stroke:#FFFFFF;stroke-width:1.0;"/><line style="stroke:#FFFFFF;stroke-width:1.0;" x1="182" x2="282.125" y1="49.9101" y2="49.9101"/><text fill="#FFFFFF" font-family="Verdana" font-size="22" font-weight="bold" lengthAdjust="spacing" textLength="87.125" x="186" y="39.4641">REPORT</text></g><g id="elem_obter_dados"><ellipse cx="300.5347" cy="84.853" fill="#0B58A8" rx="102.5347" ry="22.9069" style="stroke:#FFFFFF;stroke-width:1.0;"/><text fill="#FFFFFF" font-family="Verdana" font-size="14" lengthAdjust="spacing" textLength="161" x="217.0347" y="89.5859">obter dados do relatório</text></g><g id="elem_emitir_pdf"><ellipse cx="300.379" cy="165.0218" fill="#0B58A8" rx="98.379" ry="22.0758" style="stroke:#FFFFFF;stroke-width:1.0;"/><text fill="#FFFFFF" font-family="Verdana" font-size="14" lengthAdjust="spacing" textLength="151" x="221.879" y="169.7548">emitir PDF do relatório</text></g><g id="elem_must_have_session"><path d="M463,102.446 L463,147.8581 L665,147.8581 L665,112.446 L655,102.446 L463,102.446 " fill="#0B58A8" style="stroke:#FFFFFF;stroke-width:1.0;"/><path d="M655,102.446 L655,112.446 L665,112.446 L655,102.446 " fill="#0B58A8" style="stroke:#FFFFFF;stroke-width:1.0;"/><text fill="#FFFFFF" font-family="Verdana" font-size="13" lengthAdjust="spacing" textLength="174" x="469" y="121.343">O usuário deverá ter iniciado</text><text fill="#FFFFFF" font-family="Verdana" font-size="13" lengthAdjust="spacing" textLength="181" x="469" y="139.0491">uma sessão para estes casos.</text></g><!--MD5=[8fc3522a43f8c7199df5e09e5bb0188e]
entity user--><g id="elem_user"><ellipse cx="74.5" cy="93.946" fill="#0B58A8" rx="8" ry="8" style="stroke:#FFFFFF;stroke-width:1.0;"/><path d="M74.5,101.946 L74.5,128.946 M61.5,109.946 L87.5,109.946 M74.5,128.946 L61.5,143.946 M74.5,128.946 L87.5,143.946 " fill="none" style="stroke:#FFFFFF;stroke-width:1.0;"/><text fill="#FFFFFF" font-family="Verdana" font-size="14" lengthAdjust="spacing" textLength="127" x="11" y="160.912">Usuário do Sistema</text></g><!--MD5=[63da69bc6580fc01055f9e3436187f57]
link obter_dados to must_have_session--><g id="link_obter_dados_must_have_session"><path d="M386.04,97.876 C410.51,101.616 437.46,105.746 462.79,109.616 " fill="none" id="obter_dados-must_have_session" style="stroke:#FFFFFF;stroke-width:1.0;stroke-dasharray:7.0,7.0;"/></g><!--MD5=[517646f90c4fdda2f00d8936548783b8]
link emitir_pdf to must_have_session--><g id="link_emitir_pdf_must_have_session"><path d="M382.81,152.506 C408.14,148.636 436.39,144.316 462.86,140.266 " fill="none" id="emitir_pdf-must_have_session" style="stroke:#FFFFFF;stroke-width:1.0;stroke-dasharray:7.0,7.0;"/></g><!--MD5=[dd19c29a354d2ed3522c32f7c8aa79e8]
link user to obter_dados--><g id="link_user_obter_dados"><path d="M138.49,113.696 C163.6,109.216 192.79,103.996 219.37,99.256 " fill="none" id="user-obter_dados" style="stroke:#FFFFFF;stroke-width:1.0;"/></g><!--MD5=[28ba30f365db92d84ea77d51e5df999b]
link user to emitir_pdf--><g id="link_user_emitir_pdf"><path d="M138.49,136.196 C164.63,140.866 195.21,146.326 222.65,151.226 " fill="none" id="user-emitir_pdf" style="stroke:#FFFFFF;stroke-width:1.0;"/></g></g></svg>