<?xml version="1.0" encoding="UTF-8" standalone="no"?><svg xmlns="http://www.w3.org/2000/svg" xmlns:xlink="http://www.w3.org/1999/xlink" contentStyleType="text/css" height="394px" preserveAspectRatio="none" style="width:597px;height:394px;background:#0B58A8;" version="1.1" viewBox="0 0 597 394" width="597px" zoomAndPan="magnify"><defs/><g><!--MD5=[cd85bc0d861b7cbc5f4f54af7c2208e8]
cluster PRODUCTS--><g id="cluster_PRODUCTS"><path d="M184.5,13.946 L306,13.946 A3.75,3.75 0 0 1 308.5,16.446 L315.5,49.9101 L587.5,49.9101 A2.5,2.5 0 0 1 590,52.4101 L590,385.446 A2.5,2.5 0 0 1 587.5,387.946 L184.5,387.946 A2.5,2.5 0 0 1 182,385.446 L182,16.446 A2.5,2.5 0 0 1 184.5,13.946 " fill="#0B58A8" style="stroke:#FFFFFF;stroke-width:1.0;"/><line style="stroke:#FFFFFF;stroke-width:1.0;" x1="182" x2="315.5" y1="49.9101" y2="49.9101"/><text fill="#FFFFFF" font-family="Verdana" font-size="22" font-weight="bold" lengthAdjust="spacing" textLength="120.5" x="186" y="39.4641">PRODUCTS</text></g><g id="elem_cadastro"><ellipse cx="255.0503" cy="78.8521" fill="#0B58A8" rx="54.0503" ry="16.906" style="stroke:#FFFFFF;stroke-width:1.0;"/><text fill="#FFFFFF" font-family="Verdana" font-size="14" lengthAdjust="spacing" textLength="58" x="223.0503" y="83.585">cadastro</text></g><g id="elem_listagem"><ellipse cx="255.038" cy="147.837" fill="#0B58A8" rx="52.538" ry="16.891" style="stroke:#FFFFFF;stroke-width:1.0;"/><text fill="#FFFFFF" font-family="Verdana" font-size="14" lengthAdjust="spacing" textLength="56" x="224.038" y="152.57">listagem</text></g><g id="elem_consulta"><ellipse cx="255.038" cy="216.837" fill="#0B58A8" rx="52.538" ry="16.891" style="stroke:#FFFFFF;stroke-width:1.0;"/><text fill="#FFFFFF" font-family="Verdana" font-size="14" lengthAdjust="spacing" textLength="56" x="224.038" y="221.57">consulta</text></g><g id="elem_alteracao"><ellipse cx="255.0751" cy="285.8798" fill="#0B58A8" rx="57.0751" ry="16.9338" style="stroke:#FFFFFF;stroke-width:1.0;"/><text fill="#FFFFFF" font-family="Verdana" font-size="14" lengthAdjust="spacing" textLength="62" x="221.0751" y="290.6128">alteração</text></g><g id="elem_remocao"><ellipse cx="254.8065" cy="354.8593" fill="#0B58A8" rx="54.8065" ry="16.9133" style="stroke:#FFFFFF;stroke-width:1.0;"/><text fill="#FFFFFF" font-family="Verdana" font-size="14" lengthAdjust="spacing" textLength="59" x="222.3065" y="359.5923">remoção</text></g><g id="elem_must_have_session"><path d="M372,194.446 L372,239.8581 L574,239.8581 L574,204.446 L564,194.446 L372,194.446 " fill="#0B58A8" style="stroke:#FFFFFF;stroke-width:1.0;"/><path d="M564,194.446 L564,204.446 L574,204.446 L564,194.446 " fill="#0B58A8" style="stroke:#FFFFFF;stroke-width:1.0;"/><text fill="#FFFFFF" font-family="Verdana" font-size="13" lengthAdjust="spacing" textLength="174" x="378" y="213.343">O usuário deverá ter iniciado</text><text fill="#FFFFFF" font-family="Verdana" font-size="13" lengthAdjust="spacing" textLength="181" x="378" y="231.0491">uma sessão para estes casos.</text></g><!--MD5=[8fc3522a43f8c7199df5e09e5bb0188e]
entity user--><g id="elem_user"><ellipse cx="74.5" cy="185.946" fill="#0B58A8" rx="8" ry="8" style="stroke:#FFFFFF;stroke-width:1.0;"/><path d="M74.5,193.946 L74.5,220.946 M61.5,201.946 L87.5,201.946 M74.5,220.946 L61.5,235.946 M74.5,220.946 L87.5,235.946 " fill="none" style="stroke:#FFFFFF;stroke-width:1.0;"/><text fill="#FFFFFF" font-family="Verdana" font-size="14" lengthAdjust="spacing" textLength="127" x="11" y="252.912">Usuário do Sistema</text></g><!--MD5=[f931e4a3fd4c9c309e5f766de67f983a]
link cadastro to must_have_session--><g id="link_cadastro_must_have_session"><path d="M281.47,94.186 C291.08,99.996 302.08,106.716 312,112.946 C355.62,140.356 405.28,172.836 437.55,194.116 " fill="none" id="cadastro-must_have_session" style="stroke:#FFFFFF;stroke-width:1.0;stroke-dasharray:7.0,7.0;"/></g><!--MD5=[97ecbbcbc6f439a7f75a5c9091f490a5]
link listagem to must_have_session--><g id="link_listagem_must_have_session"><path d="M293.13,159.806 C322.44,169.166 364.22,182.516 400.03,193.956 " fill="none" id="listagem-must_have_session" style="stroke:#FFFFFF;stroke-width:1.0;stroke-dasharray:7.0,7.0;"/></g><!--MD5=[c8fc87e398d8eeaa031e4fc389bcc721]
link consulta to must_have_session--><g id="link_consulta_must_have_session"><path d="M307.74,216.946 C326.96,216.946 349.48,216.946 371.57,216.946 " fill="none" id="consulta-must_have_session" style="stroke:#FFFFFF;stroke-width:1.0;stroke-dasharray:7.0,7.0;"/></g><!--MD5=[7fb8249ef2a9e182ff6a95946e42918f]
link alteracao to must_have_session--><g id="link_alteracao_must_have_session"><path d="M295.12,273.446 C324.42,264.096 365.32,251.026 400.42,239.816 " fill="none" id="alteracao-must_have_session" style="stroke:#FFFFFF;stroke-width:1.0;stroke-dasharray:7.0,7.0;"/></g><!--MD5=[efcca4dc052ec630cf5c812d01177ca0]
link remocao to must_have_session--><g id="link_remocao_must_have_session"><path d="M280.86,339.506 C290.59,333.436 301.83,326.396 312,319.946 C355.1,292.606 404.45,260.746 436.81,239.786 " fill="none" id="remocao-must_have_session" style="stroke:#FFFFFF;stroke-width:1.0;stroke-dasharray:7.0,7.0;"/></g><!--MD5=[88f8b235c40594211c279de3998bab2c]
link user to cadastro--><g id="link_user_cadastro"><path d="M106.86,176.546 C124.77,155.496 148.68,130.536 174,112.946 C186.89,103.986 202.51,96.696 216.51,91.196 " fill="none" id="user-cadastro" style="stroke:#FFFFFF;stroke-width:1.0;"/></g><!--MD5=[21b019fec7d9d50c4d2460b9efe77e58]
link user to listagem--><g id="link_user_listagem"><path d="M138.43,192.616 C165.93,181.986 197.1,169.946 220.13,161.036 " fill="none" id="user-listagem" style="stroke:#FFFFFF;stroke-width:1.0;"/></g><!--MD5=[10846f423dcbea91cb47bb990d8045cc]
link user to consulta--><g id="link_user_consulta"><path d="M138.43,216.946 C159.31,216.946 182.3,216.946 202.24,216.946 " fill="none" id="user-consulta" style="stroke:#FFFFFF;stroke-width:1.0;"/></g><!--MD5=[7d9373872fca034ba31d25ae36c141e5]
link user to alteracao--><g id="link_user_alteracao"><path d="M138.43,241.276 C165.43,251.706 195.96,263.516 218.86,272.366 " fill="none" id="user-alteracao" style="stroke:#FFFFFF;stroke-width:1.0;"/></g><!--MD5=[a1ce6599154145c3e650ffae0659ede5]
link user to remocao--><g id="link_user_remocao"><path d="M107.44,257.346 C125.34,278.056 149.06,302.506 174,319.946 C187.05,329.066 202.85,336.596 216.95,342.296 " fill="none" id="user-remocao" style="stroke:#FFFFFF;stroke-width:1.0;"/></g></g></svg>