<?xml version="1.0" encoding="UTF-8" standalone="no"?><svg xmlns="http://www.w3.org/2000/svg" xmlns:xlink="http://www.w3.org/1999/xlink" contentStyleType="text/css" height="210px" preserveAspectRatio="none" style="width:635px;height:210px;background:#0B58A8;" version="1.1" viewBox="0 0 635 210" width="635px" zoomAndPan="magnify"><defs/><g><!--MD5=[37e47452c14582161194149d6cab18c6]
cluster AUDIT--><g id="cluster_AUDIT"><path d="M184.5,13.946 L256.9375,13.946 A3.75,3.75 0 0 1 259.4375,16.446 L266.4375,49.9101 L625.5,49.9101 A2.5,2.5 0 0 1 628,52.4101 L628,201.446 A2.5,2.5 0 0 1 625.5,203.946 L184.5,203.946 A2.5,2.5 0 0 1 182,201.446 L182,16.446 A2.5,2.5 0 0 1 184.5,13.946 " fill="#0B58A8" style="stroke:#FFFFFF;stroke-width:1.0;"/><line style="stroke:#FFFFFF;stroke-width:1.0;" x1="182" x2="266.4375" y1="49.9101" y2="49.9101"/><text fill="#FFFFFF" font-family="Verdana" font-size="22" font-weight="bold" lengthAdjust="spacing" textLength="71.4375" x="186" y="39.4641">AUDIT</text></g><g id="elem_auditoria_consultalogs"><ellipse cx="274.0473" cy="125.0555" fill="#0B58A8" rx="76.0473" ry="17.6095" style="stroke:#FFFFFF;stroke-width:1.0;"/><text fill="#FFFFFF" font-family="Verdana" font-size="14" lengthAdjust="spacing" textLength="92" x="225.0473" y="129.7884">consultar logs</text></g><g id="elem_must_have_session"><path d="M410,142.446 L410,143.856 L335.52,135.246 L410,151.856 L410,187.8581 A0,0 0 0 0 410,187.8581 L612,187.8581 A0,0 0 0 0 612,187.8581 L612,152.446 L602,142.446 L410,142.446 A0,0 0 0 0 410,142.446 " fill="#0B58A8" style="stroke:#FFFFFF;stroke-width:1.0;"/><path d="M602,142.446 L602,152.446 L612,152.446 L602,142.446 " fill="#0B58A8" style="stroke:#FFFFFF;stroke-width:1.0;"/><text fill="#FFFFFF" font-family="Verdana" font-size="13" lengthAdjust="spacing" textLength="174" x="416" y="161.343">O usuário deverá ter iniciado</text><text fill="#FFFFFF" font-family="Verdana" font-size="13" lengthAdjust="spacing" textLength="181" x="416" y="179.0491">uma sessão para estes casos.</text></g><g id="elem_GMN6"><path d="M410.5,62.446 L410.5,97.886 L335.52,114.646 L410.5,105.886 L410.5,107.8581 A0,0 0 0 0 410.5,107.8581 L611.5,107.8581 A0,0 0 0 0 611.5,107.8581 L611.5,72.446 L601.5,62.446 L410.5,62.446 A0,0 0 0 0 410.5,62.446 " fill="#0B58A8" style="stroke:#FFFFFF;stroke-width:1.0;"/><path d="M601.5,62.446 L601.5,72.446 L611.5,72.446 L601.5,62.446 " fill="#0B58A8" style="stroke:#FFFFFF;stroke-width:1.0;"/><text fill="#FFFFFF" font-family="Verdana" font-size="13" lengthAdjust="spacing" textLength="180" x="416.5" y="81.343">O usuário deve ter permissão</text><text fill="#FFFFFF" font-family="Verdana" font-size="13" lengthAdjust="spacing" textLength="136" x="416.5" y="99.0491">para consultar os logs.</text></g><!--MD5=[8fc3522a43f8c7199df5e09e5bb0188e]
entity user--><g id="elem_user"><ellipse cx="74.5" cy="93.946" fill="#0B58A8" rx="8" ry="8" style="stroke:#FFFFFF;stroke-width:1.0;"/><path d="M74.5,101.946 L74.5,128.946 M61.5,109.946 L87.5,109.946 M74.5,128.946 L61.5,143.946 M74.5,128.946 L87.5,143.946 " fill="none" style="stroke:#FFFFFF;stroke-width:1.0;"/><text fill="#FFFFFF" font-family="Verdana" font-size="14" lengthAdjust="spacing" textLength="127" x="11" y="160.912">Usuário do Sistema</text></g><!--MD5=[4be4b6fbbd531e73076fe84dc301b074]
link user to auditoria_consultalogs--><g id="link_user_auditoria_consultalogs"><path d="M138.26,124.946 C157.24,124.946 178.27,124.946 197.96,124.946 " fill="none" id="user-auditoria_consultalogs" style="stroke:#FFFFFF;stroke-width:1.0;"/></g></g></svg>