<?xml version="1.0" encoding="UTF-8" standalone="no"?><svg xmlns="http://www.w3.org/2000/svg" xmlns:xlink="http://www.w3.org/1999/xlink" contentStyleType="text/css" height="583px" preserveAspectRatio="none" style="width:792px;height:583px;background:#0B58A8;" version="1.1" viewBox="0 0 792 583" width="792px" zoomAndPan="magnify"><defs/><g><!--MD5=[6678b9076d3dd6df21c7464ddf37bae0]
cluster STOCK--><g id="cluster_STOCK"><path d="M246.5,13.946 L320.9375,13.946 A3.75,3.75 0 0 1 323.4375,16.446 L330.4375,49.9101 L782.5,49.9101 A2.5,2.5 0 0 1 785,52.4101 L785,574.446 A2.5,2.5 0 0 1 782.5,576.946 L246.5,576.946 A2.5,2.5 0 0 1 244,574.446 L244,16.446 A2.5,2.5 0 0 1 246.5,13.946 " fill="#0B58A8" style="stroke:#FFFFFF;stroke-width:1.0;"/><line style="stroke:#FFFFFF;stroke-width:1.0;" x1="244" x2="330.4375" y1="49.9101" y2="49.9101"/><text fill="#FFFFFF" font-family="Verdana" font-size="22" font-weight="bold" lengthAdjust="spacing" textLength="73.4375" x="248" y="39.4641">STOCK</text></g><g id="elem_inicio"><ellipse cx="373.2318" cy="80.8924" fill="#0B58A8" rx="82.7318" ry="18.9464" style="stroke:#FFFFFF;stroke-width:1.0;"/><text fill="#FFFFFF" font-family="Verdana" font-size="14" lengthAdjust="spacing" textLength="111" x="314.7318" y="85.6253">início de estoque</text></g><g id="elem_movimentacao"><ellipse cx="372.9397" cy="172.034" fill="#0B58A8" rx="78.4397" ry="18.0879" style="stroke:#FFFFFF;stroke-width:1.0;"/><text fill="#FFFFFF" font-family="Verdana" font-size="14" lengthAdjust="spacing" textLength="99" x="320.4397" y="176.7669">movimentação</text></g><g id="elem_entrada"><ellipse cx="372.7578" cy="474.7953" fill="#0B58A8" rx="48.7578" ry="16.8493" style="stroke:#FFFFFF;stroke-width:1.0;"/><text fill="#FFFFFF" font-family="Verdana" font-size="14" lengthAdjust="spacing" textLength="51" x="344.2578" y="479.5283">entrada</text></g><g id="elem_saida"><ellipse cx="372.9124" cy="544.0889" fill="#0B58A8" rx="35.9124" ry="16.6428" style="stroke:#FFFFFF;stroke-width:1.0;"/><text fill="#FFFFFF" font-family="Verdana" font-size="14" lengthAdjust="spacing" textLength="34" x="352.9124" y="548.8218">saída</text></g><g id="elem_consulta"><ellipse cx="373.038" cy="326.837" fill="#0B58A8" rx="52.538" ry="16.891" style="stroke:#FFFFFF;stroke-width:1.0;"/><text fill="#FFFFFF" font-family="Verdana" font-size="14" lengthAdjust="spacing" textLength="56" x="342.038" y="331.57">consulta</text></g><g id="elem_listagem"><ellipse cx="372.808" cy="400.7076" fill="#0B58A8" rx="94.308" ry="21.2616" style="stroke:#FFFFFF;stroke-width:1.0;"/><text fill="#FFFFFF" font-family="Verdana" font-size="14" lengthAdjust="spacing" textLength="141" x="299.308" y="405.4406">listagem de estoques</text></g><g id="elem_listagem_movimentos"><ellipse cx="373.2311" cy="249.9922" fill="#0B58A8" rx="113.2311" ry="25.0462" style="stroke:#FFFFFF;stroke-width:1.0;"/><text fill="#FFFFFF" font-family="Verdana" font-size="14" lengthAdjust="spacing" textLength="186" x="277.2311" y="254.7252">listagem de movimentações</text></g><g id="elem_must_have_session"><path d="M557,354.446 L557,399.8581 L759,399.8581 L759,364.446 L749,354.446 L557,354.446 " fill="#0B58A8" style="stroke:#FFFFFF;stroke-width:1.0;"/><path d="M749,354.446 L749,364.446 L759,364.446 L749,354.446 " fill="#0B58A8" style="stroke:#FFFFFF;stroke-width:1.0;"/><text fill="#FFFFFF" font-family="Verdana" font-size="13" lengthAdjust="spacing" textLength="174" x="563" y="373.343">O usuário deverá ter iniciado</text><text fill="#FFFFFF" font-family="Verdana" font-size="13" lengthAdjust="spacing" textLength="181" x="563" y="391.0491">uma sessão para estes casos.</text></g><g id="elem_product_must_exist"><path d="M547,188.446 L547,233.8581 L769,233.8581 L769,198.446 L759,188.446 L547,188.446 " fill="#0B58A8" style="stroke:#FFFFFF;stroke-width:1.0;"/><path d="M759,188.446 L759,198.446 L769,198.446 L759,188.446 " fill="#0B58A8" style="stroke:#FFFFFF;stroke-width:1.0;"/><text fill="#FFFFFF" font-family="Verdana" font-size="13" lengthAdjust="spacing" textLength="151" x="553" y="207.343">Para validar esses casos,</text><text fill="#FFFFFF" font-family="Verdana" font-size="13" lengthAdjust="spacing" textLength="201" x="553" y="225.0491">o produto associado deve existir.</text></g><!--MD5=[8fc3522a43f8c7199df5e09e5bb0188e]
entity user--><g id="elem_user"><ellipse cx="74.5" cy="332.946" fill="#0B58A8" rx="8" ry="8" style="stroke:#FFFFFF;stroke-width:1.0;"/><path d="M74.5,340.946 L74.5,367.946 M61.5,348.946 L87.5,348.946 M74.5,367.946 L61.5,382.946 M74.5,367.946 L87.5,382.946 " fill="none" style="stroke:#FFFFFF;stroke-width:1.0;"/><text fill="#FFFFFF" font-family="Verdana" font-size="14" lengthAdjust="spacing" textLength="127" x="11" y="399.912">Usuário do Sistema</text></g><!--MD5=[9067387e38125a4b18c74b3fc1b63a01]
link movimentacao to inicio--><g id="link_movimentacao_inicio"><path d="M373,153.526 C373,139.656 373,120.496 373,105.346 " fill="none" id="movimentacao-to-inicio" style="stroke:#FFFFFF;stroke-width:1.0;stroke-dasharray:7.0,7.0;"/><polygon fill="#FFFFFF" points="373,99.956,369,108.956,373,104.956,377,108.956,373,99.956" style="stroke:#FFFFFF;stroke-width:1.0;"/><text fill="#FFFFFF" font-family="Verdana" font-size="13" lengthAdjust="spacing" textLength="57" x="332" y="132.343">«extend»</text></g><!--MD5=[1d008bc2e27d9d6e1d3ce026798199f8]
link entrada to movimentacao--><g id="link_entrada_movimentacao"><path d="M324.16,472.856 C295.61,469.296 260.49,460.606 236,439.946 C206.8,415.316 208.95,398.806 201,361.446 C188.97,304.946 196.2,246.646 236,206.946 C251.05,191.936 271.58,183.076 292.17,177.926 " fill="none" id="entrada-to-movimentacao" style="stroke:#FFFFFF;stroke-width:1.0;stroke-dasharray:7.0,7.0;"/><polygon fill="#FFFFFF" points="297.12,176.756,287.438,174.9507,292.2561,177.9148,289.292,182.7329,297.12,176.756" style="stroke:#FFFFFF;stroke-width:1.0;"/><text fill="#FFFFFF" font-family="Verdana" font-size="13" lengthAdjust="spacing" textLength="58" x="169" y="357.343">«include»</text></g><!--MD5=[1241dbcbe0b3cbe3e85a3a4d0c6954aa]
link saida to movimentacao--><g id="link_saida_movimentacao"><path d="M336.78,544.506 C306.03,543.006 262.74,535.876 236,509.946 C194.74,469.936 208.85,442.386 201,385.446 C191.58,317.146 203.54,240.536 236,206.946 C250.77,191.666 271.21,182.716 291.8,177.566 " fill="none" id="saida-to-movimentacao" style="stroke:#FFFFFF;stroke-width:1.0;stroke-dasharray:7.0,7.0;"/><polygon fill="#FFFFFF" points="296.76,176.396,287.0831,174.5637,291.8929,177.5412,288.9154,182.351,296.76,176.396" style="stroke:#FFFFFF;stroke-width:1.0;"/><text fill="#FFFFFF" font-family="Verdana" font-size="13" lengthAdjust="spacing" textLength="58" x="169" y="381.343">«include»</text></g><!--MD5=[c91096a542abf0d8a231cc4b1dba857c]
link inicio to must_have_session--><g id="link_inicio_must_have_session"><path d="M421.38,96.496 C443.06,105.416 467.88,118.386 486,135.946 C527.54,176.216 514.2,203.286 547,250.946 C573.67,289.696 610.63,329.866 634.18,354.136 " fill="none" id="inicio-must_have_session" style="stroke:#FFFFFF;stroke-width:1.0;stroke-dasharray:7.0,7.0;"/></g><!--MD5=[b1b28ea7fc05544a8eff4ce1f0e6a631]
link entrada to must_have_session--><g id="link_entrada_must_have_session"><path d="M410.72,463.976 C432.66,457.296 461.02,448.446 486,439.946 C523.44,427.206 565.09,411.886 597.91,399.546 " fill="none" id="entrada-must_have_session" style="stroke:#FFFFFF;stroke-width:1.0;stroke-dasharray:7.0,7.0;"/></g><!--MD5=[a5bac4eab1910fb7cce9ea073cf2222d]
link saida to must_have_session--><g id="link_saida_must_have_session"><path d="M406.59,537.386 C429.61,531.976 460.74,523.026 486,509.946 C544.28,479.766 602.56,428.936 633.76,399.626 " fill="none" id="saida-must_have_session" style="stroke:#FFFFFF;stroke-width:1.0;stroke-dasharray:7.0,7.0;"/></g><!--MD5=[c8fc87e398d8eeaa031e4fc389bcc721]
link consulta to must_have_session--><g id="link_consulta_must_have_session"><path d="M419.47,334.976 C456.42,341.506 509.92,350.956 556.79,359.236 " fill="none" id="consulta-must_have_session" style="stroke:#FFFFFF;stroke-width:1.0;stroke-dasharray:7.0,7.0;"/></g><!--MD5=[97ecbbcbc6f439a7f75a5c9091f490a5]
link listagem to must_have_session--><g id="link_listagem_must_have_session"><path d="M461.99,393.486 C492.09,390.936 525.98,388.056 556.96,385.426 " fill="none" id="listagem-must_have_session" style="stroke:#FFFFFF;stroke-width:1.0;stroke-dasharray:7.0,7.0;"/></g><!--MD5=[1ed20bda3b0c0a9f4ee446f446515264]
link listagem_movimentos to must_have_session--><g id="link_listagem_movimentos_must_have_session"><path d="M440.18,270.086 C455.74,276.076 471.89,283.376 486,291.946 C501.33,301.256 500.82,309.396 516,318.946 C538.52,333.106 565.08,345.096 589.05,354.426 " fill="none" id="listagem_movimentos-must_have_session" style="stroke:#FFFFFF;stroke-width:1.0;stroke-dasharray:7.0,7.0;"/></g><!--MD5=[1ca0aaf3869d71c30c9594bfe173f9dd]
link inicio to product_must_exist--><g id="link_inicio_product_must_exist"><path d="M411,97.946 C461.34,121.066 551.55,162.506 607.62,188.266 " fill="none" id="inicio-product_must_exist" style="stroke:#FFFFFF;stroke-width:1.0;stroke-dasharray:7.0,7.0;"/></g><!--MD5=[f18c504058dc3f31e5ba8f8a27582d3b]
link movimentacao to product_must_exist--><g id="link_movimentacao_product_must_exist"><path d="M440.71,181.136 C472.33,185.496 510.94,190.816 546.75,195.756 " fill="none" id="movimentacao-product_must_exist" style="stroke:#FFFFFF;stroke-width:1.0;stroke-dasharray:7.0,7.0;"/></g><!--MD5=[218ab5dd932353ba8b763444a1a3123d]
link consulta to product_must_exist--><g id="link_consulta_product_must_exist"><path d="M413.6,316.036 C435.24,309.706 462.38,301.176 486,291.946 C530.52,274.546 579.67,250.756 613.81,233.466 " fill="none" id="consulta-product_must_exist" style="stroke:#FFFFFF;stroke-width:1.0;stroke-dasharray:7.0,7.0;"/></g><!--MD5=[5c2d43945039de88b8a965428d19fb5d]
link listagem_movimentos to product_must_exist--><g id="link_listagem_movimentos_product_must_exist"><path d="M469.42,236.796 C494.29,233.366 521.29,229.646 546.86,226.126 " fill="none" id="listagem_movimentos-product_must_exist" style="stroke:#FFFFFF;stroke-width:1.0;stroke-dasharray:7.0,7.0;"/></g><!--MD5=[3e0c780cfa50d367315befc3da97eedd]
link user to inicio--><g id="link_user_inicio"><path d="M94.71,323.566 C120.46,273.336 170.59,187.856 236,135.946 C259.84,117.026 291.06,103.786 317.57,95.046 " fill="none" id="user-inicio" style="stroke:#FFFFFF;stroke-width:1.0;"/></g><!--MD5=[13742cd6e0f4b4a8e8ce611096ebccd5]
link user to entrada--><g id="link_user_entrada"><path d="M138.36,397.116 C167.51,411.616 202.95,427.996 236,439.946 C266.95,451.146 303.08,460.266 330.32,466.386 " fill="none" id="user-entrada" style="stroke:#FFFFFF;stroke-width:1.0;"/></g><!--MD5=[f0dfa23dfcefbe8d88dd77a94a5674b6]
link user to saida--><g id="link_user_saida"><path d="M109.34,404.266 C139.34,437.436 186.02,483.186 236,509.946 C268.18,527.176 309.34,535.886 337.91,540.146 " fill="none" id="user-saida" style="stroke:#FFFFFF;stroke-width:1.0;"/></g><!--MD5=[10846f423dcbea91cb47bb990d8045cc]
link user to consulta--><g id="link_user_consulta"><path d="M138.14,346.806 C148.07,344.536 158.27,342.476 168,340.946 C219.55,332.836 279.16,329.416 320.58,327.986 " fill="none" id="user-consulta" style="stroke:#FFFFFF;stroke-width:1.0;"/></g><!--MD5=[21b019fec7d9d50c4d2460b9efe77e58]
link user to listagem--><g id="link_user_listagem"><path d="M138.14,381.086 C148.07,383.356 158.27,385.416 168,386.946 C204.12,392.636 244.2,396.006 279.2,398.016 " fill="none" id="user-listagem" style="stroke:#FFFFFF;stroke-width:1.0;"/></g><!--MD5=[da12a28fc3ca978483edac136db8bb98]
link user to listagem_movimentos--><g id="link_user_listagem_movimentos"><path d="M138.02,326.406 C147.88,321.196 158.09,316.176 168,311.946 C209.53,294.206 257.81,279.296 296.97,268.546 " fill="none" id="user-listagem_movimentos" style="stroke:#FFFFFF;stroke-width:1.0;"/></g></g></svg>