<?xml version="1.0" encoding="UTF-8" standalone="no"?><svg xmlns="http://www.w3.org/2000/svg" xmlns:xlink="http://www.w3.org/1999/xlink" contentStyleType="text/css" height="186px" preserveAspectRatio="none" style="width:602px;height:186px;background:#0B58A8;" version="1.1" viewBox="0 0 602 186" width="602px" zoomAndPan="magnify"><defs/><g><!--MD5=[a6ab0ebce1208712902cf246b9a7fb89]
cluster SESSION--><g id="cluster_SESSION"><path d="M184.5,13.946 L279.3125,13.946 A3.75,3.75 0 0 1 281.8125,16.446 L288.8125,49.9101 L592.5,49.9101 A2.5,2.5 0 0 1 595,52.4101 L595,177.446 A2.5,2.5 0 0 1 592.5,179.946 L184.5,179.946 A2.5,2.5 0 0 1 182,177.446 L182,16.446 A2.5,2.5 0 0 1 184.5,13.946 " fill="#0B58A8" style="stroke:#FFFFFF;stroke-width:1.0;"/><line style="stroke:#FFFFFF;stroke-width:1.0;" x1="182" x2="288.8125" y1="49.9101" y2="49.9101"/><text fill="#FFFFFF" font-family="Verdana" font-size="22" font-weight="bold" lengthAdjust="spacing" textLength="93.8125" x="186" y="39.4641">SESSION</text></g><g id="elem_login"><ellipse cx="237.6493" cy="79.0372" fill="#0B58A8" rx="33.6493" ry="16.5911" style="stroke:#FFFFFF;stroke-width:1.0;"/><text fill="#FFFFFF" font-family="Verdana" font-size="14" lengthAdjust="spacing" textLength="31" x="219.4217" y="83.6787">login</text></g><g id="elem_logoff"><ellipse cx="237.6889" cy="147.1633" fill="#0B58A8" rx="39.6889" ry="16.7173" style="stroke:#FFFFFF;stroke-width:1.0;"/><text fill="#FFFFFF" font-family="Verdana" font-size="14" lengthAdjust="spacing" textLength="39" x="215.1889" y="151.8962">logoff</text></g><g id="elem_GMN6"><path d="M337,118.446 L337,140.256 L277.31,145.876 L337,148.256 L337,163.8581 A0,0 0 0 0 337,163.8581 L579,163.8581 A0,0 0 0 0 579,163.8581 L579,128.446 L569,118.446 L337,118.446 A0,0 0 0 0 337,118.446 " fill="#0B58A8" style="stroke:#FFFFFF;stroke-width:1.0;"/><path d="M569,118.446 L569,128.446 L579,128.446 L569,118.446 " fill="#0B58A8" style="stroke:#FFFFFF;stroke-width:1.0;"/><text fill="#FFFFFF" font-family="Verdana" font-size="13" lengthAdjust="spacing" textLength="174" x="343" y="137.343">O usuário deverá ter iniciado</text><text fill="#FFFFFF" font-family="Verdana" font-size="13" lengthAdjust="spacing" textLength="221" x="343" y="155.0491">uma sessão anteriormente para sair.</text></g><!--MD5=[8fc3522a43f8c7199df5e09e5bb0188e]
entity user--><g id="elem_user"><ellipse cx="74.5" cy="81.946" fill="#0B58A8" rx="8" ry="8" style="stroke:#FFFFFF;stroke-width:1.0;"/><path d="M74.5,89.946 L74.5,116.946 M61.5,97.946 L87.5,97.946 M74.5,116.946 L61.5,131.946 M74.5,116.946 L87.5,131.946 " fill="none" style="stroke:#FFFFFF;stroke-width:1.0;"/><text fill="#FFFFFF" font-family="Verdana" font-size="14" lengthAdjust="spacing" textLength="127" x="11" y="148.912">Usuário do Sistema</text></g><!--MD5=[723f75bbc208f5e0dee037db49810223]
link user to login--><g id="link_user_login"><path d="M138.21,99.706 C161.52,94.776 186.92,89.416 206.06,85.376 " fill="none" id="user-login" style="stroke:#FFFFFF;stroke-width:1.0;"/></g><!--MD5=[56e4d5d9c59e3d6c19340423cc222264]
link user to logoff--><g id="link_user_logoff"><path d="M138.21,126.186 C159.75,130.736 183.08,135.666 201.61,139.576 " fill="none" id="user-logoff" style="stroke:#FFFFFF;stroke-width:1.0;"/></g></g></svg>