<?xml version="1.0" encoding="UTF-8" standalone="no"?><svg xmlns="http://www.w3.org/2000/svg" xmlns:xlink="http://www.w3.org/1999/xlink" contentStyleType="text/css" height="706px" preserveAspectRatio="none" style="width:1108px;height:706px;background:#0B58A8;" version="1.1" viewBox="0 0 1108 706" width="1108px" zoomAndPan="magnify"><defs/><g><rect fill="#0B58A8" height="376.7662" style="stroke:#FFFFFF;stroke-width:1.0;" width="10" x="473.5" y="196.186"/><rect fill="#0B58A8" height="221.9421" style="stroke:#FFFFFF;stroke-width:1.0;" width="10" x="728.5" y="273.598"/><rect fill="#0B58A8" height="31.706" style="stroke:#FFFFFF;stroke-width:1.0;" width="10" x="938.5" y="432.1281"/><rect fill="#0B58A8" height="95.118" style="stroke:#FFFFFF;stroke-width:1.0;" width="10" x="1038" y="305.304"/><line style="stroke:#FFFFFF;stroke-width:1.0;stroke-dasharray:5.0,5.0;" x1="37" x2="37" y1="85.0679" y2="622.6582"/><line style="stroke:#FFFFFF;stroke-width:1.0;stroke-dasharray:5.0,5.0;" x1="184.5" x2="184.5" y1="85.0679" y2="622.6582"/><line style="stroke:#FFFFFF;stroke-width:1.0;stroke-dasharray:5.0,5.0;" x1="478" x2="478" y1="85.0679" y2="622.6582"/><line style="stroke:#FFFFFF;stroke-width:1.0;stroke-dasharray:5.0,5.0;" x1="733" x2="733" y1="85.0679" y2="622.6582"/><line style="stroke:#FFFFFF;stroke-width:1.0;stroke-dasharray:5.0,5.0;" x1="943" x2="943" y1="85.0679" y2="622.6582"/><line style="stroke:#FFFFFF;stroke-width:1.0;stroke-dasharray:5.0,5.0;" x1="1043" x2="1043" y1="85.0679" y2="622.6582"/><text fill="#FFFFFF" font-family="Verdana" font-size="14" lengthAdjust="spacing" textLength="49" x="10" y="80.9659">Usuário</text><ellipse cx="37.5" cy="14" fill="#0B58A8" rx="8" ry="8" style="stroke:#FFFFFF;stroke-width:1.0;"/><path d="M37.5,22 L37.5,49 M24.5,30 L50.5,30 M37.5,49 L24.5,64 M37.5,49 L50.5,64 " fill="none" style="stroke:#FFFFFF;stroke-width:1.0;"/><text fill="#FFFFFF" font-family="Verdana" font-size="14" lengthAdjust="spacing" textLength="49" x="10" y="636.6241">Usuário</text><ellipse cx="37.5" cy="649.7261" fill="#0B58A8" rx="8" ry="8" style="stroke:#FFFFFF;stroke-width:1.0;"/><path d="M37.5,657.7261 L37.5,684.7261 M24.5,665.7261 L50.5,665.7261 M37.5,684.7261 L24.5,699.7261 M37.5,684.7261 L50.5,699.7261 " fill="none" style="stroke:#FFFFFF;stroke-width:1.0;"/><text fill="#FFFFFF" font-family="Verdana" font-size="14" lengthAdjust="spacing" textLength="60" x="151.5" y="80.9659">FrontEnd</text><path d="M164,38 L164,62 M164,50 L181,50 " fill="none" style="stroke:#FFFFFF;stroke-width:1.0;"/><ellipse cx="193" cy="50" fill="#0B58A8" rx="12" ry="12" style="stroke:#FFFFFF;stroke-width:1.0;"/><text fill="#FFFFFF" font-family="Verdana" font-size="14" lengthAdjust="spacing" textLength="60" x="151.5" y="636.6241">FrontEnd</text><path d="M164,644.7261 L164,668.7261 M164,656.7261 L181,656.7261 " fill="none" style="stroke:#FFFFFF;stroke-width:1.0;"/><ellipse cx="193" cy="656.7261" fill="#0B58A8" rx="12" ry="12" style="stroke:#FFFFFF;stroke-width:1.0;"/><text fill="#FFFFFF" font-family="Verdana" font-size="14" lengthAdjust="spacing" textLength="23" x="464" y="80.9659">API</text><path d="M458,38 L458,62 M458,50 L475,50 " fill="none" style="stroke:#FFFFFF;stroke-width:1.0;"/><ellipse cx="487" cy="50" fill="#0B58A8" rx="12" ry="12" style="stroke:#FFFFFF;stroke-width:1.0;"/><text fill="#FFFFFF" font-family="Verdana" font-size="14" lengthAdjust="spacing" textLength="23" x="464" y="636.6241">API</text><path d="M458,644.7261 L458,668.7261 M458,656.7261 L475,656.7261 " fill="none" style="stroke:#FFFFFF;stroke-width:1.0;"/><ellipse cx="487" cy="656.7261" fill="#0B58A8" rx="12" ry="12" style="stroke:#FFFFFF;stroke-width:1.0;"/><text fill="#FFFFFF" font-family="Verdana" font-size="14" lengthAdjust="spacing" textLength="59" x="701" y="80.9659">SESSION</text><ellipse cx="733.5" cy="50" fill="#0B58A8" rx="12" ry="12" style="stroke:#FFFFFF;stroke-width:1.0;"/><polygon fill="#FFFFFF" points="729.5,38,735.5,33,733.5,38,735.5,43,729.5,38" style="stroke:#FFFFFF;stroke-width:1.0;"/><text fill="#FFFFFF" font-family="Verdana" font-size="14" lengthAdjust="spacing" textLength="59" x="701" y="636.6241">SESSION</text><ellipse cx="733.5" cy="656.7261" fill="#0B58A8" rx="12" ry="12" style="stroke:#FFFFFF;stroke-width:1.0;"/><polygon fill="#FFFFFF" points="729.5,644.7261,735.5,639.7261,733.5,644.7261,735.5,649.7261,729.5,644.7261" style="stroke:#FFFFFF;stroke-width:1.0;"/><rect fill="#0B58A8" height="33.0679" style="stroke:#FFFFFF;stroke-width:1.0;" width="49" x="921" y="47"/><rect fill="#0B58A8" height="33.0679" style="stroke:#FFFFFF;stroke-width:1.0;" width="49" x="917" y="51"/><text fill="#FFFFFF" font-family="Verdana" font-size="14" lengthAdjust="spacing" textLength="35" x="924" y="72.9659">Redis</text><rect fill="#0B58A8" height="33.0679" style="stroke:#FFFFFF;stroke-width:1.0;" width="49" x="921" y="621.6582"/><rect fill="#0B58A8" height="33.0679" style="stroke:#FFFFFF;stroke-width:1.0;" width="49" x="917" y="625.6582"/><text fill="#FFFFFF" font-family="Verdana" font-size="14" lengthAdjust="spacing" textLength="35" x="924" y="647.6241">Redis</text><rect fill="#0B58A8" height="33.0679" style="stroke:#FFFFFF;stroke-width:1.0;" width="82" x="1004" y="47"/><rect fill="#0B58A8" height="33.0679" style="stroke:#FFFFFF;stroke-width:1.0;" width="82" x="1000" y="51"/><text fill="#FFFFFF" font-family="Verdana" font-size="14" lengthAdjust="spacing" textLength="68" x="1007" y="72.9659">MongoDB</text><rect fill="#0B58A8" height="33.0679" style="stroke:#FFFFFF;stroke-width:1.0;" width="82" x="1004" y="621.6582"/><rect fill="#0B58A8" height="33.0679" style="stroke:#FFFFFF;stroke-width:1.0;" width="82" x="1000" y="625.6582"/><text fill="#FFFFFF" font-family="Verdana" font-size="14" lengthAdjust="spacing" textLength="68" x="1007" y="647.6241">MongoDB</text><rect fill="#0B58A8" height="376.7662" style="stroke:#FFFFFF;stroke-width:1.0;" width="10" x="473.5" y="196.186"/><rect fill="#0B58A8" height="221.9421" style="stroke:#FFFFFF;stroke-width:1.0;" width="10" x="728.5" y="273.598"/><rect fill="#0B58A8" height="31.706" style="stroke:#FFFFFF;stroke-width:1.0;" width="10" x="938.5" y="432.1281"/><rect fill="#0B58A8" height="95.118" style="stroke:#FFFFFF;stroke-width:1.0;" width="10" x="1038" y="305.304"/><rect fill="#FFFFFF" height="3" style="stroke:#FFFFFF;stroke-width:1.0;" width="1096" x="5" y="116.9209"/><line style="stroke:#FFFFFF;stroke-width:0.5;" x1="5" x2="1101" y1="116.9209" y2="116.9209"/><line style="stroke:#FFFFFF;stroke-width:0.5;" x1="5" x2="1101" y1="119.9209" y2="119.9209"/><rect fill="#FFFFFF" height="25.706" style="stroke:#FFFFFF;stroke-width:1.0;" width="150.3125" x="477.8438" y="105.0679"/><text fill="#0B58A8" font-family="Verdana" font-size="13" font-weight="bold" lengthAdjust="spacing" textLength="133.3125" x="483.8438" y="122.9649">Interação do usuário</text><polygon fill="#FFFFFF" points="172.5,160.4799,182.5,164.4799,172.5,168.4799,176.5,164.4799" style="stroke:#FFFFFF;stroke-width:1.0;"/><line style="stroke:#FFFFFF;stroke-width:1.0;" x1="37.5" x2="178.5" y1="164.4799" y2="164.4799"/><text fill="#FFFFFF" font-family="Verdana" font-size="13" lengthAdjust="spacing" textLength="123" x="44.5" y="158.6709">Realização de logoff</text><polygon fill="#FFFFFF" points="461.5,192.186,471.5,196.186,461.5,200.186,465.5,196.186" style="stroke:#FFFFFF;stroke-width:1.0;"/><line style="stroke:#FFFFFF;stroke-width:1.0;" x1="184.5" x2="467.5" y1="196.186" y2="196.186"/><text fill="#FFFFFF" font-family="Verdana" font-size="13" lengthAdjust="spacing" textLength="240" x="191.5" y="190.377">Requisição de encerramento de sessão</text><rect fill="#FFFFFF" height="3" style="stroke:#FFFFFF;stroke-width:1.0;" width="1096" x="5" y="226.039"/><line style="stroke:#FFFFFF;stroke-width:0.5;" x1="5" x2="1101" y1="226.039" y2="226.039"/><line style="stroke:#FFFFFF;stroke-width:0.5;" x1="5" x2="1101" y1="229.039" y2="229.039"/><rect fill="#FFFFFF" height="25.706" style="stroke:#FFFFFF;stroke-width:1.0;" width="144.0938" x="480.9531" y="214.186"/><text fill="#0B58A8" font-family="Verdana" font-size="13" font-weight="bold" lengthAdjust="spacing" textLength="127.0938" x="486.9531" y="232.083">Remoção da sessão</text><polygon fill="#FFFFFF" points="716.5,269.598,726.5,273.598,716.5,277.598,720.5,273.598" style="stroke:#FFFFFF;stroke-width:1.0;"/><line style="stroke:#FFFFFF;stroke-width:1.0;" x1="483.5" x2="722.5" y1="273.598" y2="273.598"/><text fill="#FFFFFF" font-family="Verdana" font-size="13" lengthAdjust="spacing" textLength="226" x="490.5" y="267.789">Remoção da sessão através do token</text><polygon fill="#FFFFFF" points="1026,301.304,1036,305.304,1026,309.304,1030,305.304" style="stroke:#FFFFFF;stroke-width:1.0;"/><line style="stroke:#FFFFFF;stroke-width:1.0;" x1="738.5" x2="1032" y1="305.304" y2="305.304"/><text fill="#FFFFFF" font-family="Verdana" font-size="13" lengthAdjust="spacing" textLength="213" x="745.5" y="299.495">Verificação da existência da sessão</text><polygon fill="#FFFFFF" points="749.5,333.01,739.5,337.01,749.5,341.01,745.5,337.01" style="stroke:#FFFFFF;stroke-width:1.0;"/><line style="stroke:#FFFFFF;stroke-width:1.0;stroke-dasharray:2.0,2.0;" x1="743.5" x2="1037" y1="337.01" y2="337.01"/><text fill="#FFFFFF" font-family="Verdana" font-size="13" lengthAdjust="spacing" textLength="104" x="755.5" y="331.201">Dados da sessão</text><polygon fill="#FFFFFF" points="1026,364.716,1036,368.716,1026,372.716,1030,368.716" style="stroke:#FFFFFF;stroke-width:1.0;"/><line style="stroke:#FFFFFF;stroke-width:1.0;" x1="738.5" x2="1032" y1="368.716" y2="368.716"/><text fill="#FFFFFF" font-family="Verdana" font-size="13" lengthAdjust="spacing" textLength="121" x="745.5" y="362.907">Remoção da sessão</text><polygon fill="#FFFFFF" points="749.5,396.4221,739.5,400.4221,749.5,404.4221,745.5,400.4221" style="stroke:#FFFFFF;stroke-width:1.0;"/><line style="stroke:#FFFFFF;stroke-width:1.0;stroke-dasharray:2.0,2.0;" x1="743.5" x2="1042" y1="400.4221" y2="400.4221"/><text fill="#FFFFFF" font-family="Verdana" font-size="13" lengthAdjust="spacing" textLength="52" x="755.5" y="394.6131">Sucesso</text><polygon fill="#FFFFFF" points="926.5,428.1281,936.5,432.1281,926.5,436.1281,930.5,432.1281" style="stroke:#FFFFFF;stroke-width:1.0;"/><line style="stroke:#FFFFFF;stroke-width:1.0;" x1="738.5" x2="932.5" y1="432.1281" y2="432.1281"/><text fill="#FFFFFF" font-family="Verdana" font-size="13" lengthAdjust="spacing" textLength="181" x="745.5" y="426.3191">Remoção da sessão em cache</text><polygon fill="#FFFFFF" points="749.5,459.8341,739.5,463.8341,749.5,467.8341,745.5,463.8341" style="stroke:#FFFFFF;stroke-width:1.0;"/><line style="stroke:#FFFFFF;stroke-width:1.0;stroke-dasharray:2.0,2.0;" x1="743.5" x2="942.5" y1="463.8341" y2="463.8341"/><text fill="#FFFFFF" font-family="Verdana" font-size="13" lengthAdjust="spacing" textLength="52" x="755.5" y="458.0251">Sucesso</text><polygon fill="#FFFFFF" points="494.5,491.5401,484.5,495.5401,494.5,499.5401,490.5,495.5401" style="stroke:#FFFFFF;stroke-width:1.0;"/><line style="stroke:#FFFFFF;stroke-width:1.0;stroke-dasharray:2.0,2.0;" x1="488.5" x2="732.5" y1="495.5401" y2="495.5401"/><text fill="#FFFFFF" font-family="Verdana" font-size="13" lengthAdjust="spacing" textLength="52" x="500.5" y="489.7311">Sucesso</text><rect fill="#FFFFFF" height="3" style="stroke:#FFFFFF;stroke-width:1.0;" width="1096" x="5" y="525.3931"/><line style="stroke:#FFFFFF;stroke-width:0.5;" x1="5" x2="1101" y1="525.3931" y2="525.3931"/><line style="stroke:#FFFFFF;stroke-width:0.5;" x1="5" x2="1101" y1="528.3931" y2="528.3931"/><rect fill="#FFFFFF" height="25.706" style="stroke:#FFFFFF;stroke-width:1.0;" width="112.875" x="496.5625" y="513.5401"/><text fill="#0B58A8" font-family="Verdana" font-size="13" font-weight="bold" lengthAdjust="spacing" textLength="95.875" x="502.5625" y="531.4371">Retorno da API</text><polygon fill="#FFFFFF" points="195.5,568.9521,185.5,572.9521,195.5,576.9521,191.5,572.9521" style="stroke:#FFFFFF;stroke-width:1.0;"/><line style="stroke:#FFFFFF;stroke-width:1.0;stroke-dasharray:2.0,2.0;" x1="189.5" x2="477.5" y1="572.9521" y2="572.9521"/><text fill="#FFFFFF" font-family="Verdana" font-size="13" lengthAdjust="spacing" textLength="265" x="201.5" y="567.1431">Resposta de sucesso + remoção de cookies</text><polygon fill="#FFFFFF" points="48.5,600.6582,38.5,604.6582,48.5,608.6582,44.5,604.6582" style="stroke:#FFFFFF;stroke-width:1.0;"/><line style="stroke:#FFFFFF;stroke-width:1.0;stroke-dasharray:2.0,2.0;" x1="42.5" x2="183.5" y1="604.6582" y2="604.6582"/><text fill="#FFFFFF" font-family="Verdana" font-size="13" lengthAdjust="spacing" textLength="111" x="54.5" y="598.8492">Redirecionamento</text></g></svg>