<?xml version="1.0" encoding="UTF-8" standalone="no"?><svg xmlns="http://www.w3.org/2000/svg" xmlns:xlink="http://www.w3.org/1999/xlink" contentStyleType="text/css" height="879px" preserveAspectRatio="none" style="width:1204px;height:879px;background:#0B58A8;" version="1.1" viewBox="0 0 1204 879" width="1204px" zoomAndPan="magnify"><defs/><g><rect fill="#0B58A8" height="345.0602" style="stroke:#FFFFFF;stroke-width:1.0;" width="10" x="473.5" y="196.186"/><rect fill="#0B58A8" height="190.2361" style="stroke:#FFFFFF;stroke-width:1.0;" width="10" x="728.5" y="273.598"/><rect fill="#0B58A8" height="126.8241" style="stroke:#FFFFFF;stroke-width:1.0;" width="10" x="728.5" y="650.3642"/><rect fill="#0B58A8" height="31.706" style="stroke:#FFFFFF;stroke-width:1.0;" width="10" x="938.5" y="682.0702"/><rect fill="#0B58A8" height="95.118" style="stroke:#FFFFFF;stroke-width:1.0;" width="10" x="1038" y="305.304"/><rect fill="#0B58A8" height="345.0602" style="stroke:#FFFFFF;stroke-width:1.0;" width="10" x="1144" y="432.1281"/><line style="stroke:#FFFFFF;stroke-width:1.0;stroke-dasharray:5.0,5.0;" x1="37" x2="37" y1="85.0679" y2="795.1882"/><line style="stroke:#FFFFFF;stroke-width:1.0;stroke-dasharray:5.0,5.0;" x1="184.5" x2="184.5" y1="85.0679" y2="795.1882"/><line style="stroke:#FFFFFF;stroke-width:1.0;stroke-dasharray:5.0,5.0;" x1="478" x2="478" y1="85.0679" y2="795.1882"/><line style="stroke:#FFFFFF;stroke-width:1.0;stroke-dasharray:5.0,5.0;" x1="733" x2="733" y1="85.0679" y2="795.1882"/><line style="stroke:#FFFFFF;stroke-width:1.0;stroke-dasharray:5.0,5.0;" x1="943" x2="943" y1="85.0679" y2="795.1882"/><line style="stroke:#FFFFFF;stroke-width:1.0;stroke-dasharray:5.0,5.0;" x1="1043" x2="1043" y1="85.0679" y2="795.1882"/><line style="stroke:#FFFFFF;stroke-width:1.0;stroke-dasharray:5.0,5.0;" x1="1149" x2="1149" y1="85.0679" y2="795.1882"/><text fill="#FFFFFF" font-family="Verdana" font-size="14" lengthAdjust="spacing" textLength="49" x="10" y="80.9659">Usuário</text><ellipse cx="37.5" cy="14" fill="#0B58A8" rx="8" ry="8" style="stroke:#FFFFFF;stroke-width:1.0;"/><path d="M37.5,22 L37.5,49 M24.5,30 L50.5,30 M37.5,49 L24.5,64 M37.5,49 L50.5,64 " fill="none" style="stroke:#FFFFFF;stroke-width:1.0;"/><text fill="#FFFFFF" font-family="Verdana" font-size="14" lengthAdjust="spacing" textLength="49" x="10" y="809.1542">Usuário</text><ellipse cx="37.5" cy="822.2562" fill="#0B58A8" rx="8" ry="8" style="stroke:#FFFFFF;stroke-width:1.0;"/><path d="M37.5,830.2562 L37.5,857.2562 M24.5,838.2562 L50.5,838.2562 M37.5,857.2562 L24.5,872.2562 M37.5,857.2562 L50.5,872.2562 " fill="none" style="stroke:#FFFFFF;stroke-width:1.0;"/><text fill="#FFFFFF" font-family="Verdana" font-size="14" lengthAdjust="spacing" textLength="60" x="151.5" y="80.9659">FrontEnd</text><path d="M164,38 L164,62 M164,50 L181,50 " fill="none" style="stroke:#FFFFFF;stroke-width:1.0;"/><ellipse cx="193" cy="50" fill="#0B58A8" rx="12" ry="12" style="stroke:#FFFFFF;stroke-width:1.0;"/><text fill="#FFFFFF" font-family="Verdana" font-size="14" lengthAdjust="spacing" textLength="60" x="151.5" y="809.1542">FrontEnd</text><path d="M164,817.2562 L164,841.2562 M164,829.2562 L181,829.2562 " fill="none" style="stroke:#FFFFFF;stroke-width:1.0;"/><ellipse cx="193" cy="829.2562" fill="#0B58A8" rx="12" ry="12" style="stroke:#FFFFFF;stroke-width:1.0;"/><text fill="#FFFFFF" font-family="Verdana" font-size="14" lengthAdjust="spacing" textLength="23" x="464" y="80.9659">API</text><path d="M458,38 L458,62 M458,50 L475,50 " fill="none" style="stroke:#FFFFFF;stroke-width:1.0;"/><ellipse cx="487" cy="50" fill="#0B58A8" rx="12" ry="12" style="stroke:#FFFFFF;stroke-width:1.0;"/><text fill="#FFFFFF" font-family="Verdana" font-size="14" lengthAdjust="spacing" textLength="23" x="464" y="809.1542">API</text><path d="M458,817.2562 L458,841.2562 M458,829.2562 L475,829.2562 " fill="none" style="stroke:#FFFFFF;stroke-width:1.0;"/><ellipse cx="487" cy="829.2562" fill="#0B58A8" rx="12" ry="12" style="stroke:#FFFFFF;stroke-width:1.0;"/><text fill="#FFFFFF" font-family="Verdana" font-size="14" lengthAdjust="spacing" textLength="59" x="701" y="80.9659">SESSION</text><ellipse cx="733.5" cy="50" fill="#0B58A8" rx="12" ry="12" style="stroke:#FFFFFF;stroke-width:1.0;"/><polygon fill="#FFFFFF" points="729.5,38,735.5,33,733.5,38,735.5,43,729.5,38" style="stroke:#FFFFFF;stroke-width:1.0;"/><text fill="#FFFFFF" font-family="Verdana" font-size="14" lengthAdjust="spacing" textLength="59" x="701" y="809.1542">SESSION</text><ellipse cx="733.5" cy="829.2562" fill="#0B58A8" rx="12" ry="12" style="stroke:#FFFFFF;stroke-width:1.0;"/><polygon fill="#FFFFFF" points="729.5,817.2562,735.5,812.2562,733.5,817.2562,735.5,822.2562,729.5,817.2562" style="stroke:#FFFFFF;stroke-width:1.0;"/><rect fill="#0B58A8" height="33.0679" style="stroke:#FFFFFF;stroke-width:1.0;" width="49" x="921" y="47"/><rect fill="#0B58A8" height="33.0679" style="stroke:#FFFFFF;stroke-width:1.0;" width="49" x="917" y="51"/><text fill="#FFFFFF" font-family="Verdana" font-size="14" lengthAdjust="spacing" textLength="35" x="924" y="72.9659">Redis</text><rect fill="#0B58A8" height="33.0679" style="stroke:#FFFFFF;stroke-width:1.0;" width="49" x="921" y="794.1882"/><rect fill="#0B58A8" height="33.0679" style="stroke:#FFFFFF;stroke-width:1.0;" width="49" x="917" y="798.1882"/><text fill="#FFFFFF" font-family="Verdana" font-size="14" lengthAdjust="spacing" textLength="35" x="924" y="820.1542">Redis</text><rect fill="#0B58A8" height="33.0679" style="stroke:#FFFFFF;stroke-width:1.0;" width="82" x="1004" y="47"/><rect fill="#0B58A8" height="33.0679" style="stroke:#FFFFFF;stroke-width:1.0;" width="82" x="1000" y="51"/><text fill="#FFFFFF" font-family="Verdana" font-size="14" lengthAdjust="spacing" textLength="68" x="1007" y="72.9659">MongoDB</text><rect fill="#0B58A8" height="33.0679" style="stroke:#FFFFFF;stroke-width:1.0;" width="82" x="1004" y="794.1882"/><rect fill="#0B58A8" height="33.0679" style="stroke:#FFFFFF;stroke-width:1.0;" width="82" x="1000" y="798.1882"/><text fill="#FFFFFF" font-family="Verdana" font-size="14" lengthAdjust="spacing" textLength="68" x="1007" y="820.1542">MongoDB</text><path d="M1111,56 L1187,56 C1192,56 1192,70.534 1192,70.534 C1192,70.534 1192,85.0679 1187,85.0679 L1111,85.0679 C1106,85.0679 1106,70.534 1106,70.534 C1106,70.534 1106,56 1111,56 " fill="#0B58A8" style="stroke:#FFFFFF;stroke-width:1.0;"/><path d="M1187,56 C1182,56 1182,70.534 1182,70.534 C1182,85.0679 1187,85.0679 1187,85.0679 " fill="none" style="stroke:#FFFFFF;stroke-width:1.0;"/><text fill="#FFFFFF" font-family="Verdana" font-size="14" lengthAdjust="spacing" textLength="66" x="1111" y="75.9659">RabbitMQ</text><path d="M1111,794.1882 L1187,794.1882 C1192,794.1882 1192,808.7222 1192,808.7222 C1192,808.7222 1192,823.2562 1187,823.2562 L1111,823.2562 C1106,823.2562 1106,808.7222 1106,808.7222 C1106,808.7222 1106,794.1882 1111,794.1882 " fill="#0B58A8" style="stroke:#FFFFFF;stroke-width:1.0;"/><path d="M1187,794.1882 C1182,794.1882 1182,808.7222 1182,808.7222 C1182,823.2562 1187,823.2562 1187,823.2562 " fill="none" style="stroke:#FFFFFF;stroke-width:1.0;"/><text fill="#FFFFFF" font-family="Verdana" font-size="14" lengthAdjust="spacing" textLength="66" x="1111" y="814.1542">RabbitMQ</text><rect fill="#0B58A8" height="345.0602" style="stroke:#FFFFFF;stroke-width:1.0;" width="10" x="473.5" y="196.186"/><rect fill="#0B58A8" height="190.2361" style="stroke:#FFFFFF;stroke-width:1.0;" width="10" x="728.5" y="273.598"/><rect fill="#0B58A8" height="126.8241" style="stroke:#FFFFFF;stroke-width:1.0;" width="10" x="728.5" y="650.3642"/><rect fill="#0B58A8" height="31.706" style="stroke:#FFFFFF;stroke-width:1.0;" width="10" x="938.5" y="682.0702"/><rect fill="#0B58A8" height="95.118" style="stroke:#FFFFFF;stroke-width:1.0;" width="10" x="1038" y="305.304"/><rect fill="#0B58A8" height="345.0602" style="stroke:#FFFFFF;stroke-width:1.0;" width="10" x="1144" y="432.1281"/><rect fill="#FFFFFF" height="3" style="stroke:#FFFFFF;stroke-width:1.0;" width="1192" x="5" y="116.9209"/><line style="stroke:#FFFFFF;stroke-width:0.5;" x1="5" x2="1197" y1="116.9209" y2="116.9209"/><line style="stroke:#FFFFFF;stroke-width:0.5;" x1="5" x2="1197" y1="119.9209" y2="119.9209"/><rect fill="#FFFFFF" height="25.706" style="stroke:#FFFFFF;stroke-width:1.0;" width="150.3125" x="525.8438" y="105.0679"/><text fill="#0B58A8" font-family="Verdana" font-size="13" font-weight="bold" lengthAdjust="spacing" textLength="133.3125" x="531.8438" y="122.9649">Interação do usuário</text><polygon fill="#FFFFFF" points="172.5,160.4799,182.5,164.4799,172.5,168.4799,176.5,164.4799" style="stroke:#FFFFFF;stroke-width:1.0;"/><line style="stroke:#FFFFFF;stroke-width:1.0;" x1="37.5" x2="178.5" y1="164.4799" y2="164.4799"/><text fill="#FFFFFF" font-family="Verdana" font-size="13" lengthAdjust="spacing" textLength="123" x="44.5" y="158.6709">Realização de logoff</text><polygon fill="#FFFFFF" points="461.5,192.186,471.5,196.186,461.5,200.186,465.5,196.186" style="stroke:#FFFFFF;stroke-width:1.0;"/><line style="stroke:#FFFFFF;stroke-width:1.0;" x1="184.5" x2="467.5" y1="196.186" y2="196.186"/><text fill="#FFFFFF" font-family="Verdana" font-size="13" lengthAdjust="spacing" textLength="240" x="191.5" y="190.377">Requisição de encerramento de sessão</text><rect fill="#FFFFFF" height="3" style="stroke:#FFFFFF;stroke-width:1.0;" width="1192" x="5" y="226.039"/><line style="stroke:#FFFFFF;stroke-width:0.5;" x1="5" x2="1197" y1="226.039" y2="226.039"/><line style="stroke:#FFFFFF;stroke-width:0.5;" x1="5" x2="1197" y1="229.039" y2="229.039"/><rect fill="#FFFFFF" height="25.706" style="stroke:#FFFFFF;stroke-width:1.0;" width="144.0938" x="528.9531" y="214.186"/><text fill="#0B58A8" font-family="Verdana" font-size="13" font-weight="bold" lengthAdjust="spacing" textLength="127.0938" x="534.9531" y="232.083">Remoção da sessão</text><polygon fill="#FFFFFF" points="716.5,269.598,726.5,273.598,716.5,277.598,720.5,273.598" style="stroke:#FFFFFF;stroke-width:1.0;"/><line style="stroke:#FFFFFF;stroke-width:1.0;" x1="483.5" x2="722.5" y1="273.598" y2="273.598"/><text fill="#FFFFFF" font-family="Verdana" font-size="13" lengthAdjust="spacing" textLength="226" x="490.5" y="267.789">Remoção da sessão através do token</text><polygon fill="#FFFFFF" points="1026,301.304,1036,305.304,1026,309.304,1030,305.304" style="stroke:#FFFFFF;stroke-width:1.0;"/><line style="stroke:#FFFFFF;stroke-width:1.0;" x1="738.5" x2="1032" y1="305.304" y2="305.304"/><text fill="#FFFFFF" font-family="Verdana" font-size="13" lengthAdjust="spacing" textLength="213" x="745.5" y="299.495">Verificação da existência da sessão</text><polygon fill="#FFFFFF" points="749.5,333.01,739.5,337.01,749.5,341.01,745.5,337.01" style="stroke:#FFFFFF;stroke-width:1.0;"/><line style="stroke:#FFFFFF;stroke-width:1.0;stroke-dasharray:2.0,2.0;" x1="743.5" x2="1037" y1="337.01" y2="337.01"/><text fill="#FFFFFF" font-family="Verdana" font-size="13" lengthAdjust="spacing" textLength="104" x="755.5" y="331.201">Dados da sessão</text><polygon fill="#FFFFFF" points="1026,364.716,1036,368.716,1026,372.716,1030,368.716" style="stroke:#FFFFFF;stroke-width:1.0;"/><line style="stroke:#FFFFFF;stroke-width:1.0;" x1="738.5" x2="1032" y1="368.716" y2="368.716"/><text fill="#FFFFFF" font-family="Verdana" font-size="13" lengthAdjust="spacing" textLength="121" x="745.5" y="362.907">Remoção da sessão</text><polygon fill="#FFFFFF" points="749.5,396.4221,739.5,400.4221,749.5,404.4221,745.5,400.4221" style="stroke:#FFFFFF;stroke-width:1.0;"/><line style="stroke:#FFFFFF;stroke-width:1.0;stroke-dasharray:2.0,2.0;" x1="743.5" x2="1042" y1="400.4221" y2="400.4221"/><text fill="#FFFFFF" font-family="Verdana" font-size="13" lengthAdjust="spacing" textLength="52" x="755.5" y="394.6131">Sucesso</text><polygon fill="#FFFFFF" points="1132,428.1281,1142,432.1281,1132,436.1281,1136,432.1281" style="stroke:#FFFFFF;stroke-width:1.0;"/><line style="stroke:#FFFFFF;stroke-width:1.0;" x1="738.5" x2="1138" y1="432.1281" y2="432.1281"/><text fill="#FFFFFF" font-family="Verdana" font-size="13" lengthAdjust="spacing" textLength="271" x="745.5" y="426.3191">Broadcast de requisição de limpeza de cache</text><polygon fill="#FFFFFF" points="494.5,459.8341,484.5,463.8341,494.5,467.8341,490.5,463.8341" style="stroke:#FFFFFF;stroke-width:1.0;"/><line style="stroke:#FFFFFF;stroke-width:1.0;stroke-dasharray:2.0,2.0;" x1="488.5" x2="732.5" y1="463.8341" y2="463.8341"/><text fill="#FFFFFF" font-family="Verdana" font-size="13" lengthAdjust="spacing" textLength="52" x="500.5" y="458.0251">Sucesso</text><rect fill="#FFFFFF" height="3" style="stroke:#FFFFFF;stroke-width:1.0;" width="1192" x="5" y="493.6871"/><line style="stroke:#FFFFFF;stroke-width:0.5;" x1="5" x2="1197" y1="493.6871" y2="493.6871"/><line style="stroke:#FFFFFF;stroke-width:0.5;" x1="5" x2="1197" y1="496.6871" y2="496.6871"/><rect fill="#FFFFFF" height="25.706" style="stroke:#FFFFFF;stroke-width:1.0;" width="112.875" x="544.5625" y="481.8341"/><text fill="#0B58A8" font-family="Verdana" font-size="13" font-weight="bold" lengthAdjust="spacing" textLength="95.875" x="550.5625" y="499.7311">Retorno da API</text><polygon fill="#FFFFFF" points="195.5,537.2461,185.5,541.2461,195.5,545.2461,191.5,541.2461" style="stroke:#FFFFFF;stroke-width:1.0;"/><line style="stroke:#FFFFFF;stroke-width:1.0;stroke-dasharray:2.0,2.0;" x1="189.5" x2="477.5" y1="541.2461" y2="541.2461"/><text fill="#FFFFFF" font-family="Verdana" font-size="13" lengthAdjust="spacing" textLength="265" x="201.5" y="535.4371">Resposta de sucesso + remoção de cookies</text><polygon fill="#FFFFFF" points="48.5,568.9521,38.5,572.9521,48.5,576.9521,44.5,572.9521" style="stroke:#FFFFFF;stroke-width:1.0;"/><line style="stroke:#FFFFFF;stroke-width:1.0;stroke-dasharray:2.0,2.0;" x1="42.5" x2="183.5" y1="572.9521" y2="572.9521"/><text fill="#FFFFFF" font-family="Verdana" font-size="13" lengthAdjust="spacing" textLength="111" x="54.5" y="567.1431">Redirecionamento</text><rect fill="#FFFFFF" height="3" style="stroke:#FFFFFF;stroke-width:1.0;" width="1192" x="5" y="602.8052"/><line style="stroke:#FFFFFF;stroke-width:0.5;" x1="5" x2="1197" y1="602.8052" y2="602.8052"/><line style="stroke:#FFFFFF;stroke-width:0.5;" x1="5" x2="1197" y1="605.8052" y2="605.8052"/><rect fill="#FFFFFF" height="25.706" style="stroke:#FFFFFF;stroke-width:1.0;" width="176.3125" x="512.8438" y="590.9521"/><text fill="#0B58A8" font-family="Verdana" font-size="13" font-weight="bold" lengthAdjust="spacing" textLength="159.3125" x="518.8438" y="608.8492">Consumo de mensagens</text><polygon fill="#FFFFFF" points="749.5,646.3642,739.5,650.3642,749.5,654.3642,745.5,650.3642" style="stroke:#FFFFFF;stroke-width:1.0;"/><line style="stroke:#FFFFFF;stroke-width:1.0;stroke-dasharray:2.0,2.0;" x1="743.5" x2="1143" y1="650.3642" y2="650.3642"/><text fill="#FFFFFF" font-family="Verdana" font-size="13" lengthAdjust="spacing" textLength="225" x="755.5" y="644.5552">Recebe mensagem para limpar cache</text><polygon fill="#FFFFFF" points="926.5,678.0702,936.5,682.0702,926.5,686.0702,930.5,682.0702" style="stroke:#FFFFFF;stroke-width:1.0;"/><line style="stroke:#FFFFFF;stroke-width:1.0;" x1="738.5" x2="932.5" y1="682.0702" y2="682.0702"/><text fill="#FFFFFF" font-family="Verdana" font-size="13" lengthAdjust="spacing" textLength="181" x="745.5" y="676.2612">Remoção da sessão em cache</text><polygon fill="#FFFFFF" points="749.5,709.7762,739.5,713.7762,749.5,717.7762,745.5,713.7762" style="stroke:#FFFFFF;stroke-width:1.0;"/><line style="stroke:#FFFFFF;stroke-width:1.0;stroke-dasharray:2.0,2.0;" x1="743.5" x2="942.5" y1="713.7762" y2="713.7762"/><text fill="#FFFFFF" font-family="Verdana" font-size="13" lengthAdjust="spacing" textLength="52" x="755.5" y="707.9672">Sucesso</text><polygon fill="#FFFFFF" points="1132,741.4822,1142,745.4822,1132,749.4822,1136,745.4822" style="stroke:#FFFFFF;stroke-width:1.0;"/><line style="stroke:#FFFFFF;stroke-width:1.0;" x1="738.5" x2="1138" y1="745.4822" y2="745.4822"/><text fill="#FFFFFF" font-family="Verdana" font-size="13" lengthAdjust="spacing" textLength="150" x="745.5" y="739.6732">Desenfileirar mensagem</text><polygon fill="#FFFFFF" points="744.5,773.1882,734.5,777.1882,744.5,781.1882,740.5,777.1882" style="stroke:#FFFFFF;stroke-width:1.0;"/><line style="stroke:#FFFFFF;stroke-width:1.0;stroke-dasharray:2.0,2.0;" x1="738.5" x2="1148" y1="777.1882" y2="777.1882"/><text fill="#FFFFFF" font-family="Verdana" font-size="13" lengthAdjust="spacing" textLength="52" x="750.5" y="771.3792">Sucesso</text></g></svg>