<?xml version="1.0" encoding="UTF-8" standalone="no"?><svg xmlns="http://www.w3.org/2000/svg" xmlns:xlink="http://www.w3.org/1999/xlink" contentStyleType="text/css" height="478px" preserveAspectRatio="none" style="width:863px;height:478px;background:#0B58A8;" version="1.1" viewBox="0 0 863 478" width="863px" zoomAndPan="magnify"><defs/><g><!--MD5=[a53b1aa2fb94a61e1b50498cc40147f8]
cluster COMM--><g id="cluster_COMM"><path d="M246.5,13.946 L320.25,13.946 A3.75,3.75 0 0 1 322.75,16.446 L329.75,49.9101 L853.5,49.9101 A2.5,2.5 0 0 1 856,52.4101 L856,469.446 A2.5,2.5 0 0 1 853.5,471.946 L246.5,471.946 A2.5,2.5 0 0 1 244,469.446 L244,16.446 A2.5,2.5 0 0 1 246.5,13.946 " fill="#0B58A8" style="stroke:#FFFFFF;stroke-width:1.0;"/><line style="stroke:#FFFFFF;stroke-width:1.0;" x1="244" x2="329.75" y1="49.9101" y2="49.9101"/><text fill="#FFFFFF" font-family="Verdana" font-size="22" font-weight="bold" lengthAdjust="spacing" textLength="72.75" x="248" y="39.4641">COMM</text></g><g id="elem_enviar"><ellipse cx="386.4962" cy="88.0453" fill="#0B58A8" rx="118.4962" ry="26.0992" style="stroke:#FFFFFF;stroke-width:1.0;"/><text fill="#FFFFFF" font-family="Verdana" font-size="14" lengthAdjust="spacing" textLength="198" x="284.8182" y="92.657">enviar mensagem instantânea</text></g><g id="elem_whatsapp"><ellipse cx="386.6149" cy="188.869" fill="#0B58A8" rx="95.1149" ry="21.423" style="stroke:#FFFFFF;stroke-width:1.0;"/><text fill="#FFFFFF" font-family="Verdana" font-size="14" lengthAdjust="spacing" textLength="143" x="312.1149" y="193.602">enviar para WhatsApp</text></g><g id="elem_messenger"><ellipse cx="386.5951" cy="273.165" fill="#0B58A8" rx="126.5951" ry="27.719" style="stroke:#FFFFFF;stroke-width:1.0;"/><text fill="#FFFFFF" font-family="Verdana" font-size="14" lengthAdjust="spacing" textLength="216" x="277.5494" y="277.0972">enviar para Facebook Messenger</text></g><g id="elem_instagram"><ellipse cx="386.5197" cy="356.95" fill="#0B58A8" rx="95.5197" ry="21.5039" style="stroke:#FFFFFF;stroke-width:1.0;"/><text fill="#FFFFFF" font-family="Verdana" font-size="14" lengthAdjust="spacing" textLength="144" x="311.5197" y="361.6829">enviar para Instagram</text></g><g id="elem_telegram"><ellipse cx="386.605" cy="434.967" fill="#0B58A8" rx="93.105" ry="21.021" style="stroke:#FFFFFF;stroke-width:1.0;"/><text fill="#FFFFFF" font-family="Verdana" font-size="14" lengthAdjust="spacing" textLength="138" x="314.605" y="439.7">enviar para Telegram</text></g><g id="elem_must_have_session"><path d="M606,300.446 L606,345.8581 L808,345.8581 L808,310.446 L798,300.446 L606,300.446 " fill="#0B58A8" style="stroke:#FFFFFF;stroke-width:1.0;"/><path d="M798,300.446 L798,310.446 L808,310.446 L798,300.446 " fill="#0B58A8" style="stroke:#FFFFFF;stroke-width:1.0;"/><text fill="#FFFFFF" font-family="Verdana" font-size="13" lengthAdjust="spacing" textLength="174" x="612" y="319.343">O usuário deverá ter iniciado</text><text fill="#FFFFFF" font-family="Verdana" font-size="13" lengthAdjust="spacing" textLength="181" x="612" y="337.0491">uma sessão para estes casos.</text></g><g id="elem_GMN18"><path d="M574,62.446 L574,87.456 L504.74,90.156 L574,95.456 L574,125.5641 A0,0 0 0 0 574,125.5641 L840,125.5641 A0,0 0 0 0 840,125.5641 L840,72.446 L830,62.446 L574,62.446 A0,0 0 0 0 574,62.446 " fill="#0B58A8" style="stroke:#FFFFFF;stroke-width:1.0;"/><path d="M830,62.446 L830,72.446 L840,72.446 L830,62.446 " fill="#0B58A8" style="stroke:#FFFFFF;stroke-width:1.0;"/><text fill="#FFFFFF" font-family="Verdana" font-size="13" lengthAdjust="spacing" textLength="245" x="580" y="81.343">Os dados de envio da plataforma devem</text><text fill="#FFFFFF" font-family="Verdana" font-size="13" lengthAdjust="spacing" textLength="173" x="580" y="99.0491">existir no cadastro do cliente</text><text fill="#FFFFFF" font-family="Verdana" font-size="13" lengthAdjust="spacing" textLength="82" x="580" y="116.7551">referenciado.</text></g><!--MD5=[8fc3522a43f8c7199df5e09e5bb0188e]
entity user--><g id="elem_user"><ellipse cx="74.5" cy="302.946" fill="#0B58A8" rx="8" ry="8" style="stroke:#FFFFFF;stroke-width:1.0;"/><path d="M74.5,310.946 L74.5,337.946 M61.5,318.946 L87.5,318.946 M74.5,337.946 L61.5,352.946 M74.5,337.946 L87.5,352.946 " fill="none" style="stroke:#FFFFFF;stroke-width:1.0;"/><text fill="#FFFFFF" font-family="Verdana" font-size="14" lengthAdjust="spacing" textLength="127" x="11" y="369.912">Usuário do Sistema</text></g><!--MD5=[78007ee8af56388e9235d2eaa4c6da45]
link whatsapp to enviar--><g id="link_whatsapp_enviar"><path d="M386.5,167.026 C386.5,153.066 386.5,134.736 386.5,119.246 " fill="none" id="whatsapp-to-enviar" style="stroke:#FFFFFF;stroke-width:1.0;stroke-dasharray:7.0,7.0;"/><polygon fill="#FFFFFF" points="386.5,114.116,382.5,123.116,386.5,119.116,390.5,123.116,386.5,114.116" style="stroke:#FFFFFF;stroke-width:1.0;"/><text fill="#FFFFFF" font-family="Verdana" font-size="13" lengthAdjust="spacing" textLength="58" x="345" y="146.093">«include»</text></g><!--MD5=[af1744a6d1a4c4e78346793eeda700bb]
link messenger to enviar--><g id="link_messenger_enviar"><path d="M284.33,256.626 C266.59,250.036 249.53,240.826 236,227.946 C198.27,192.006 168.99,154.926 203,115.446 C219.36,96.456 242.73,86.466 267.33,81.766 " fill="none" id="messenger-to-enviar" style="stroke:#FFFFFF;stroke-width:1.0;stroke-dasharray:7.0,7.0;"/><polygon fill="#FFFFFF" points="272.27,80.896,262.711,78.5241,267.3464,81.7666,264.1039,86.4019,272.27,80.896" style="stroke:#FFFFFF;stroke-width:1.0;"/><text fill="#FFFFFF" font-family="Verdana" font-size="13" lengthAdjust="spacing" textLength="58" x="169" y="130.343">«include»</text></g><!--MD5=[3beb2406b8c4b91f27db30447122cdf1]
link instagram to enviar--><g id="link_instagram_enviar"><path d="M295.56,350.106 C273.49,344.306 251.74,334.446 236,317.946 C180.91,260.206 155.11,205.286 203,141.446 C219.31,119.706 243.96,106.396 269.96,98.356 " fill="none" id="instagram-to-enviar" style="stroke:#FFFFFF;stroke-width:1.0;stroke-dasharray:7.0,7.0;"/><polygon fill="#FFFFFF" points="274.82,96.916,265.0529,95.6495,270.0277,98.3423,267.3349,103.3171,274.82,96.916" style="stroke:#FFFFFF;stroke-width:1.0;"/><text fill="#FFFFFF" font-family="Verdana" font-size="13" lengthAdjust="spacing" textLength="58" x="169" y="156.343">«include»</text></g><!--MD5=[41d0cda357ac6452bedd42d5cbc3abda]
link telegram to enviar--><g id="link_telegram_enviar"><path d="M296.99,429.106 C274.25,423.386 251.8,413.316 236,395.946 C168.13,321.356 154.94,260.106 203,171.446 C220.8,138.596 255.67,118.626 290.27,106.506 " fill="none" id="telegram-to-enviar" style="stroke:#FFFFFF;stroke-width:1.0;stroke-dasharray:7.0,7.0;"/><polygon fill="#FFFFFF" points="295.37,104.766,285.5611,103.8792,290.6367,106.3771,288.1388,111.4526,295.37,104.766" style="stroke:#FFFFFF;stroke-width:1.0;"/><text fill="#FFFFFF" font-family="Verdana" font-size="13" lengthAdjust="spacing" textLength="58" x="169" y="186.343">«include»</text></g><!--MD5=[f9c3ac80860b4866dd44bcdc3a3731cc]
link whatsapp to must_have_session--><g id="link_whatsapp_must_have_session"><path d="M447.54,205.526 C468.5,211.856 492.02,219.586 513,227.946 C566.77,249.386 626.18,279.686 664.69,300.266 " fill="none" id="whatsapp-must_have_session" style="stroke:#FFFFFF;stroke-width:1.0;stroke-dasharray:7.0,7.0;"/></g><!--MD5=[85654e9276f8ea175a534381b08988eb]
link messenger to must_have_session--><g id="link_messenger_must_have_session"><path d="M489.59,288.976 C526.8,294.816 568.81,301.406 605.85,307.226 " fill="none" id="messenger-must_have_session" style="stroke:#FFFFFF;stroke-width:1.0;stroke-dasharray:7.0,7.0;"/></g><!--MD5=[b5f82bc20fc8cb28ab2c3c9d4ad8169f]
link instagram to must_have_session--><g id="link_instagram_must_have_session"><path d="M473.27,347.786 C514.17,343.426 563.36,338.176 605.96,333.626 " fill="none" id="instagram-must_have_session" style="stroke:#FFFFFF;stroke-width:1.0;stroke-dasharray:7.0,7.0;"/></g><!--MD5=[26a871a014c92ac193b8075966571e47]
link telegram to must_have_session--><g id="link_telegram_must_have_session"><path d="M443.65,418.286 C465.4,411.626 490.46,403.706 513,395.946 C559.07,380.096 610.66,360.476 648.9,345.576 " fill="none" id="telegram-must_have_session" style="stroke:#FFFFFF;stroke-width:1.0;stroke-dasharray:7.0,7.0;"/></g><!--MD5=[1ad398be0cb8856eaf46bb4caca1772f]
link user to whatsapp--><g id="link_user_whatsapp"><path d="M126.83,293.746 C157.15,271.646 197.11,245.286 236,227.946 C260.25,217.136 288.11,208.846 313.15,202.756 " fill="none" id="user-whatsapp" style="stroke:#FFFFFF;stroke-width:1.0;"/></g><!--MD5=[448e2106b006bd3735ff26de81e83eb2]
link user to messenger--><g id="link_user_messenger"><path d="M138.23,321.606 C182.37,312.916 242.21,301.146 291.97,291.346 " fill="none" id="user-messenger" style="stroke:#FFFFFF;stroke-width:1.0;"/></g><!--MD5=[80b623e5900c1d793c6598617578337a]
link user to instagram--><g id="link_user_instagram"><path d="M138.23,338.596 C183.44,341.956 245.1,346.526 295.54,350.276 " fill="none" id="user-instagram" style="stroke:#FFFFFF;stroke-width:1.0;"/></g><!--MD5=[57a1ee375d7e9f0a8edb7918d8c880ee]
link user to telegram--><g id="link_user_telegram"><path d="M138.18,360.056 C167.6,371.826 203.31,385.406 236,395.946 C263.7,404.876 294.77,413.246 321.39,419.916 " fill="none" id="user-telegram" style="stroke:#FFFFFF;stroke-width:1.0;"/></g></g></svg>