<?xml version="1.0" encoding="UTF-8" standalone="no"?><svg xmlns="http://www.w3.org/2000/svg" xmlns:xlink="http://www.w3.org/1999/xlink" contentStyleType="text/css" height="478px" preserveAspectRatio="none" style="width:863px;height:478px;background:#0B58A8;" version="1.1" viewBox="0 0 863 478" width="863px" zoomAndPan="magnify"><defs/><g><!--MD5=[a53b1aa2fb94a61e1b50498cc40147f8]
cluster COMM--><g id="cluster_COMM"><path d="M246.5,13.946 L320.25,13.946 A3.75,3.75 0 0 1 322.75,16.446 L329.75,49.9101 L853.5,49.9101 A2.5,2.5 0 0 1 856,52.4101 L856,469.446 A2.5,2.5 0 0 1 853.5,471.946 L246.5,471.946 A2.5,2.5 0 0 1 244,469.446 L244,16.446 A2.5,2.5 0 0 1 246.5,13.946 " fill="#0B58A8" style="stroke:#FFFFFF;stroke-width:1.0;"/><line style="stroke:#FFFFFF;stroke-width:1.0;" x1="244" x2="329.75" y1="49.9101" y2="49.9101"/><text fill="#FFFFFF" font-family="Verdana" font-size="22" font-weight="bold" lengthAdjust="spacing" textLength="72.75" x="248" y="39.4641">COMM</text></g><g id="elem_enviar"><ellipse cx="386.4962" cy="88.0453" fill="#0B58A8" rx="118.4962" ry="26.0992" style="stroke:#FFFFFF;stroke-width:1.0;"/><text fill="#FFFFFF" font-family="Verdana" font-size="14" lengthAdjust="spacing" textLength="198" x="284.8182" y="92.657">enviar mensagem instantânea</text></g><g id="elem_whatsapp"><ellipse cx="386.6149" cy="188.869" fill="#0B58A8" rx="95.1149" ry="21.423" style="stroke:#FFFFFF;stroke-width:1.0;"/><text fill="#FFFFFF" font-family="Verdana" font-size="14" lengthAdjust="spacing" textLength="143" x="312.1149" y="193.602">enviar para WhatsApp</text></g><g id="elem_messenger"><ellipse cx="386.5951" cy="273.165" fill="#0B58A8" rx="126.5951" ry="27.719" style="stroke:#FFFFFF;stroke-width:1.0;"/><text fill="#FFFFFF" font-family="Verdana" font-size="14" lengthAdjust="spacing" textLength="216" x="277.5494" y="277.0972">enviar para Facebook Messenger</text></g><g id="elem_instagram"><ellipse cx="386.5197" cy="356.95" fill="#0B58A8" rx="95.5197" ry="21.5039" style="stroke:#FFFFFF;stroke-width:1.0;"/><text fill="#FFFFFF" font-family="Verdana" font-size="14" lengthAdjust="spacing" textLength="144" x="311.5197" y="361.6829">enviar para Instagram</text></g><g id="elem_telegram"><ellipse cx="386.605" cy="434.967" fill="#0B58A8" rx="93.105" ry="21.021" style="stroke:#FFFFFF;stroke-width:1.0;"/><text fill="#FFFFFF" font-family="Verdana" font-size="14" lengthAdjust="spacing" textLength="138" x="314.605" y="439.7">enviar para Telegram</text></g><g id="elem_must_have_session"><path d="M606,300.446 L606,345.8581 L808,345.8581 L808,310.446 L798,300.446 L606,300.446 " fill="#0B58A8" style="stroke:#FFFFFF;stroke-width:1.0;"/><path d="M798,300.446 L798,310.446 L808,310.446 L798,300.446 " fill="#0B58A8" style="stroke:#FFFFFF;stroke-width:1.0;"/><text fill="#FFFFFF" font-family="Verdana" font-size="13" lengthAdjust="spacing" textLength="174" x="612" y="319.343">O usuário deverá ter iniciado</text><text fill="#FFFFFF" font-family="Verdana" font-size="13" lengthAdjust="spacing" textLength="181" x="612" y="337.0491">uma sessão para estes casos.</text></g><g id="elem_GMN18"><path d="M574,62.446 L574,87.456 L504.74,90.156 L574,95.456 L574,125.5641 A0,0 0 0 0 574,125.5641 L840,125.5641 A0,0 0 0 0 840,125.5641 L840,72.446 L830,62.446 L574,62.446 A0,0 0 0 0 574,62.446 " fill="#0B58A8" style="stroke:#FFFFFF;stroke-width:1.0;"/><path d="M830,62.446 L830,72.446 L840,72.446 L830,62.446 " fill="#0B58A8" style="stroke:#FFFFFF;stroke-width:1.0;"/><text fill="#FFFFFF" font-family="Verdana" font-size="13" lengthAdjust="spacing" textLength="245" x="580" y="81.343">Os dados de envio da plataforma devem</text><text fill="#FFFFFF" font-family="Verdana" font-size="13" lengthAdjust="spacing" textLength="173" x="580" y="99.0491">existir no cadastro do cliente</text><text fill="#FFFFFF" font-family="Verdana" font-size="13" lengthAdjust="spacing" textLength="82" x="580" y="116.7551">referenciado.</text></g><!--MD5=[8fc3522a43f8c7199df5e09e5bb0188e]
entity user--><g id="elem_user"><ellipse cx="74.5" cy="302.946" fill="#0B58A8" rx="8" ry="8" style="stroke:#FFFFFF;stroke-width:1.0;"/><path d="M74.5,310.946 L74.5,337.946 M61.5,318.946 L87.5,318.946 M74.5,337.946 L61.5,352.946 M74.5,337.946 L87.5,352.946 " fill="none" style="stroke:#FFFFFF;stroke-width:1.0;"/><text fill="#FFFFFF" font-family="Verdana" font-size="14" lengthAdjust="spacing" textLength="127" x="11" y="369.912">Usuário do Sistema</text></g><!--MD5=[78007ee8af56388e9235d2eaa4c6da45]
link whatsapp to enviar--><g id="link_whatsapp_enviar"><path d="M386.5,167.026 C386.5,153.426 386.5,135.696 386.5,120.466 " fill="none" id="whatsapp-to-enviar" style="stroke:#FFFFFF;stroke-width:1.0;stroke-dasharray:7.0,7.0;"/><polygon fill="#FFFFFF" points="386.5,115.626,382.5,124.626,386.5,120.626,390.5,124.626,386.5,115.626" style="stroke:#FFFFFF;stroke-width:1.0;"/><text fill="#FFFFFF" font-family="Verdana" font-size="13" lengthAdjust="spacing" textLength="58" x="345" y="146.093">«include»</text></g><!--MD5=[af1744a6d1a4c4e78346793eeda700bb]
link messenger to enviar--><g id="link_messenger_enviar"><path d="M283.9,256.516 C266.3,249.946 249.4,240.766 236,227.946 C198.38,191.966 169.45,154.896 203.42,115.446 C219.2,97.116 241.53,87.186 265.2,82.296 " fill="none" id="messenger-to-enviar" style="stroke:#FFFFFF;stroke-width:1.0;stroke-dasharray:7.0,7.0;"/><polygon fill="#FFFFFF" points="270.08,81.386,260.5002,79.0997,265.1643,82.3006,261.9635,86.9647,270.08,81.386" style="stroke:#FFFFFF;stroke-width:1.0;"/><text fill="#FFFFFF" font-family="Verdana" font-size="13" lengthAdjust="spacing" textLength="58" x="169" y="130.343">«include»</text></g><!--MD5=[3beb2406b8c4b91f27db30447122cdf1]
link instagram to enviar--><g id="link_instagram_enviar"><path d="M295.54,350.136 C273.46,344.336 251.72,334.466 236,317.946 C181.01,260.156 155.57,205.276 203.42,141.446 C219.41,120.106 243.47,106.896 268.93,98.816 " fill="none" id="instagram-to-enviar" style="stroke:#FFFFFF;stroke-width:1.0;stroke-dasharray:7.0,7.0;"/><polygon fill="#FFFFFF" points="273.62,97.406,263.8485,96.1742,268.8328,98.8493,266.1577,103.8337,273.62,97.406" style="stroke:#FFFFFF;stroke-width:1.0;"/><text fill="#FFFFFF" font-family="Verdana" font-size="13" lengthAdjust="spacing" textLength="58" x="169" y="156.343">«include»</text></g><!--MD5=[41d0cda357ac6452bedd42d5cbc3abda]
link telegram to enviar--><g id="link_telegram_enviar"><path d="M296.97,429.126 C274.22,423.406 251.79,413.326 236,395.946 C168.22,321.306 155.63,260.226 203.42,171.446 C220.95,138.876 255.29,118.966 289.55,106.816 " fill="none" id="telegram-to-enviar" style="stroke:#FFFFFF;stroke-width:1.0;stroke-dasharray:7.0,7.0;"/><polygon fill="#FFFFFF" points="294.05,105.266,284.2403,104.3883,289.3181,106.8814,286.825,111.9592,294.05,105.266" style="stroke:#FFFFFF;stroke-width:1.0;"/><text fill="#FFFFFF" font-family="Verdana" font-size="13" lengthAdjust="spacing" textLength="58" x="169" y="186.343">«include»</text></g><!--MD5=[f9c3ac80860b4866dd44bcdc3a3731cc]
link whatsapp to must_have_session--><g id="link_whatsapp_must_have_session"><path d="M448.17,205.716 C468.97,212.006 492.23,219.666 513,227.946 C566.6,249.316 625.8,279.496 664.32,300.066 " fill="none" id="whatsapp-must_have_session" style="stroke:#FFFFFF;stroke-width:1.0;stroke-dasharray:7.0,7.0;"/></g><!--MD5=[85654e9276f8ea175a534381b08988eb]
link messenger to must_have_session--><g id="link_messenger_must_have_session"><path d="M490.03,289.046 C527.04,294.856 568.74,301.396 605.57,307.176 " fill="none" id="messenger-must_have_session" style="stroke:#FFFFFF;stroke-width:1.0;stroke-dasharray:7.0,7.0;"/></g><!--MD5=[b5f82bc20fc8cb28ab2c3c9d4ad8169f]
link instagram to must_have_session--><g id="link_instagram_must_have_session"><path d="M473.69,347.746 C514.41,343.396 563.25,338.186 605.63,333.656 " fill="none" id="instagram-must_have_session" style="stroke:#FFFFFF;stroke-width:1.0;stroke-dasharray:7.0,7.0;"/></g><!--MD5=[26a871a014c92ac193b8075966571e47]
link telegram to must_have_session--><g id="link_telegram_must_have_session"><path d="M444.27,418.096 C465.88,411.476 490.67,403.626 513,395.946 C558.73,380.206 609.9,360.766 648.06,345.906 " fill="none" id="telegram-must_have_session" style="stroke:#FFFFFF;stroke-width:1.0;stroke-dasharray:7.0,7.0;"/></g><!--MD5=[1ad398be0cb8856eaf46bb4caca1772f]
link user to whatsapp--><g id="link_user_whatsapp"><path d="M127.18,293.486 C157.46,271.436 197.27,245.216 236,227.946 C260.13,217.186 287.83,208.936 312.77,202.846 " fill="none" id="user-whatsapp" style="stroke:#FFFFFF;stroke-width:1.0;"/></g><!--MD5=[448e2106b006bd3735ff26de81e83eb2]
link user to messenger--><g id="link_user_messenger"><path d="M138.23,321.606 C182.2,312.946 241.73,301.236 291.37,291.466 " fill="none" id="user-messenger" style="stroke:#FFFFFF;stroke-width:1.0;"/></g><!--MD5=[80b623e5900c1d793c6598617578337a]
link user to instagram--><g id="link_user_instagram"><path d="M138.23,338.596 C183.35,341.946 244.86,346.516 295.24,350.246 " fill="none" id="user-instagram" style="stroke:#FFFFFF;stroke-width:1.0;"/></g><!--MD5=[57a1ee375d7e9f0a8edb7918d8c880ee]
link user to telegram--><g id="link_user_telegram"><path d="M138.18,360.056 C167.6,371.826 203.31,385.406 236,395.946 C263.44,404.796 294.2,413.086 320.65,419.736 " fill="none" id="user-telegram" style="stroke:#FFFFFF;stroke-width:1.0;"/></g></g></svg>