<?xml version="1.0" encoding="UTF-8" standalone="no"?><svg xmlns="http://www.w3.org/2000/svg" xmlns:xlink="http://www.w3.org/1999/xlink" contentStyleType="text/css" height="334px" preserveAspectRatio="none" style="width:945px;height:334px;background:#0B58A8;" version="1.1" viewBox="0 0 945 334" width="945px" zoomAndPan="magnify"><defs/><g><!--MD5=[202d2ff95125f5f15bd407211885fe73]
cluster TENANCY--><g id="cluster_TENANCY"><path d="M380.5,15.5 L486.3125,15.5 A3.75,3.75 0 0 1 488.8125,18 L495.8125,51.4641 L935.5,51.4641 A2.5,2.5 0 0 1 938,53.9641 L938,324 A2.5,2.5 0 0 1 935.5,326.5 L380.5,326.5 A2.5,2.5 0 0 1 378,324 L378,18 A2.5,2.5 0 0 1 380.5,15.5 " fill="#0B58A8" style="stroke:#FFFFFF;stroke-width:1.0;"/><line style="stroke:#FFFFFF;stroke-width:1.0;" x1="378" x2="495.8125" y1="51.4641" y2="51.4641"/><text fill="#FFFFFF" font-family="Verdana" font-size="22" font-weight="bold" lengthAdjust="spacing" textLength="104.8125" x="382" y="41.0181">TENANCY</text></g><g id="elem_listagem_nomes"><ellipse cx="482.0009" cy="290.5002" fill="#0B58A8" rx="88.0009" ry="20.0002" style="stroke:#FFFFFF;stroke-width:1.0;"/><text fill="#FFFFFF" font-family="Verdana" font-size="14" lengthAdjust="spacing" textLength="125" x="416.5009" y="295.2331">listagem de nomes</text></g><g id="elem_listagem"><ellipse cx="482.038" cy="149.391" fill="#0B58A8" rx="52.538" ry="16.891" style="stroke:#FFFFFF;stroke-width:1.0;"/><text fill="#FFFFFF" font-family="Verdana" font-size="14" lengthAdjust="spacing" textLength="56" x="451.038" y="154.124">listagem</text></g><g id="elem_cadastro"><ellipse cx="482.0503" cy="218.406" fill="#0B58A8" rx="54.0503" ry="16.906" style="stroke:#FFFFFF;stroke-width:1.0;"/><text fill="#FFFFFF" font-family="Verdana" font-size="14" lengthAdjust="spacing" textLength="58" x="450.0503" y="223.139">cadastro</text></g><g id="elem_desativacao"><ellipse cx="481.9332" cy="80.525" fill="#0B58A8" rx="69.9332" ry="17.025" style="stroke:#FFFFFF;stroke-width:1.0;"/><text fill="#FFFFFF" font-family="Verdana" font-size="14" lengthAdjust="spacing" textLength="79" x="439.4332" y="85.258">desativação</text></g><g id="elem_GMN9"><path d="M630,265 L630,284.99 L570.21,289.6 L630,292.99 L630,310.412 A0,0 0 0 0 630,310.412 L922,310.412 A0,0 0 0 0 922,310.412 L922,275 L912,265 L630,265 A0,0 0 0 0 630,265 " fill="#0B58A8" style="stroke:#FFFFFF;stroke-width:1.0;"/><path d="M912,265 L912,275 L922,275 L912,265 " fill="#0B58A8" style="stroke:#FFFFFF;stroke-width:1.0;"/><text fill="#FFFFFF" font-family="Verdana" font-size="13" lengthAdjust="spacing" textLength="271" x="636" y="283.897">Esta funcionalidade não requer autenticação,</text><text fill="#FFFFFF" font-family="Verdana" font-size="13" lengthAdjust="spacing" textLength="247" x="636" y="301.603">pois poderá ser utilizada na tela de login.</text></g><!--MD5=[8fc3522a43f8c7199df5e09e5bb0188e]
entity user--><g id="elem_user"><ellipse cx="172.5" cy="259.5" fill="#0B58A8" rx="8" ry="8" style="stroke:#FFFFFF;stroke-width:1.0;"/><path d="M172.5,267.5 L172.5,294.5 M159.5,275.5 L185.5,275.5 M172.5,294.5 L159.5,309.5 M172.5,294.5 L185.5,309.5 " fill="none" style="stroke:#FFFFFF;stroke-width:1.0;"/><text fill="#FFFFFF" font-family="Verdana" font-size="14" lengthAdjust="spacing" textLength="127" x="109" y="326.4659">Usuário do Sistema</text></g><!--MD5=[bde527e82fb6c92059bc15e46bea38f1]
entity sysadmin--><g id="elem_sysadmin"><ellipse cx="172.5" cy="118.5" fill="#0B58A8" rx="8" ry="8" style="stroke:#FFFFFF;stroke-width:1.0;"/><path d="M172.5,126.5 L172.5,153.5 M159.5,134.5 L185.5,134.5 M172.5,153.5 L159.5,168.5 M172.5,153.5 L185.5,168.5 " fill="none" style="stroke:#FFFFFF;stroke-width:1.0;"/><text fill="#FFFFFF" font-family="Verdana" font-size="14" lengthAdjust="spacing" textLength="170" x="87.5" y="185.4659">Administrador do Sistema</text></g><g id="elem_GMN16"><path d="M11,11 L11,74.118 A0,0 0 0 0 11,74.118 L168.5,74.118 L172.5,109.38 L176.5,74.118 L334,74.118 A0,0 0 0 0 334,74.118 L334,21 L324,11 L11,11 A0,0 0 0 0 11,11 " fill="#0B58A8" style="stroke:#FFFFFF;stroke-width:1.0;"/><path d="M324,11 L324,21 L334,21 L324,11 " fill="#0B58A8" style="stroke:#FFFFFF;stroke-width:1.0;"/><text fill="#FFFFFF" font-family="Verdana" font-size="13" lengthAdjust="spacing" textLength="295" x="17" y="29.897">O administrador do sistema deve ter permissões</text><text fill="#FFFFFF" font-family="Verdana" font-size="13" lengthAdjust="spacing" textLength="302" x="17" y="47.603">de alterações globais apenas para gerenciamento</text><text fill="#FFFFFF" font-family="Verdana" font-size="13" lengthAdjust="spacing" textLength="81" x="17" y="65.309">de inquilinos.</text></g><!--MD5=[040a1dd6e576fa40c6e3f536cedb6e02]
link user to listagem_nomes--><g id="link_user_listagem_nomes"><path d="M236.1,290.5 C281.49,290.5 343.47,290.5 393.73,290.5 " fill="none" id="user-listagem_nomes" style="stroke:#FFFFFF;stroke-width:1.0;"/></g><!--MD5=[369c416cf5b14c0e1e7d15b14245ab47]
link sysadmin to listagem--><g id="link_sysadmin_listagem"><path d="M257.53,149.5 C312.47,149.5 382.49,149.5 429.38,149.5 " fill="none" id="sysadmin-listagem" style="stroke:#FFFFFF;stroke-width:1.0;"/></g><!--MD5=[da8925c3c89253ceadea0121a01a7f37]
link sysadmin to cadastro--><g id="link_sysadmin_cadastro"><path d="M257.53,168.35 C315.67,181.4 390.7,198.24 437.33,208.7 " fill="none" id="sysadmin-cadastro" style="stroke:#FFFFFF;stroke-width:1.0;"/></g><!--MD5=[dabf7ccaae09177593194f52e6a82411]
link sysadmin to desativacao--><g id="link_sysadmin_desativacao"><path d="M257.53,130.65 C312.65,118.28 382.95,102.5 429.83,91.98 " fill="none" id="sysadmin-desativacao" style="stroke:#FFFFFF;stroke-width:1.0;"/></g></g></svg>