<?xml version="1.0" encoding="UTF-8" standalone="no"?><svg xmlns="http://www.w3.org/2000/svg" xmlns:xlink="http://www.w3.org/1999/xlink" contentStyleType="text/css" height="912px" preserveAspectRatio="none" style="width:1327px;height:912px;background:#0B58A8;" version="1.1" viewBox="0 0 1327 912" width="1327px" zoomAndPan="magnify"><defs/><g><rect fill="#0B58A8" height="583.0023" style="stroke:#FFFFFF;stroke-width:1.0;" width="10" x="493.5" y="196.186"/><rect fill="#0B58A8" height="95.118" style="stroke:#FFFFFF;stroke-width:1.0;" width="10" x="709.5" y="606.6582"/><rect fill="#0B58A8" height="255.6481" style="stroke:#FFFFFF;stroke-width:1.0;" width="10" x="776" y="273.598"/><rect fill="#0B58A8" height="31.706" style="stroke:#FFFFFF;stroke-width:1.0;" width="10" x="1063" y="305.304"/><rect fill="#0B58A8" height="31.706" style="stroke:#FFFFFF;stroke-width:1.0;" width="10" x="1063" y="458.8341"/><rect fill="#0B58A8" height="31.706" style="stroke:#FFFFFF;stroke-width:1.0;" width="10" x="1162.5" y="395.4221"/><rect fill="#0B58A8" height="31.706" style="stroke:#FFFFFF;stroke-width:1.0;" width="10" x="1268" y="638.3642"/><rect fill="#0B58A8" height="146.5301" style="stroke:#FFFFFF;stroke-width:1.0;" width="492" x="738.5" y="352.01"/><line style="stroke:#FFFFFF;stroke-width:1.0;stroke-dasharray:5.0,5.0;" x1="37" x2="37" y1="85.0679" y2="828.8943"/><line style="stroke:#FFFFFF;stroke-width:1.0;stroke-dasharray:5.0,5.0;" x1="287.5" x2="287.5" y1="85.0679" y2="828.8943"/><line style="stroke:#FFFFFF;stroke-width:1.0;stroke-dasharray:5.0,5.0;" x1="498" x2="498" y1="85.0679" y2="828.8943"/><line style="stroke:#FFFFFF;stroke-width:1.0;stroke-dasharray:5.0,5.0;" x1="714.5" x2="714.5" y1="85.0679" y2="828.8943"/><line style="stroke:#FFFFFF;stroke-width:1.0;stroke-dasharray:5.0,5.0;" x1="780.5" x2="780.5" y1="85.0679" y2="828.8943"/><line style="stroke:#FFFFFF;stroke-width:1.0;stroke-dasharray:5.0,5.0;" x1="1067.5" x2="1067.5" y1="85.0679" y2="828.8943"/><line style="stroke:#FFFFFF;stroke-width:1.0;stroke-dasharray:5.0,5.0;" x1="1167.5" x2="1167.5" y1="85.0679" y2="828.8943"/><line style="stroke:#FFFFFF;stroke-width:1.0;stroke-dasharray:5.0,5.0;" x1="1272.5" x2="1272.5" y1="85.0679" y2="828.8943"/><text fill="#FFFFFF" font-family="Verdana" font-size="14" lengthAdjust="spacing" textLength="49" x="10" y="80.9659">Usuário</text><ellipse cx="37.5" cy="14" fill="#0B58A8" rx="8" ry="8" style="stroke:#FFFFFF;stroke-width:1.0;"/><path d="M37.5,22 L37.5,49 M24.5,30 L50.5,30 M37.5,49 L24.5,64 M37.5,49 L50.5,64 " fill="none" style="stroke:#FFFFFF;stroke-width:1.0;"/><text fill="#FFFFFF" font-family="Verdana" font-size="14" lengthAdjust="spacing" textLength="49" x="10" y="842.8602">Usuário</text><ellipse cx="37.5" cy="855.9622" fill="#0B58A8" rx="8" ry="8" style="stroke:#FFFFFF;stroke-width:1.0;"/><path d="M37.5,863.9622 L37.5,890.9622 M24.5,871.9622 L50.5,871.9622 M37.5,890.9622 L24.5,905.9622 M37.5,890.9622 L50.5,905.9622 " fill="none" style="stroke:#FFFFFF;stroke-width:1.0;"/><text fill="#FFFFFF" font-family="Verdana" font-size="14" lengthAdjust="spacing" textLength="60" x="254.5" y="80.9659">FrontEnd</text><path d="M267,38 L267,62 M267,50 L284,50 " fill="none" style="stroke:#FFFFFF;stroke-width:1.0;"/><ellipse cx="296" cy="50" fill="#0B58A8" rx="12" ry="12" style="stroke:#FFFFFF;stroke-width:1.0;"/><text fill="#FFFFFF" font-family="Verdana" font-size="14" lengthAdjust="spacing" textLength="60" x="254.5" y="842.8602">FrontEnd</text><path d="M267,850.9622 L267,874.9622 M267,862.9622 L284,862.9622 " fill="none" style="stroke:#FFFFFF;stroke-width:1.0;"/><ellipse cx="296" cy="862.9622" fill="#0B58A8" rx="12" ry="12" style="stroke:#FFFFFF;stroke-width:1.0;"/><text fill="#FFFFFF" font-family="Verdana" font-size="14" lengthAdjust="spacing" textLength="23" x="484" y="80.9659">API</text><path d="M478,38 L478,62 M478,50 L495,50 " fill="none" style="stroke:#FFFFFF;stroke-width:1.0;"/><ellipse cx="507" cy="50" fill="#0B58A8" rx="12" ry="12" style="stroke:#FFFFFF;stroke-width:1.0;"/><text fill="#FFFFFF" font-family="Verdana" font-size="14" lengthAdjust="spacing" textLength="23" x="484" y="842.8602">API</text><path d="M478,850.9622 L478,874.9622 M478,862.9622 L495,862.9622 " fill="none" style="stroke:#FFFFFF;stroke-width:1.0;"/><ellipse cx="507" cy="862.9622" fill="#0B58A8" rx="12" ry="12" style="stroke:#FFFFFF;stroke-width:1.0;"/><text fill="#FFFFFF" font-family="Verdana" font-size="14" lengthAdjust="spacing" textLength="42" x="690.5" y="80.9659">USERS</text><ellipse cx="714.5" cy="50" fill="#0B58A8" rx="12" ry="12" style="stroke:#FFFFFF;stroke-width:1.0;"/><polygon fill="#FFFFFF" points="710.5,38,716.5,33,714.5,38,716.5,43,710.5,38" style="stroke:#FFFFFF;stroke-width:1.0;"/><text fill="#FFFFFF" font-family="Verdana" font-size="14" lengthAdjust="spacing" textLength="42" x="690.5" y="842.8602">USERS</text><ellipse cx="714.5" cy="862.9622" fill="#0B58A8" rx="12" ry="12" style="stroke:#FFFFFF;stroke-width:1.0;"/><polygon fill="#FFFFFF" points="710.5,850.9622,716.5,845.9622,714.5,850.9622,716.5,855.9622,710.5,850.9622" style="stroke:#FFFFFF;stroke-width:1.0;"/><text fill="#FFFFFF" font-family="Verdana" font-size="14" lengthAdjust="spacing" textLength="59" x="748.5" y="80.9659">SESSION</text><ellipse cx="781" cy="50" fill="#0B58A8" rx="12" ry="12" style="stroke:#FFFFFF;stroke-width:1.0;"/><polygon fill="#FFFFFF" points="777,38,783,33,781,38,783,43,777,38" style="stroke:#FFFFFF;stroke-width:1.0;"/><text fill="#FFFFFF" font-family="Verdana" font-size="14" lengthAdjust="spacing" textLength="59" x="748.5" y="842.8602">SESSION</text><ellipse cx="781" cy="862.9622" fill="#0B58A8" rx="12" ry="12" style="stroke:#FFFFFF;stroke-width:1.0;"/><polygon fill="#FFFFFF" points="777,850.9622,783,845.9622,781,850.9622,783,855.9622,777,850.9622" style="stroke:#FFFFFF;stroke-width:1.0;"/><rect fill="#0B58A8" height="33.0679" style="stroke:#FFFFFF;stroke-width:1.0;" width="49" x="1045.5" y="47"/><rect fill="#0B58A8" height="33.0679" style="stroke:#FFFFFF;stroke-width:1.0;" width="49" x="1041.5" y="51"/><text fill="#FFFFFF" font-family="Verdana" font-size="14" lengthAdjust="spacing" textLength="35" x="1048.5" y="72.9659">Redis</text><rect fill="#0B58A8" height="33.0679" style="stroke:#FFFFFF;stroke-width:1.0;" width="49" x="1045.5" y="827.8943"/><rect fill="#0B58A8" height="33.0679" style="stroke:#FFFFFF;stroke-width:1.0;" width="49" x="1041.5" y="831.8943"/><text fill="#FFFFFF" font-family="Verdana" font-size="14" lengthAdjust="spacing" textLength="35" x="1048.5" y="853.8602">Redis</text><rect fill="#0B58A8" height="33.0679" style="stroke:#FFFFFF;stroke-width:1.0;" width="82" x="1128.5" y="47"/><rect fill="#0B58A8" height="33.0679" style="stroke:#FFFFFF;stroke-width:1.0;" width="82" x="1124.5" y="51"/><text fill="#FFFFFF" font-family="Verdana" font-size="14" lengthAdjust="spacing" textLength="68" x="1131.5" y="72.9659">MongoDB</text><rect fill="#0B58A8" height="33.0679" style="stroke:#FFFFFF;stroke-width:1.0;" width="82" x="1128.5" y="827.8943"/><rect fill="#0B58A8" height="33.0679" style="stroke:#FFFFFF;stroke-width:1.0;" width="82" x="1124.5" y="831.8943"/><text fill="#FFFFFF" font-family="Verdana" font-size="14" lengthAdjust="spacing" textLength="68" x="1131.5" y="853.8602">MongoDB</text><text fill="#FFFFFF" font-family="Verdana" font-size="14" lengthAdjust="spacing" textLength="79" x="1230.5" y="80.9659">PostgreSQL</text><path d="M1255,30 C1255,20 1273,20 1273,20 C1273,20 1291,20 1291,30 L1291,56 C1291,66 1273,66 1273,66 C1273,66 1255,66 1255,56 L1255,30 " fill="#0B58A8" style="stroke:#FFFFFF;stroke-width:1.5;"/><path d="M1255,30 C1255,40 1273,40 1273,40 C1273,40 1291,40 1291,30 " fill="none" style="stroke:#FFFFFF;stroke-width:1.5;"/><text fill="#FFFFFF" font-family="Verdana" font-size="14" lengthAdjust="spacing" textLength="79" x="1230.5" y="842.8602">PostgreSQL</text><path d="M1255,856.9622 C1255,846.9622 1273,846.9622 1273,846.9622 C1273,846.9622 1291,846.9622 1291,856.9622 L1291,882.9622 C1291,892.9622 1273,892.9622 1273,892.9622 C1273,892.9622 1255,892.9622 1255,882.9622 L1255,856.9622 " fill="#0B58A8" style="stroke:#FFFFFF;stroke-width:1.5;"/><path d="M1255,856.9622 C1255,866.9622 1273,866.9622 1273,866.9622 C1273,866.9622 1291,866.9622 1291,856.9622 " fill="none" style="stroke:#FFFFFF;stroke-width:1.5;"/><rect fill="#0B58A8" height="583.0023" style="stroke:#FFFFFF;stroke-width:1.0;" width="10" x="493.5" y="196.186"/><rect fill="#0B58A8" height="95.118" style="stroke:#FFFFFF;stroke-width:1.0;" width="10" x="709.5" y="606.6582"/><rect fill="#0B58A8" height="255.6481" style="stroke:#FFFFFF;stroke-width:1.0;" width="10" x="776" y="273.598"/><rect fill="#0B58A8" height="31.706" style="stroke:#FFFFFF;stroke-width:1.0;" width="10" x="1063" y="305.304"/><rect fill="#0B58A8" height="31.706" style="stroke:#FFFFFF;stroke-width:1.0;" width="10" x="1063" y="458.8341"/><rect fill="#0B58A8" height="31.706" style="stroke:#FFFFFF;stroke-width:1.0;" width="10" x="1162.5" y="395.4221"/><rect fill="#0B58A8" height="31.706" style="stroke:#FFFFFF;stroke-width:1.0;" width="10" x="1268" y="638.3642"/><rect fill="#FFFFFF" height="3" style="stroke:#FFFFFF;stroke-width:1.0;" width="1315.5" x="5" y="116.9209"/><line style="stroke:#FFFFFF;stroke-width:0.5;" x1="5" x2="1320.5" y1="116.9209" y2="116.9209"/><line style="stroke:#FFFFFF;stroke-width:0.5;" x1="5" x2="1320.5" y1="119.9209" y2="119.9209"/><rect fill="#FFFFFF" height="25.706" style="stroke:#FFFFFF;stroke-width:1.0;" width="150.3125" x="587.5938" y="105.0679"/><text fill="#0B58A8" font-family="Verdana" font-size="13" font-weight="bold" lengthAdjust="spacing" textLength="133.3125" x="593.5938" y="122.9649">Interação do usuário</text><polygon fill="#FFFFFF" points="275.5,160.4799,285.5,164.4799,275.5,168.4799,279.5,164.4799" style="stroke:#FFFFFF;stroke-width:1.0;"/><line style="stroke:#FFFFFF;stroke-width:1.0;" x1="37.5" x2="281.5" y1="164.4799" y2="164.4799"/><text fill="#FFFFFF" font-family="Verdana" font-size="13" lengthAdjust="spacing" textLength="184" x="44.5" y="158.6709">Consulta dados de um usuário</text><polygon fill="#FFFFFF" points="481.5,192.186,491.5,196.186,481.5,200.186,485.5,196.186" style="stroke:#FFFFFF;stroke-width:1.0;"/><line style="stroke:#FFFFFF;stroke-width:1.0;" x1="287.5" x2="487.5" y1="196.186" y2="196.186"/><text fill="#FFFFFF" font-family="Verdana" font-size="13" lengthAdjust="spacing" textLength="187" x="294.5" y="190.377">Requisita dados de um usuário</text><rect fill="#FFFFFF" height="3" style="stroke:#FFFFFF;stroke-width:1.0;" width="1315.5" x="5" y="226.039"/><line style="stroke:#FFFFFF;stroke-width:0.5;" x1="5" x2="1320.5" y1="226.039" y2="226.039"/><line style="stroke:#FFFFFF;stroke-width:0.5;" x1="5" x2="1320.5" y1="229.039" y2="229.039"/><rect fill="#FFFFFF" height="25.706" style="stroke:#FFFFFF;stroke-width:1.0;" width="98.875" x="613.3125" y="214.186"/><text fill="#0B58A8" font-family="Verdana" font-size="13" font-weight="bold" lengthAdjust="spacing" textLength="81.875" x="619.3125" y="232.083">Autenticação</text><polygon fill="#FFFFFF" points="764,269.598,774,273.598,764,277.598,768,273.598" style="stroke:#FFFFFF;stroke-width:1.0;"/><line style="stroke:#FFFFFF;stroke-width:1.0;" x1="503.5" x2="770" y1="273.598" y2="273.598"/><text fill="#FFFFFF" font-family="Verdana" font-size="13" lengthAdjust="spacing" textLength="164" x="510.5" y="267.789">Verifica validade da sessão</text><polygon fill="#FFFFFF" points="1051,301.304,1061,305.304,1051,309.304,1055,305.304" style="stroke:#FFFFFF;stroke-width:1.0;"/><line style="stroke:#FFFFFF;stroke-width:1.0;" x1="786" x2="1057" y1="305.304" y2="305.304"/><text fill="#FFFFFF" font-family="Verdana" font-size="13" lengthAdjust="spacing" textLength="258" x="793" y="299.495">Requisição dos dados da sessão em cache</text><polygon fill="#FFFFFF" points="797,333.01,787,337.01,797,341.01,793,337.01" style="stroke:#FFFFFF;stroke-width:1.0;"/><line style="stroke:#FFFFFF;stroke-width:1.0;stroke-dasharray:2.0,2.0;" x1="791" x2="1067" y1="337.01" y2="337.01"/><text fill="#FFFFFF" font-family="Verdana" font-size="13" lengthAdjust="spacing" textLength="202" x="803" y="331.201">Resultado da requisição do cache</text><path d="M738.5,352.01 L798.7188,352.01 L798.7188,361.716 L788.7188,371.716 L738.5,371.716 L738.5,352.01 " fill="#FFFFFF" style="stroke:#FFFFFF;stroke-width:1.0;"/><rect fill="none" height="146.5301" style="stroke:#FFFFFF;stroke-width:1.0;" width="492" x="738.5" y="352.01"/><text fill="#0B58A8" font-family="Verdana" font-size="13" font-weight="bold" lengthAdjust="spacing" textLength="15.2188" x="753.5" y="366.907">alt</text><text fill="#FFFFFF" font-family="Verdana" font-size="11" font-weight="bold" lengthAdjust="spacing" textLength="205.625" x="813.7188" y="365.7689">[Se a sessão não estiver em cache]</text><polygon fill="#FFFFFF" points="1150.5,391.4221,1160.5,395.4221,1150.5,399.4221,1154.5,395.4221" style="stroke:#FFFFFF;stroke-width:1.0;"/><line style="stroke:#FFFFFF;stroke-width:1.0;" x1="786" x2="1156.5" y1="395.4221" y2="395.4221"/><text fill="#FFFFFF" font-family="Verdana" font-size="13" lengthAdjust="spacing" textLength="199" x="793" y="389.6131">Requisição dos dados de sessão</text><polygon fill="#FFFFFF" points="797,423.1281,787,427.1281,797,431.1281,793,427.1281" style="stroke:#FFFFFF;stroke-width:1.0;"/><line style="stroke:#FFFFFF;stroke-width:1.0;stroke-dasharray:2.0,2.0;" x1="791" x2="1166.5" y1="427.1281" y2="427.1281"/><text fill="#FFFFFF" font-family="Verdana" font-size="13" lengthAdjust="spacing" textLength="104" x="803" y="421.3191">Dados da sessão</text><polygon fill="#FFFFFF" points="1051,454.8341,1061,458.8341,1051,462.8341,1055,458.8341" style="stroke:#FFFFFF;stroke-width:1.0;"/><line style="stroke:#FFFFFF;stroke-width:1.0;" x1="786" x2="1057" y1="458.8341" y2="458.8341"/><text fill="#FFFFFF" font-family="Verdana" font-size="13" lengthAdjust="spacing" textLength="149" x="793" y="453.0251">Salva a sessão em cache</text><polygon fill="#FFFFFF" points="797,486.5401,787,490.5401,797,494.5401,793,490.5401" style="stroke:#FFFFFF;stroke-width:1.0;"/><line style="stroke:#FFFFFF;stroke-width:1.0;stroke-dasharray:2.0,2.0;" x1="791" x2="1067" y1="490.5401" y2="490.5401"/><text fill="#FFFFFF" font-family="Verdana" font-size="13" lengthAdjust="spacing" textLength="52" x="803" y="484.7311">Sucesso</text><polygon fill="#FFFFFF" points="514.5,525.2461,504.5,529.2461,514.5,533.2461,510.5,529.2461" style="stroke:#FFFFFF;stroke-width:1.0;"/><line style="stroke:#FFFFFF;stroke-width:1.0;stroke-dasharray:2.0,2.0;" x1="508.5" x2="780" y1="529.2461" y2="529.2461"/><text fill="#FFFFFF" font-family="Verdana" font-size="13" lengthAdjust="spacing" textLength="129" x="520.5" y="523.4371">Aprovação da sessão</text><rect fill="#FFFFFF" height="3" style="stroke:#FFFFFF;stroke-width:1.0;" width="1315.5" x="5" y="559.0991"/><line style="stroke:#FFFFFF;stroke-width:0.5;" x1="5" x2="1320.5" y1="559.0991" y2="559.0991"/><line style="stroke:#FFFFFF;stroke-width:0.5;" x1="5" x2="1320.5" y1="562.0991" y2="562.0991"/><rect fill="#FFFFFF" height="25.706" style="stroke:#FFFFFF;stroke-width:1.0;" width="242.375" x="541.5625" y="547.2461"/><text fill="#0B58A8" font-family="Verdana" font-size="13" font-weight="bold" lengthAdjust="spacing" textLength="225.375" x="547.5625" y="565.1431">Recuperação de dados de usuários</text><polygon fill="#FFFFFF" points="697.5,602.6582,707.5,606.6582,697.5,610.6582,701.5,606.6582" style="stroke:#FFFFFF;stroke-width:1.0;"/><line style="stroke:#FFFFFF;stroke-width:1.0;" x1="503.5" x2="703.5" y1="606.6582" y2="606.6582"/><text fill="#FFFFFF" font-family="Verdana" font-size="13" lengthAdjust="spacing" textLength="187" x="510.5" y="600.8492">Requisita dados de um usuário</text><polygon fill="#FFFFFF" points="1256,634.3642,1266,638.3642,1256,642.3642,1260,638.3642" style="stroke:#FFFFFF;stroke-width:1.0;"/><line style="stroke:#FFFFFF;stroke-width:1.0;" x1="719.5" x2="1262" y1="638.3642" y2="638.3642"/><text fill="#FFFFFF" font-family="Verdana" font-size="13" lengthAdjust="spacing" textLength="187" x="726.5" y="632.5552">Requisita dados de um usuário</text><polygon fill="#FFFFFF" points="730.5,666.0702,720.5,670.0702,730.5,674.0702,726.5,670.0702" style="stroke:#FFFFFF;stroke-width:1.0;"/><line style="stroke:#FFFFFF;stroke-width:1.0;stroke-dasharray:2.0,2.0;" x1="724.5" x2="1272" y1="670.0702" y2="670.0702"/><text fill="#FFFFFF" font-family="Verdana" font-size="13" lengthAdjust="spacing" textLength="157" x="736.5" y="664.2612">Retorna dados do usuário</text><polygon fill="#FFFFFF" points="514.5,697.7762,504.5,701.7762,514.5,705.7762,510.5,701.7762" style="stroke:#FFFFFF;stroke-width:1.0;"/><line style="stroke:#FFFFFF;stroke-width:1.0;stroke-dasharray:2.0,2.0;" x1="508.5" x2="713.5" y1="701.7762" y2="701.7762"/><text fill="#FFFFFF" font-family="Verdana" font-size="13" lengthAdjust="spacing" textLength="157" x="520.5" y="695.9672">Retorna dados do usuário</text><rect fill="#FFFFFF" height="3" style="stroke:#FFFFFF;stroke-width:1.0;" width="1315.5" x="5" y="731.6292"/><line style="stroke:#FFFFFF;stroke-width:0.5;" x1="5" x2="1320.5" y1="731.6292" y2="731.6292"/><line style="stroke:#FFFFFF;stroke-width:0.5;" x1="5" x2="1320.5" y1="734.6292" y2="734.6292"/><rect fill="#FFFFFF" height="25.706" style="stroke:#FFFFFF;stroke-width:1.0;" width="112.875" x="606.3125" y="719.7762"/><text fill="#0B58A8" font-family="Verdana" font-size="13" font-weight="bold" lengthAdjust="spacing" textLength="95.875" x="612.3125" y="737.6732">Retorno da API</text><polygon fill="#FFFFFF" points="298.5,775.1882,288.5,779.1882,298.5,783.1882,294.5,779.1882" style="stroke:#FFFFFF;stroke-width:1.0;"/><line style="stroke:#FFFFFF;stroke-width:1.0;stroke-dasharray:2.0,2.0;" x1="292.5" x2="497.5" y1="779.1882" y2="779.1882"/><text fill="#FFFFFF" font-family="Verdana" font-size="13" lengthAdjust="spacing" textLength="157" x="304.5" y="773.3792">Retorna dados do usuário</text><polygon fill="#FFFFFF" points="48.5,806.8943,38.5,810.8943,48.5,814.8943,44.5,810.8943" style="stroke:#FFFFFF;stroke-width:1.0;"/><line style="stroke:#FFFFFF;stroke-width:1.0;stroke-dasharray:2.0,2.0;" x1="42.5" x2="286.5" y1="810.8943" y2="810.8943"/><text fill="#FFFFFF" font-family="Verdana" font-size="13" lengthAdjust="spacing" textLength="226" x="54.5" y="805.0853">Mostra dados do usuário na interface</text></g></svg>