<?xml version="1.0" encoding="UTF-8" standalone="no"?><svg xmlns="http://www.w3.org/2000/svg" xmlns:xlink="http://www.w3.org/1999/xlink" contentStyleType="text/css" height="912px" preserveAspectRatio="none" style="width:1229px;height:912px;background:#0B58A8;" version="1.1" viewBox="0 0 1229 912" width="1229px" zoomAndPan="magnify"><defs/><g><rect fill="#0B58A8" height="583.0023" style="stroke:#FFFFFF;stroke-width:1.0;" width="10" x="428.5" y="196.186"/><rect fill="#0B58A8" height="95.118" style="stroke:#FFFFFF;stroke-width:1.0;" width="10" x="615.5" y="606.6582"/><rect fill="#0B58A8" height="255.6481" style="stroke:#FFFFFF;stroke-width:1.0;" width="10" x="678" y="273.598"/><rect fill="#0B58A8" height="31.706" style="stroke:#FFFFFF;stroke-width:1.0;" width="10" x="965" y="305.304"/><rect fill="#0B58A8" height="31.706" style="stroke:#FFFFFF;stroke-width:1.0;" width="10" x="965" y="458.8341"/><rect fill="#0B58A8" height="31.706" style="stroke:#FFFFFF;stroke-width:1.0;" width="10" x="1064.5" y="395.4221"/><rect fill="#0B58A8" height="31.706" style="stroke:#FFFFFF;stroke-width:1.0;" width="10" x="1170" y="638.3642"/><rect fill="#0B58A8" height="146.5301" style="stroke:#FFFFFF;stroke-width:1.0;" width="492" x="640.5" y="352.01"/><line style="stroke:#FFFFFF;stroke-width:1.0;stroke-dasharray:5.0,5.0;" x1="37" x2="37" y1="85.0679" y2="828.8943"/><line style="stroke:#FFFFFF;stroke-width:1.0;stroke-dasharray:5.0,5.0;" x1="234.5" x2="234.5" y1="85.0679" y2="828.8943"/><line style="stroke:#FFFFFF;stroke-width:1.0;stroke-dasharray:5.0,5.0;" x1="433" x2="433" y1="85.0679" y2="828.8943"/><line style="stroke:#FFFFFF;stroke-width:1.0;stroke-dasharray:5.0,5.0;" x1="620.5" x2="620.5" y1="85.0679" y2="828.8943"/><line style="stroke:#FFFFFF;stroke-width:1.0;stroke-dasharray:5.0,5.0;" x1="682.5" x2="682.5" y1="85.0679" y2="828.8943"/><line style="stroke:#FFFFFF;stroke-width:1.0;stroke-dasharray:5.0,5.0;" x1="969.5" x2="969.5" y1="85.0679" y2="828.8943"/><line style="stroke:#FFFFFF;stroke-width:1.0;stroke-dasharray:5.0,5.0;" x1="1069.5" x2="1069.5" y1="85.0679" y2="828.8943"/><line style="stroke:#FFFFFF;stroke-width:1.0;stroke-dasharray:5.0,5.0;" x1="1174.5" x2="1174.5" y1="85.0679" y2="828.8943"/><text fill="#FFFFFF" font-family="Verdana" font-size="14" lengthAdjust="spacing" textLength="49" x="10" y="80.9659">Usuário</text><ellipse cx="37.5" cy="14" fill="#0B58A8" rx="8" ry="8" style="stroke:#FFFFFF;stroke-width:1.0;"/><path d="M37.5,22 L37.5,49 M24.5,30 L50.5,30 M37.5,49 L24.5,64 M37.5,49 L50.5,64 " fill="none" style="stroke:#FFFFFF;stroke-width:1.0;"/><text fill="#FFFFFF" font-family="Verdana" font-size="14" lengthAdjust="spacing" textLength="49" x="10" y="842.8602">Usuário</text><ellipse cx="37.5" cy="855.9622" fill="#0B58A8" rx="8" ry="8" style="stroke:#FFFFFF;stroke-width:1.0;"/><path d="M37.5,863.9622 L37.5,890.9622 M24.5,871.9622 L50.5,871.9622 M37.5,890.9622 L24.5,905.9622 M37.5,890.9622 L50.5,905.9622 " fill="none" style="stroke:#FFFFFF;stroke-width:1.0;"/><text fill="#FFFFFF" font-family="Verdana" font-size="14" lengthAdjust="spacing" textLength="60" x="201.5" y="80.9659">FrontEnd</text><path d="M214,38 L214,62 M214,50 L231,50 " fill="none" style="stroke:#FFFFFF;stroke-width:1.0;"/><ellipse cx="243" cy="50" fill="#0B58A8" rx="12" ry="12" style="stroke:#FFFFFF;stroke-width:1.0;"/><text fill="#FFFFFF" font-family="Verdana" font-size="14" lengthAdjust="spacing" textLength="60" x="201.5" y="842.8602">FrontEnd</text><path d="M214,850.9622 L214,874.9622 M214,862.9622 L231,862.9622 " fill="none" style="stroke:#FFFFFF;stroke-width:1.0;"/><ellipse cx="243" cy="862.9622" fill="#0B58A8" rx="12" ry="12" style="stroke:#FFFFFF;stroke-width:1.0;"/><text fill="#FFFFFF" font-family="Verdana" font-size="14" lengthAdjust="spacing" textLength="23" x="419" y="80.9659">API</text><path d="M413,38 L413,62 M413,50 L430,50 " fill="none" style="stroke:#FFFFFF;stroke-width:1.0;"/><ellipse cx="442" cy="50" fill="#0B58A8" rx="12" ry="12" style="stroke:#FFFFFF;stroke-width:1.0;"/><text fill="#FFFFFF" font-family="Verdana" font-size="14" lengthAdjust="spacing" textLength="23" x="419" y="842.8602">API</text><path d="M413,850.9622 L413,874.9622 M413,862.9622 L430,862.9622 " fill="none" style="stroke:#FFFFFF;stroke-width:1.0;"/><ellipse cx="442" cy="862.9622" fill="#0B58A8" rx="12" ry="12" style="stroke:#FFFFFF;stroke-width:1.0;"/><text fill="#FFFFFF" font-family="Verdana" font-size="14" lengthAdjust="spacing" textLength="34" x="600.5" y="80.9659">USER</text><ellipse cx="620.5" cy="50" fill="#0B58A8" rx="12" ry="12" style="stroke:#FFFFFF;stroke-width:1.0;"/><polygon fill="#FFFFFF" points="616.5,38,622.5,33,620.5,38,622.5,43,616.5,38" style="stroke:#FFFFFF;stroke-width:1.0;"/><text fill="#FFFFFF" font-family="Verdana" font-size="14" lengthAdjust="spacing" textLength="34" x="600.5" y="842.8602">USER</text><ellipse cx="620.5" cy="862.9622" fill="#0B58A8" rx="12" ry="12" style="stroke:#FFFFFF;stroke-width:1.0;"/><polygon fill="#FFFFFF" points="616.5,850.9622,622.5,845.9622,620.5,850.9622,622.5,855.9622,616.5,850.9622" style="stroke:#FFFFFF;stroke-width:1.0;"/><text fill="#FFFFFF" font-family="Verdana" font-size="14" lengthAdjust="spacing" textLength="59" x="650.5" y="80.9659">SESSION</text><ellipse cx="683" cy="50" fill="#0B58A8" rx="12" ry="12" style="stroke:#FFFFFF;stroke-width:1.0;"/><polygon fill="#FFFFFF" points="679,38,685,33,683,38,685,43,679,38" style="stroke:#FFFFFF;stroke-width:1.0;"/><text fill="#FFFFFF" font-family="Verdana" font-size="14" lengthAdjust="spacing" textLength="59" x="650.5" y="842.8602">SESSION</text><ellipse cx="683" cy="862.9622" fill="#0B58A8" rx="12" ry="12" style="stroke:#FFFFFF;stroke-width:1.0;"/><polygon fill="#FFFFFF" points="679,850.9622,685,845.9622,683,850.9622,685,855.9622,679,850.9622" style="stroke:#FFFFFF;stroke-width:1.0;"/><rect fill="#0B58A8" height="33.0679" style="stroke:#FFFFFF;stroke-width:1.0;" width="49" x="947.5" y="47"/><rect fill="#0B58A8" height="33.0679" style="stroke:#FFFFFF;stroke-width:1.0;" width="49" x="943.5" y="51"/><text fill="#FFFFFF" font-family="Verdana" font-size="14" lengthAdjust="spacing" textLength="35" x="950.5" y="72.9659">Redis</text><rect fill="#0B58A8" height="33.0679" style="stroke:#FFFFFF;stroke-width:1.0;" width="49" x="947.5" y="827.8943"/><rect fill="#0B58A8" height="33.0679" style="stroke:#FFFFFF;stroke-width:1.0;" width="49" x="943.5" y="831.8943"/><text fill="#FFFFFF" font-family="Verdana" font-size="14" lengthAdjust="spacing" textLength="35" x="950.5" y="853.8602">Redis</text><rect fill="#0B58A8" height="33.0679" style="stroke:#FFFFFF;stroke-width:1.0;" width="82" x="1030.5" y="47"/><rect fill="#0B58A8" height="33.0679" style="stroke:#FFFFFF;stroke-width:1.0;" width="82" x="1026.5" y="51"/><text fill="#FFFFFF" font-family="Verdana" font-size="14" lengthAdjust="spacing" textLength="68" x="1033.5" y="72.9659">MongoDB</text><rect fill="#0B58A8" height="33.0679" style="stroke:#FFFFFF;stroke-width:1.0;" width="82" x="1030.5" y="827.8943"/><rect fill="#0B58A8" height="33.0679" style="stroke:#FFFFFF;stroke-width:1.0;" width="82" x="1026.5" y="831.8943"/><text fill="#FFFFFF" font-family="Verdana" font-size="14" lengthAdjust="spacing" textLength="68" x="1033.5" y="853.8602">MongoDB</text><text fill="#FFFFFF" font-family="Verdana" font-size="14" lengthAdjust="spacing" textLength="79" x="1132.5" y="80.9659">PostgreSQL</text><path d="M1157,30 C1157,20 1175,20 1175,20 C1175,20 1193,20 1193,30 L1193,56 C1193,66 1175,66 1175,66 C1175,66 1157,66 1157,56 L1157,30 " fill="#0B58A8" style="stroke:#FFFFFF;stroke-width:1.5;"/><path d="M1157,30 C1157,40 1175,40 1175,40 C1175,40 1193,40 1193,30 " fill="none" style="stroke:#FFFFFF;stroke-width:1.5;"/><text fill="#FFFFFF" font-family="Verdana" font-size="14" lengthAdjust="spacing" textLength="79" x="1132.5" y="842.8602">PostgreSQL</text><path d="M1157,856.9622 C1157,846.9622 1175,846.9622 1175,846.9622 C1175,846.9622 1193,846.9622 1193,856.9622 L1193,882.9622 C1193,892.9622 1175,892.9622 1175,892.9622 C1175,892.9622 1157,892.9622 1157,882.9622 L1157,856.9622 " fill="#0B58A8" style="stroke:#FFFFFF;stroke-width:1.5;"/><path d="M1157,856.9622 C1157,866.9622 1175,866.9622 1175,866.9622 C1175,866.9622 1193,866.9622 1193,856.9622 " fill="none" style="stroke:#FFFFFF;stroke-width:1.5;"/><rect fill="#0B58A8" height="583.0023" style="stroke:#FFFFFF;stroke-width:1.0;" width="10" x="428.5" y="196.186"/><rect fill="#0B58A8" height="95.118" style="stroke:#FFFFFF;stroke-width:1.0;" width="10" x="615.5" y="606.6582"/><rect fill="#0B58A8" height="255.6481" style="stroke:#FFFFFF;stroke-width:1.0;" width="10" x="678" y="273.598"/><rect fill="#0B58A8" height="31.706" style="stroke:#FFFFFF;stroke-width:1.0;" width="10" x="965" y="305.304"/><rect fill="#0B58A8" height="31.706" style="stroke:#FFFFFF;stroke-width:1.0;" width="10" x="965" y="458.8341"/><rect fill="#0B58A8" height="31.706" style="stroke:#FFFFFF;stroke-width:1.0;" width="10" x="1064.5" y="395.4221"/><rect fill="#0B58A8" height="31.706" style="stroke:#FFFFFF;stroke-width:1.0;" width="10" x="1170" y="638.3642"/><rect fill="#FFFFFF" height="3" style="stroke:#FFFFFF;stroke-width:1.0;" width="1217.5" x="5" y="116.9209"/><line style="stroke:#FFFFFF;stroke-width:0.5;" x1="5" x2="1222.5" y1="116.9209" y2="116.9209"/><line style="stroke:#FFFFFF;stroke-width:0.5;" x1="5" x2="1222.5" y1="119.9209" y2="119.9209"/><rect fill="#FFFFFF" height="25.706" style="stroke:#FFFFFF;stroke-width:1.0;" width="150.3125" x="538.5938" y="105.0679"/><text fill="#0B58A8" font-family="Verdana" font-size="13" font-weight="bold" lengthAdjust="spacing" textLength="133.3125" x="544.5938" y="122.9649">Interação do usuário</text><polygon fill="#FFFFFF" points="222.5,160.4799,232.5,164.4799,222.5,168.4799,226.5,164.4799" style="stroke:#FFFFFF;stroke-width:1.0;"/><line style="stroke:#FFFFFF;stroke-width:1.0;" x1="37.5" x2="228.5" y1="164.4799" y2="164.4799"/><text fill="#FFFFFF" font-family="Verdana" font-size="13" lengthAdjust="spacing" textLength="145" x="44.5" y="158.6709">Acessa lista de usuários</text><polygon fill="#FFFFFF" points="416.5,192.186,426.5,196.186,416.5,200.186,420.5,196.186" style="stroke:#FFFFFF;stroke-width:1.0;"/><line style="stroke:#FFFFFF;stroke-width:1.0;" x1="234.5" x2="422.5" y1="196.186" y2="196.186"/><text fill="#FFFFFF" font-family="Verdana" font-size="13" lengthAdjust="spacing" textLength="175" x="241.5" y="190.377">Requisita página de usuários</text><rect fill="#FFFFFF" height="3" style="stroke:#FFFFFF;stroke-width:1.0;" width="1217.5" x="5" y="226.039"/><line style="stroke:#FFFFFF;stroke-width:0.5;" x1="5" x2="1222.5" y1="226.039" y2="226.039"/><line style="stroke:#FFFFFF;stroke-width:0.5;" x1="5" x2="1222.5" y1="229.039" y2="229.039"/><rect fill="#FFFFFF" height="25.706" style="stroke:#FFFFFF;stroke-width:1.0;" width="98.875" x="564.3125" y="214.186"/><text fill="#0B58A8" font-family="Verdana" font-size="13" font-weight="bold" lengthAdjust="spacing" textLength="81.875" x="570.3125" y="232.083">Autenticação</text><polygon fill="#FFFFFF" points="666,269.598,676,273.598,666,277.598,670,273.598" style="stroke:#FFFFFF;stroke-width:1.0;"/><line style="stroke:#FFFFFF;stroke-width:1.0;" x1="438.5" x2="672" y1="273.598" y2="273.598"/><text fill="#FFFFFF" font-family="Verdana" font-size="13" lengthAdjust="spacing" textLength="164" x="445.5" y="267.789">Verifica validade da sessão</text><polygon fill="#FFFFFF" points="953,301.304,963,305.304,953,309.304,957,305.304" style="stroke:#FFFFFF;stroke-width:1.0;"/><line style="stroke:#FFFFFF;stroke-width:1.0;" x1="688" x2="959" y1="305.304" y2="305.304"/><text fill="#FFFFFF" font-family="Verdana" font-size="13" lengthAdjust="spacing" textLength="258" x="695" y="299.495">Requisição dos dados da sessão em cache</text><polygon fill="#FFFFFF" points="699,333.01,689,337.01,699,341.01,695,337.01" style="stroke:#FFFFFF;stroke-width:1.0;"/><line style="stroke:#FFFFFF;stroke-width:1.0;stroke-dasharray:2.0,2.0;" x1="693" x2="969" y1="337.01" y2="337.01"/><text fill="#FFFFFF" font-family="Verdana" font-size="13" lengthAdjust="spacing" textLength="202" x="705" y="331.201">Resultado da requisição do cache</text><path d="M640.5,352.01 L700.7188,352.01 L700.7188,361.716 L690.7188,371.716 L640.5,371.716 L640.5,352.01 " fill="#FFFFFF" style="stroke:#FFFFFF;stroke-width:1.0;"/><rect fill="none" height="146.5301" style="stroke:#FFFFFF;stroke-width:1.0;" width="492" x="640.5" y="352.01"/><text fill="#0B58A8" font-family="Verdana" font-size="13" font-weight="bold" lengthAdjust="spacing" textLength="15.2188" x="655.5" y="366.907">alt</text><text fill="#FFFFFF" font-family="Verdana" font-size="11" font-weight="bold" lengthAdjust="spacing" textLength="205.625" x="715.7188" y="365.7689">[Se a sessão não estiver em cache]</text><polygon fill="#FFFFFF" points="1052.5,391.4221,1062.5,395.4221,1052.5,399.4221,1056.5,395.4221" style="stroke:#FFFFFF;stroke-width:1.0;"/><line style="stroke:#FFFFFF;stroke-width:1.0;" x1="688" x2="1058.5" y1="395.4221" y2="395.4221"/><text fill="#FFFFFF" font-family="Verdana" font-size="13" lengthAdjust="spacing" textLength="199" x="695" y="389.6131">Requisição dos dados de sessão</text><polygon fill="#FFFFFF" points="699,423.1281,689,427.1281,699,431.1281,695,427.1281" style="stroke:#FFFFFF;stroke-width:1.0;"/><line style="stroke:#FFFFFF;stroke-width:1.0;stroke-dasharray:2.0,2.0;" x1="693" x2="1068.5" y1="427.1281" y2="427.1281"/><text fill="#FFFFFF" font-family="Verdana" font-size="13" lengthAdjust="spacing" textLength="104" x="705" y="421.3191">Dados da sessão</text><polygon fill="#FFFFFF" points="953,454.8341,963,458.8341,953,462.8341,957,458.8341" style="stroke:#FFFFFF;stroke-width:1.0;"/><line style="stroke:#FFFFFF;stroke-width:1.0;" x1="688" x2="959" y1="458.8341" y2="458.8341"/><text fill="#FFFFFF" font-family="Verdana" font-size="13" lengthAdjust="spacing" textLength="149" x="695" y="453.0251">Salva a sessão em cache</text><polygon fill="#FFFFFF" points="699,486.5401,689,490.5401,699,494.5401,695,490.5401" style="stroke:#FFFFFF;stroke-width:1.0;"/><line style="stroke:#FFFFFF;stroke-width:1.0;stroke-dasharray:2.0,2.0;" x1="693" x2="969" y1="490.5401" y2="490.5401"/><text fill="#FFFFFF" font-family="Verdana" font-size="13" lengthAdjust="spacing" textLength="52" x="705" y="484.7311">Sucesso</text><polygon fill="#FFFFFF" points="449.5,525.2461,439.5,529.2461,449.5,533.2461,445.5,529.2461" style="stroke:#FFFFFF;stroke-width:1.0;"/><line style="stroke:#FFFFFF;stroke-width:1.0;stroke-dasharray:2.0,2.0;" x1="443.5" x2="682" y1="529.2461" y2="529.2461"/><text fill="#FFFFFF" font-family="Verdana" font-size="13" lengthAdjust="spacing" textLength="129" x="455.5" y="523.4371">Aprovação da sessão</text><rect fill="#FFFFFF" height="3" style="stroke:#FFFFFF;stroke-width:1.0;" width="1217.5" x="5" y="559.0991"/><line style="stroke:#FFFFFF;stroke-width:0.5;" x1="5" x2="1222.5" y1="559.0991" y2="559.0991"/><line style="stroke:#FFFFFF;stroke-width:0.5;" x1="5" x2="1222.5" y1="562.0991" y2="562.0991"/><rect fill="#FFFFFF" height="25.706" style="stroke:#FFFFFF;stroke-width:1.0;" width="242.375" x="492.5625" y="547.2461"/><text fill="#0B58A8" font-family="Verdana" font-size="13" font-weight="bold" lengthAdjust="spacing" textLength="225.375" x="498.5625" y="565.1431">Recuperação de dados de usuários</text><polygon fill="#FFFFFF" points="603.5,602.6582,613.5,606.6582,603.5,610.6582,607.5,606.6582" style="stroke:#FFFFFF;stroke-width:1.0;"/><line style="stroke:#FFFFFF;stroke-width:1.0;" x1="438.5" x2="609.5" y1="606.6582" y2="606.6582"/><text fill="#FFFFFF" font-family="Verdana" font-size="13" lengthAdjust="spacing" textLength="158" x="445.5" y="600.8492">Requisita lista de usuários</text><polygon fill="#FFFFFF" points="1158,634.3642,1168,638.3642,1158,642.3642,1162,638.3642" style="stroke:#FFFFFF;stroke-width:1.0;"/><line style="stroke:#FFFFFF;stroke-width:1.0;" x1="625.5" x2="1164" y1="638.3642" y2="638.3642"/><text fill="#FFFFFF" font-family="Verdana" font-size="13" lengthAdjust="spacing" textLength="172" x="632.5" y="632.5552">Requisita dados de usuários</text><polygon fill="#FFFFFF" points="636.5,666.0702,626.5,670.0702,636.5,674.0702,632.5,670.0702" style="stroke:#FFFFFF;stroke-width:1.0;"/><line style="stroke:#FFFFFF;stroke-width:1.0;stroke-dasharray:2.0,2.0;" x1="630.5" x2="1174" y1="670.0702" y2="670.0702"/><text fill="#FFFFFF" font-family="Verdana" font-size="13" lengthAdjust="spacing" textLength="164" x="642.5" y="664.2612">Retorna dados de usuários</text><polygon fill="#FFFFFF" points="449.5,697.7762,439.5,701.7762,449.5,705.7762,445.5,701.7762" style="stroke:#FFFFFF;stroke-width:1.0;"/><line style="stroke:#FFFFFF;stroke-width:1.0;stroke-dasharray:2.0,2.0;" x1="443.5" x2="619.5" y1="701.7762" y2="701.7762"/><text fill="#FFFFFF" font-family="Verdana" font-size="13" lengthAdjust="spacing" textLength="150" x="455.5" y="695.9672">Retorna lista de usuários</text><rect fill="#FFFFFF" height="3" style="stroke:#FFFFFF;stroke-width:1.0;" width="1217.5" x="5" y="731.6292"/><line style="stroke:#FFFFFF;stroke-width:0.5;" x1="5" x2="1222.5" y1="731.6292" y2="731.6292"/><line style="stroke:#FFFFFF;stroke-width:0.5;" x1="5" x2="1222.5" y1="734.6292" y2="734.6292"/><rect fill="#FFFFFF" height="25.706" style="stroke:#FFFFFF;stroke-width:1.0;" width="112.875" x="557.3125" y="719.7762"/><text fill="#0B58A8" font-family="Verdana" font-size="13" font-weight="bold" lengthAdjust="spacing" textLength="95.875" x="563.3125" y="737.6732">Retorno da API</text><polygon fill="#FFFFFF" points="245.5,775.1882,235.5,779.1882,245.5,783.1882,241.5,779.1882" style="stroke:#FFFFFF;stroke-width:1.0;"/><line style="stroke:#FFFFFF;stroke-width:1.0;stroke-dasharray:2.0,2.0;" x1="239.5" x2="432.5" y1="779.1882" y2="779.1882"/><text fill="#FFFFFF" font-family="Verdana" font-size="13" lengthAdjust="spacing" textLength="167" x="251.5" y="773.3792">Retorna página de usuários</text><polygon fill="#FFFFFF" points="48.5,806.8943,38.5,810.8943,48.5,814.8943,44.5,810.8943" style="stroke:#FFFFFF;stroke-width:1.0;"/><line style="stroke:#FFFFFF;stroke-width:1.0;stroke-dasharray:2.0,2.0;" x1="42.5" x2="233.5" y1="810.8943" y2="810.8943"/><text fill="#FFFFFF" font-family="Verdana" font-size="13" lengthAdjust="spacing" textLength="173" x="54.5" y="805.0853">Mostra usuários na interface</text></g></svg>